<svg aria-hidden="true" data-prefix="fas" data-icon="bez" role="img" xmlns="http://www.w3.org/2000/svg" viewBox="0 0 800 1000">	 
<path fill="#00505D" d="M408.2,980c-5,0-10,0-15,0c-0.4-0.3-0.8-0.7-1.2-0.7c-24.4-4.3-47.6-12.5-70.1-22.5c-89.7-39.5-159.5-102.1-212.5-184
	C72.5,716,47.4,654.1,30.2,588.9C9.7,511.3,1.2,432.2,0.3,352.2c-0.6-56.3-0.2-112.6-0.2-168.9c0-35.3,28.3-62.4,63.8-62.2
	c26.1,0.1,52.3,0,78.4-1.2c26.8-1.3,53.3-5.4,79.3-12.4c32-8.7,60.1-25.2,85.8-45.7c19.2-15.4,37.1-32.5,55.9-48.4
	c5-4.2,11.1-7.2,17-10.1c3.6-1.8,7.9-2.2,11.9-3.2c5.3,0,10.7,0,16,0c18.2,2.6,31.6,13.7,45.4,24.6C477.7,43.5,502,62.2,527,79.8
	c19.2,13.5,40.4,23.9,63.6,29.2c48.2,11,97.1,14.4,146.4,12.1c38.7-1.8,67.2,25.4,67.3,64c0,38.5-0.2,77,0,115.5
	c0.4,64.7-1.5,129.2-11,193.4c-6.8,45.7-16.7,90.6-31,134.5c-26.9,82.2-67.3,156.7-127.4,219.7c-51.4,53.9-111.7,94.4-182.2,119.2
	C438.2,972.6,423,975.9,408.2,980z M62,183c0,2.4,0,4.4,0,6.4c0,37.2,0.1,74.3,0,111.5c-0.2,53,0.6,105.9,7,158.7
	c6.2,51.2,16.2,101.5,32.4,150.5c24.1,73,59.7,139.4,112.8,195.7c45.5,48.2,98.8,84.5,161.7,105.9c12.5,4.3,24.6,8.1,38.7,3.8
	c60.8-18.7,113.4-50.8,159.1-94.5c60.5-57.7,100.8-128.1,127.5-206.7c28.3-83.4,39.6-169.7,40.9-257.4c0.8-56.2,0.3-112.3,0.4-168.5
	c0-1.8,0-3.6,0-5.7c-1.6,0-2.6,0-3.5,0c-39.9,1.4-79.6-0.1-119.2-5.8c-24.6-3.6-48.9-8-72.2-17c-39.4-15.3-74.2-38.3-107-64.3
	C426.9,84.9,414,73.4,400.6,62c-0.7,0.6-1.5,1.3-2.4,2c-19.1,16.1-37.5,33.1-57.3,48.2c-32.5,24.8-67.5,45.3-107.6,55.5
	c-39.7,10.1-80.3,14.1-121.2,15.2C95.6,183.4,79.2,183,62,183z"/>
<path fill="#00505D" d="M342.6,570.5c23.1-23.1,45.6-45.7,68.3-68.3c56.4-56.4,112.9-112.9,169.3-169.3c5.7-5.7,12-10,19.9-11.7
	c16.4-3.5,32.4,3.6,40.5,17.8c8.1,14.4,5.9,32.2-5.9,44.3c-13.1,13.5-26.6,26.7-39.9,40c-74.7,74.7-149.4,149.4-224.1,224.1
	c-5.7,5.7-12,10-19.9,11.7c-13.6,2.8-25.4-0.9-35.2-10.7c-19.5-19.4-38.9-38.9-58.3-58.3c-28.8-28.7-57.5-57.5-86.3-86.3
	c-21.1-21.2-13-55.3,15-63c14.5-4,26.9,0,37.5,10.5c28.3,28.3,56.6,56.6,84.8,84.9C319.6,547.4,330.9,558.7,342.6,570.5z"/>
</svg>
