<svg xmlns="http://www.w3.org/2000/svg" xml:space="preserve" width="100mm" height="100mm" version="1.1" style="shape-rendering:geometricPrecision; text-rendering:geometricPrecision; image-rendering:optimizeQuality; fill-rule:evenodd; clip-rule:evenodd"
viewBox="0 0 10000 10000">
<metadata/>
    <path class="fil0 str0" d="M5720.94 3244.42l-724.74 -0.72 -724.74 0.72 -183.94 0.18 0 469.07c1.86,22.53 2.8,45.32 2.8,68.33 0,23 -0.94,45.79 -2.8,68.32 -35.03,425.2 -394.08,759.44 -831.85,759.44 -460.97,0 -834.65,-370.6 -834.65,-827.76l0 -535.75 -2260.25 2.23c-52.16,0.05 -97.03,21.73 -129.21,62.44 -32.18,40.71 -42.7,89.1 -30.3,139.34l1463.86 5932.16c91.17,369.46 414.84,621.38 798.37,621.38l2732.71 0 2732.71 0c383.53,0 707.2,-251.92 798.37,-621.38l1463.86 -5932.16c12.4,-50.24 1.88,-98.63 -30.3,-139.34 -32.18,-40.71 -77.05,-62.39 -129.21,-62.44l-2260.25 -2.23 0 535.75c0,457.16 -373.68,827.76 -834.65,827.76 -437.77,0 -796.82,-334.24 -831.85,-759.44 -1.86,-22.53 -2.8,-45.32 -2.8,-68.32 0,-23.01 0.94,-45.8 2.8,-68.33l0 -469.07 -183.94 -0.18z"/>
<path class="fil0 str0" d="M4996.2 837.99c728.22,0 1318.85,584.21 1321.38,1305.83 0,1.54 0,3.09 0,4.64 0,0.55 0,1.1 0,1.66l1.87 1631.88c0,228.55 186.82,413.83 417.28,413.83 230.46,0 417.28,-185.28 417.28,-413.83l0 -1490.85c3.13,-47.16 4.71,-94.75 4.71,-142.69 0,-1184.46 -968.19,-2144.66 -2162.52,-2144.66 -1194.33,0 -2162.52,960.2 -2162.52,2144.66 0,47.94 1.58,95.53 4.71,142.69l0 1490.85c0,228.55 186.82,413.83 417.28,413.83 230.46,0 417.28,-185.28 417.28,-413.83l1.87 -1631.88c0,-0.56 0,-1.11 0,-1.66 0,-1.55 0,-3.1 0,-4.64 2.53,-721.62 593.16,-1305.83 1321.38,-1305.83z"/>
</svg>