<svg aria-hidden="true" data-prefix="fas" data-icon="dres" role="img" xmlns="http://www.w3.org/2000/svg" viewBox="0 0 600 990">
<path fill="#00505D" d="M432.2,0c0.7,0,1.3,0,2,0c1.7,1,3.4,2,5.2,2.9c19.2,10,38.6,19.6,57.5,30.1c13.7,7.6,14.3,10.2,8.6,24.8
	c-9.2,23.6-15.2,47.8-15.6,73.3c-0.6,33.2,8.5,62.8,31.7,87.3c5.6,5.9,11.1,12,16.6,18c3.9,4.2,5,8.8,3.5,14.7
	c-10.4,39.6-20.6,79.2-30.6,118.9c-0.9,3.4-0.5,7.6,0.6,11c42.9,130.2,86,260.3,128.9,390.4c15.2,46.1,29.9,92.4,44.7,138.7
	c2.6,8.1,0.7,12.6-7,16.3c-4.6,2.2-9.5,4-14.4,5.6c-49.4,15.2-99.7,26.5-150.6,35c-33.2,5.5-66.4,10.6-100.1,11.7
	c-10.3,0.3-20.6,0.9-30.9,1.4c-29.3,0-58.7,0-88,0c-4.1-0.3-8.3-0.6-12.4-0.9c-19-1.1-38-1.2-56.8-3.5
	c-56.6-7-112.5-17.7-167.4-32.8c-16.6-4.6-32.9-10.7-49-17c-8.4-3.3-9.8-7.8-7.8-16.5c2-8.6,4.3-17.1,6.7-25.6
	c46.8-167.8,93.7-335.5,140.3-503.3c1-3.7,0.8-8.3-0.2-12.1c-9.8-37.7-19.7-75.3-30.2-112.8c-2.5-9.1-1.5-16.6,4.7-23.5
	c1.5-1.7,3-3.6,4.3-5.5c7.6-11.5,15.8-22.7,22.7-34.6c24.9-42.7,24.7-86.7,5-131.2c-1.5-3.3-2.7-6.8-3.5-10.4
	c-1.9-8.1-0.3-12.3,7-16.1c19.1-10.1,38.5-19.7,57.5-30.1c7.5-4.1,13.6-2.6,20.5,1.2c13,7.1,26.2,13.8,39.6,20.1
	c23.9,11.3,49,14.5,75,9.6c19.6-3.7,38.1-10.8,55.7-20C414.9,10.3,423.5,5,432.2,0z M632.2,842.2c-0.9-3.3-1.6-5.8-2.4-8.3
	c-47.5-143.7-95.1-287.4-142.6-431.1c-0.9-2.7-2-3.9-5.1-3.9c-101.1,0.4-202.3,0.8-303.4,1c-4,0-5.4,1.5-6.4,5.1
	C132.6,548.1,92.8,691.2,53,834.3c-1.8,6.5-1.9,6.9,4.7,8.9c11.5,3.4,23,6.8,34.7,9.2c32.1,6.7,64.1,13.9,96.4,19.3
	c44,7.3,88.4,8.9,133,9.5c48,0.6,95.9-1.1,143.6-7.3c47.2-6.1,94-15.2,140.4-25.5C614.5,846.4,623.2,844.3,632.2,842.2z M442.8,39.3
	c-4,7.3-7.3,14-11.1,20.4C387.3,133.1,291.3,143,235.9,74c-7.3-9.1-12.5-20-18.3-30.3c-2.1-3.8-4.2-4.6-7.9-2.6
	c-5.9,3.1-12.1,5.7-17.8,9.1c-9.2,5.5-7.9,3.5-5.5,13.4c3.4,13.9,8,27.7,9.4,41.7c4.3,45.7-8.7,86.9-35.3,124
	c-3.7,5.1-7.4,10.3-10.4,15.9c-1.3,2.5-1.9,6.2-1.2,8.9c9.6,36.9,19.5,73.6,29.2,110.5c0.8,2.9,2.2,3.5,4.9,3.5
	c97.3,0.3,194.6,0.6,291.9,1.1c3.5,0,4.9-1,5.8-4.4c9.8-37.5,19.9-74.9,29.7-112.4c0.4-1.5-0.2-3.9-1.3-5.1
	c-4.1-4.8-8.6-9.3-12.8-14c-22.4-25.3-35.1-54.6-37.3-88.4c-1.7-25.5,2.9-50.1,10.7-74.2c1.8-5.5,3.5-11,5.4-16.7
	C464.2,48.9,453.7,44.2,442.8,39.3z M339.7,951.1c33.6-2.1,67.2-3.4,100.7-6.5c48.6-4.4,96.7-12.8,144.2-24.5
	c20.8-5.1,41.6-10.8,62.3-16.2c2.7-0.7,5.3-1.4,4.1-5.2c-2.7-8.2-5.3-16.5-7.9-24.7c-0.7-2.2-1.8-3.2-4.4-2.4
	c-4.1,1.2-8.5,1.8-12.7,2.8c-84.9,20.5-170.7,34.1-258.2,36.9c-93,3.1-184.7-5-275.1-27c-14.6-3.5-29.2-6.7-43.8-10.2
	c-4.6-1.1-7.3,0.2-8.6,4.8c-1.8,6.4-3.8,12.8-5.4,19.2c-0.3,1.2,0.9,3.5,2.1,4c4,1.9,8.3,3.5,12.6,4.8
	C144.2,935.2,240.9,949.8,339.7,951.1z M400.6,50.8c-48.1,19.4-96,24.8-144,0C287.5,97.2,359.6,109.1,400.6,50.8z"/>
</svg>
