<svg aria-hidden="true" data-prefix="fas" data-icon="eco" role="img" xmlns="http://www.w3.org/2000/svg" viewBox="0 0 890 890">	 
<path fill="#00505D" clip-rule="evenodd" d="M887.8,437.6c3.7,241.8-187.6,443.1-430.9,450.2C209.4,894.9,7.7,699.8,0.2,458.1
	C-7.5,210.4,188,6.1,432.7,0.1C682.4-5.9,884.6,193,887.8,437.6z M444.3,35.7C219.5,35.4,35.7,217.9,35.5,442.5
	c-0.3,231.4,187.4,409.7,408.4,409.8c223.4,0.1,408.4-180.9,408.6-407.6C852.6,212.8,663.1,34.9,444.3,35.7z"/>
<path fill="#00505D" clip-rule="evenodd" d="M444.1,90.5C634,89.8,797.7,244.3,797.7,444.3c0,195.3-159.5,356.6-360.2,353.2
	C247.6,794.4,90.3,640.3,90.2,442.4C90.2,248.6,249.3,90.5,444.1,90.5z M445,125.7c-173.7-1.6-317.3,140.3-319.2,315
	c-1.9,175.5,140,321,316.6,321.6c177.4,0.6,319.5-143.1,319.9-317.5C762.7,269.5,620.3,126.2,445,125.7z"/>
<path fill="#E3B196" clip-rule="evenodd" d="M464.7,284.9c47,0.9,102.8,12.5,157.3,30.9c17.5,5.9,34.8,12.3,51.7,19.6c13.9,5.9,17.2,18.1,8.1,30.2
	c-42.7,56.7-86,112.8-132.3,166.6c-15.5,18-30.9,36.4-50.6,50.2c-31,21.6-65.2,31.6-103.1,29c-37.7-2.6-70.1-17.2-97.6-42.8
	c-2.8-2.6-4-2.6-6.1,0.7c-6.4,10.1-12.3,20.6-18,31.1c-3.7,6.8-10.6,10.1-17.5,9c-8.1-1.3-13.5-6.1-15.3-13.7
	c-1.2-5,0.2-9.6,2.6-13.9c7.9-14.3,15.9-28.5,25.5-41.7c1.8-2.5,1.9-4.4,0.3-7.1c-33.3-56.8-27.6-129.6,13.9-180
	c26.7-32.4,61.4-51.3,101.8-60.9C408.1,286.6,430.9,284.9,464.7,284.9z M624.7,380.7c-1.3,0.1-2.7,0.1-4,0.4
	c-27,6-53.8,12.1-80.2,20.5c-19.2,6.1-38.2,12.6-56.6,20.9c-11.7,5.2-23.1-0.9-25.5-13.2c-1.6-8.1,3.2-15.8,12.5-19.8
	c42.1-18.3,86.2-30.4,130.8-40.5c1.1-0.2,2.4,0,2.8-1.7c-35.9-11.4-72.3-20.5-109.8-24.5c-29.4-3.1-58.8-4-88.1,1.1
	c-28.2,4.9-54.3,14.7-76.6,32.9c-47.8,38.9-60.8,103-30.5,156.5c23.5,41.4,60.3,62.3,108,62.9c26.8,0.3,51-8,72.6-23.9
	c13.4-9.9,24.2-22.3,35.1-34.7c29.9-34,58.2-69.4,86.1-105.1c8.1-10.3,16.6-20.3,23.7-31.4c0.2-0.2,0.4-0.4,0.7-0.5
	C625.3,380,625,380.2,624.7,380.7z"/>
<path fill="#00505D" clip-rule="evenodd" d="M150.3,431.9c2.2-47.8,14.7-92.6,38.9-133.8c39.8-67.6,97.5-113,172.6-135.9c10.1-3.1,20,2,22.8,11.4
	c2.9,9.7-2.5,19.4-12.9,22.5c-40.1,11.9-75.5,32-105.7,61.1c-38.7,37.3-63.7,82.3-75,134.8c-3.6,16.6-5.2,33.5-5.3,50.5
	c-0.1,14.3-12.3,22.8-24.8,17.5c-7.5-3.2-10.4-9.4-10.7-17.1C150.2,439.2,150.3,435.5,150.3,431.9z"/>
<path fill="#00505D" d="M451.8,150.2c17.1,0.8,35,2.5,52.6,6.4c9.4,2.1,14.9,9.2,14.7,18.1c-0.2,8.6-6.3,15.2-15.5,16.9
	c-4.2,0.8-8.2-0.8-12.3-1.5c-15.4-2.9-31-4.1-46.7-4.3c-14.5-0.2-22.9-15-15.6-26.9c3.3-5.3,8.2-8.1,14.4-8.7
	C445.9,150.1,448.4,150.2,451.8,150.2z"/>
<path fill="#E3B196" clip-rule="evenodd" d="M447.1,431.8c0,5.7-2.3,10.4-6.8,13.8c-7.4,5.6-14.6,11.6-21.9,17.4c-7.1,5.7-17.4,4.7-23.5-1.9
	c-6.1-6.6-6.4-16.8-0.1-23.6c7.7-8.4,16.7-15.4,26.4-21.2C432.6,409.5,447,418.4,447.1,431.8z"/>
</svg>