<svg aria-hidden="true" data-prefix="fas" data-icon="heart" role="img" xmlns="http://www.w3.org/2000/svg" viewBox="0 0 280 280">
<path fill="#00505D" d="M140.6,242.1c11.8,0,22.8,0,34.5,0c0-6.7,0.2-13.3-0.1-19.9c-0.2-4,1.1-6.9,4.4-9.4
	c6.1-4.6,11.6-10.1,17.9-14.4c14.6-10,22.3-24.4,27.3-40.6c2.2-7,4.1-14.1,6.6-20.9c0.7-1.8,3.4-4.3,4.8-4.1c3.5,0.6,3,3.6,2,6.4
	c-4.7,13.3-9.1,26.7-14.3,39.8c-3.3,8.5-9.6,15.1-16.7,20.9c-7.2,5.9-14.6,11.7-21.6,17.8c-1.6,1.4-2.8,4-2.9,6.1
	c-0.4,6.8-0.3,13.7-0.1,20.5c0.1,3.8-1.3,5.7-5.1,5.7c-13,0-26,0.2-39-0.2c-1.8,0-5.2-2.5-5.1-3.8c0.2-15.9-0.6-32.1,1.8-47.8
	c2.8-17.9,13.6-31.5,29.8-40.4c1.8-1,3.5-3.1,4.1-5c3.4-9.6,6.3-19.3,9.5-28.9c3.1-9.4,7-11.5,16.4-9c4.1-9.6,7.1-11.3,16.4-9.1
	c0.8-2,1.4-4,2.4-5.9c2.3-4.5,6.8-6.4,11.7-5.5c1.6,0.3,3.7-0.1,5-1.1c4.5-3.3,9.2-3.9,13.4-1.2c4.2,2.7,6.1,7.4,4.6,12.6
	c-1.6,5.8-3.4,11.5-5.2,17.2c-0.8,2.4-2,4.4-5.1,3.2c-2.9-1.1-2.8-3.2-1.9-5.7c1.7-5.2,3.5-10.4,4.7-15.8c0.4-1.7-1.3-3.8-2-5.7
	c-1.6,1.2-4.2,2.1-4.8,3.7c-3.1,9.1-5.6,18.5-8.6,27.6c-4.9,15.1-13.4,27.8-25.6,38c-5.9,4.9-11.9,9.6-18.2,14.1
	c-1.3,0.9-3.7,0.3-5.6,0.5c0.1-1.9-0.5-4.4,0.5-5.7c7.9-10.3,16-20.4,24.1-30.6c0.8-1,2-2,2.4-3.2c0.4-1.5,0.2-3.2,0.2-4.9
	c-1.8,0.1-4.1-0.5-5.2,0.5c-4.2,3.5-8,7.5-11.9,11.4c-6.6,6.5-13.4,12.6-21.5,17.5c-16.3,9.8-23.3,25.5-24.2,44
	C140.2,221.1,140.6,231.4,140.6,242.1z M180.7,144.2c7.1-4.3,9.8-11.3,11.4-18.9c0.2-1.2-1.1-2.7-1.7-4c-1.3,0.7-3.3,1.2-3.6,2.2
	c-2.3,6.7-4.2,13.5-6.3,20.3c-0.1,0.3-0.3,0.6-0.4,0.9C180.3,144.6,180.5,144.4,180.7,144.2z M210.9,139.4c0.7,0.1,1.3,0.2,2,0.3
	c0.7-1.1,1.6-2.2,2-3.4c3.4-9.9,6.9-19.7,10-29.7c0.4-1.3-0.6-3.1-1-4.7c-1.4,1-3.5,1.8-4,3.1c-2.7,7.3-5.2,14.8-7.2,22.3
	C211.5,131.3,211.4,135.4,210.9,139.4z M198.9,128.6c3.8,1.3,5.8,0.2,6.6-3.3c0.7-2.9,2-5.6,2.5-8.5c0.2-1.4-0.8-3-1.3-4.5
	c-1.3,1-3.2,1.7-3.7,3C201.5,119.6,200.3,124.1,198.9,128.6z"/>
<path fill="#00505D" d="M73.9,242c11.9,0,23.1,0,34.9,0c-0.8-18.7,2.7-37.5-6.3-55.1c-5.1-10-13-16.9-22.3-22.9
	c-7.1-4.7-13.2-11-19.6-16.7c-3.2-2.9-6-6.3-9.4-9c-1.3-1-3.6-0.7-5.4-1c0.2,1.9-0.4,4.3,0.6,5.6c8.4,11,17.1,21.7,25.6,32.6
	c0.9,1.2,2,3.1,1.7,4.3c-0.8,2.8-2.9,4-5.7,2.1c-22.2-15-40.4-33.1-47.1-60.3c-1.7-6.9-3.8-13.8-6.2-20.5c-0.5-1.4-3-2.2-4.6-3.3
	c-0.8,1.7-2.6,3.8-2.2,5.2c7.6,23.7,15,47.5,23.5,71c2.3,6.3,7.7,11.5,12,17c1.6,2.1,3.6,3.8,1.1,6.3c-2.5,2.5-4.4,0.6-6.4-1.1
	c-8.9-8-14.4-18.3-18.1-29.4c-6.8-20.5-13-41.2-19.3-61.8c-1.7-5.5,0.2-10.3,4.6-13c4.7-2.9,9.1-2.3,13.7,1.6
	c0.9,0.7,2.3,1.4,3.3,1.3c9-1.2,11.6,0.3,14.5,8.7c0.2,0.6,0.4,1.2,0.5,1.3c3.9,0.4,7.8-0.1,10.7,1.5c2.8,1.5,4.4,5,6.4,7.5
	c3.4,0.5,7.9-0.1,10.6,1.8c2.9,2,4.6,6.3,5.9,9.9c3.3,9.1,5.9,18.3,9.2,27.4c0.7,1.9,2.4,4,4.2,5c20.9,11.8,30.7,30.2,31.8,53.6
	c0.5,10.8-0.1,21.7,0.1,32.5c0.1,4.3-1.5,6.1-5.8,6c-12.7-0.1-25.3-0.1-38,0c-4,0-5.8-1.7-5.7-5.7c0.1-6.8,0.3-13.7-0.1-20.5
	c-0.1-2.1-1.4-4.7-2.9-6.2c-3.7-3.6-8.1-6.5-11.7-10.1c-1.1-1.1-0.8-3.6-1.1-5.4c1.9,0,4.3-0.8,5.6,0.1c5.3,3.8,10.3,7.9,15.1,12.3
	c1.5,1.4,2.4,4,2.5,6C74.1,227.5,73.9,234.5,73.9,242z M35.8,140c0.5-0.2,1-0.3,1.4-0.5c0.4-2.2,1.7-4.7,1.1-6.6
	c-2.8-9.7-6.1-19.2-9.4-28.8c-0.4-1.1-2.3-1.6-3.6-2.3c-0.5,1.4-1.6,3-1.3,4.2c1.5,5.9,3.2,11.8,5.2,17.6
	C31.1,129.2,33.6,134.6,35.8,140z M69.3,144.9c-2.3-7.2-4.3-13.9-6.7-20.4c-0.5-1.4-2.6-2.2-4-3.2c-0.5,1.7-1.6,3.5-1.3,5.1
	C58.6,133.7,61.7,140.2,69.3,144.9z M50.2,128.9c-1.5-4.9-2.8-9.5-4.5-13.9c-0.4-1.1-2.3-1.8-3.4-2.6c-0.5,1.4-1.7,3-1.4,4.2
	c1.1,4.3,2.7,8.4,4.1,12.6C46.9,129.1,48.3,129,50.2,128.9z"/>
<path fill="#E3B196" d="M124.4,16.2C138,0.9,154.4-3.6,173.3,3c15.7,5.5,25.9,21.3,26.4,39.4c0.7,21.7-9.5,38.6-23.7,53.7
	c-13.8,14.7-30.1,26.2-48,35.5c-1.9,1-5.4,1-7.2-0.1c-9.8-5.9-19.4-12.2-28.9-18.6c-1.3-0.9-2.4-4.1-1.8-5.5
	c1.4-3.1,3.8-1.9,6.2-0.3c8.3,5.5,16.7,11,25.1,16.3c1.3,0.8,3.7,1.5,4.8,0.9c22.8-12.7,43.7-27.6,57.6-50.3
	c8.5-13.8,11.3-28.6,5.8-44.4c-7.9-22.6-38.4-29.8-55.4-12.8c-2.5,2.5-3.9,6.1-6,9c-0.9,1.2-2.4,2.7-3.6,2.7c-1.2,0-2.9-1.5-3.6-2.7
	c-7.6-14.1-19.5-20-36.1-17.6c-13.6,1.9-24,12.4-27.1,27.1C54.3,52,59.4,66.8,69.3,80.1c4.5,6,10,11.1,14.7,16.9
	c0.9,1.1,0.4,3.4,0.5,5.1c-1.8,0-4.2,0.8-5.1,0c-13.9-12.9-25.6-27.3-29-46.6c-3-16.9-0.2-32.8,13-45C80.7-5.6,108.6-2.8,124.4,16.2
	z"/>
<path fill="#E3B196" d="M125.1,78.1c-6.8,0.1-13.3-4.1-15.4-10.5c-0.5-1.4,0.7-3.4,1.1-5.1c1.8,0.7,4.3,0.8,5.1,2.1
	c5.5,8.2,12.2,8.2,17.3,0c0.8-1.3,3.3-1.6,5-2.4c0.5,1.8,1.8,3.9,1.3,5.5C137.7,73.7,131.3,78,125.1,78.1z"/>
<path fill="#E3B196" d="M96,47c3.9-0.1,7.1,2.9,7.1,6.7c0.1,4-3.3,7.4-7.1,7.3c-3.6-0.1-7-3.5-7-7.1C88.9,50.3,92.2,47.1,96,47z"/>
<path fill="#E3B196" d="M153,61.1c-3.8,0-7.3-3.6-7.2-7.4c0.1-3.6,3.6-6.7,7.3-6.6c3.9,0.1,6.8,3.1,6.7,7.1
	C159.8,57.9,156.7,61.1,153,61.1z"/>
<path fill="#E3B196" d="M180.7,144.2c-0.2,0.2-0.5,0.4-0.7,0.6c0.1-0.3,0.3-0.6,0.4-0.9C180.5,143.8,180.7,144.2,180.7,144.2z"/>
</svg>
