<svg aria-hidden="true" data-prefix="fas" data-icon="mobile-alt" class="" role="img" xmlns="http://www.w3.org/2000/svg" viewBox="0 0 320 512">
<path fill-rule="evenodd" clip-rule="evenodd" d="M168.11,25.72c-2.08,0.19-3.66,0.43-5.96,0.95c-2.29,0.51-5.31,1.3-8.2,2.27
		c-2.89,0.97-5.66,2.12-8.9,3.85c-3.24,1.74-6.95,4.05-9.85,6.13c-2.9,2.07-5,3.91-7.66,6.84c-2.66,2.93-5.89,6.97-8.59,11.28
		c-2.7,4.3-4.87,8.88-6.48,13.5c-1.61,4.62-2.64,9.3-3.23,15.2c-0.58,5.9-0.67,14.73-0.8,21.86H242.3
		c-0.13-7.14-0.22-15.96-0.8-21.86c-0.58-5.9-1.62-10.58-3.23-15.2c-1.6-4.62-3.78-9.2-6.48-13.5c-2.7-4.31-5.93-8.34-8.59-11.28
		c-2.66-2.93-4.76-4.77-7.66-6.84c-2.9-2.08-6.61-4.4-9.85-6.13c-3.24-1.73-6-2.89-8.9-3.85c-2.89-0.97-5.91-1.76-8.2-2.27
		c-2.29-0.52-3.87-0.75-5.96-0.95C177.45,25.24,173.3,25.25,168.11,25.72L168.11,25.72z M243.27,162.63l-0.97-24.52
		c-9.55,4.97-16.07,14.96-16.07,26.48c0,16.48,13.36,29.83,29.83,29.83c16.48,0,29.83-13.36,29.83-29.83
		c0-12.39-7.54-23.4-18.29-27.91l-0.28,27.53c0,6.73-5.39,10.52-12.03,10.52C248.65,174.73,243.27,169.34,243.27,162.63
		L243.27,162.63z M185.19,0.67c3.87,0.49,8.49,1.31,13.34,2.61c4.85,1.31,9.91,3.1,14.99,5.46c5.08,2.36,10.17,5.3,14.65,8.39
		c4.48,3.09,8.34,6.34,12.99,11.58c4.65,5.24,10.07,12.48,13.94,18.87c3.87,6.38,6.19,11.92,7.97,17.94
		c1.78,6.01,3.01,12.51,3.68,19.27c0.66,6.76,0.76,15.81,0.86,22.83h54.73l28.43,294.47H0l28.43-294.47h54.73
		c0.1-7.02,0.19-16.07,0.86-22.83c0.66-6.76,1.9-13.25,3.68-19.27c1.78-6.02,4.1-11.55,7.97-17.94c3.87-6.39,9.29-13.62,13.94-18.87
		c4.64-5.24,8.51-8.49,12.99-11.58c4.48-3.09,9.57-6.03,14.65-8.39c5.08-2.36,10.14-4.15,14.99-5.46c4.84-1.31,9.47-2.13,13.34-2.61
		C172.67-0.23,178.1-0.22,185.19,0.67L185.19,0.67z M83.43,162.61L83.43,162.61l-0.28-25.94c-10.75,4.51-18.29,15.52-18.29,27.91
		c0,16.48,13.36,29.83,29.83,29.83s29.83-13.36,29.83-29.83c0-11.52-6.52-21.51-16.07-26.48l-0.97,24.59
		c0,6.71-5.38,12.03-12.02,12.03C88.82,174.73,83.43,169.34,83.43,162.61z"/>
</svg>
