<svg aria-hidden="true" data-prefix="fas" data-icon="kar" role="img" xmlns="http://www.w3.org/2000/svg" viewBox="0 0 900 1000">
<path fill="#00505D" d="M926,484c-1,2.4-2.2,4.8-3,7.3c-4.2,12.6-13.5,17.5-26,17.7c-24.6,0.4-49.3,0.8-73.9,1.2c-23.2,0.3-46.3,0.5-69.5,0.9
	c-5.1,0.1-10.3,0.8-15.3,1.9c-6.6,1.4-9.2,4.3-9.4,11c-1.1,36.3-2,72.6-2.8,108.9c-0.4,17.5-0.4,35-0.8,52.5
	c-0.1,2.4-0.7,4.9-1.7,7.1c-7.2,16-15.7,31.1-30.6,41.1c-8,5.3-16.8,9.4-25.3,13.9c-1.4,0.7-3.2,0.7-4.9,0.7
	c-42.6,0.6-85.3,1.2-127.9,1.9c-11,0.2-22,0.9-32.9,2c-8.5,0.8-12.1,3.7-12.3,12.5c-0.8,33-1.7,65.9-2.6,98.9
	c-0.4,14.7-0.7,29.3-1.1,44c-0.5,22.3-11.4,39.3-28.1,52.9c-14.8,12.1-31.6,18.9-51,18.7c-6.6-0.1-13.3,0.6-19.9,1
	c-40.3,0-80.7,0-121,0c-3.1-0.4-6.3-0.7-9.4-1.1c-12.7-1.7-22.3-7.9-26.7-20.3c-4.3-11.9-1.5-22.6,7.3-31.7
	c3.8-3.9,8.4-5.9,13.8-6.1c28-0.7,55.9-1.6,83.9-2.2c25.5-0.5,51-0.7,76.5-0.9c3.2,0,5.4-1,7.8-3.4c5.3-5.3,7.1-11.1,7-18.6
	c-0.1-42.8,0.6-85.6,0.8-128.5c0.2-37.3,27.3-68.3,60.5-75.6c13.7-3,28.1-3.2,42.2-3.3c39.5-0.5,79-0.4,118.5-0.4
	c3.7,0,6-1.4,8.7-3.6c6.6-5.2,8.3-11.6,8.3-19.9c-0.1-44.7,0-89.3,1-134c0.9-39.1,23.2-68,59.1-77.9c6.6-1.8,13.8-2.5,20.7-2.5
	c47.5-0.2,95,0.2,142.4-0.3c20.9-0.2,31,6.4,37.5,26.1C926,478.7,926,481.3,926,484z"/>
<path fill="#00505D" d="M0,564c13.5-30,26.9-60,40.7-90.6c12.3,5.7,23.8,10.9,35.1,16.3c19.7,9.4,39.2,19.1,58.9,28.4c4.6,2.2,5.2,4.8,3.2,9
	c-2.6,5.3-4.7,10.7-3.1,16.8c2.3,8.9,12.6,12.1,19.2,5.6c3.1-3.1,5.7-7,7.9-10.9c2.2-3.9,4.8-4.6,8.6-3c7.6,3.3,15.4,6.3,22.9,9.9
	c21.4,10.1,42.6,20.5,64,30.4c4.6,2.1,5.5,4.6,3.6,8.9c-5,11.2-9.8,22.6-15.1,33.7c-6.9,14.6-14,29.1-21.1,43.6
	c-0.6,1.2-1.3,2.3-2,3.5c-4.9,8.2-5.8,8.8-14.6,4.8c-41.3-18.9-82.6-37.7-123.7-57c-23.8-11.2-47.3-22.9-70.8-34.7
	c-4.9-2.5-9.2-6.4-13.8-9.6C0,567.3,0,565.7,0,564z"/>
<path fill="#00505D" d="M349,0c17.3,4.8,26.8,17.5,33.2,33.2c0.9,2.3,2,4.5,3.1,6.9c1.1-0.4,1.9-0.6,2.6-1.1c18.4-11.3,38.8-11.7,59-8.8
	c17.5,2.5,31.5,12.7,41.7,27c18.1,25.3,21.4,52.6,6.9,80.5c-14.4,27.7-38.7,41-69.6,39.7c-31.2-1.3-54.2-16.8-66-46.1
	c-9.4-23.5-7.3-47,5.7-69.1c1.7-2.8,3.3-5.8,4.2-9c1-3.5-1.2-5.3-4.5-4.1c-2.6,0.9-5.1,2.5-7.2,4.2c-9.9,8.1-14.8,18.8-14.9,31.4
	c-0.1,11.8,0.1,23.7,1,35.4c0.9,12.3-5.2,21.9-9.7,31.6c-9.7-21.9-19.9-43.7-29-65.8c-6-14.7-9.1-30.3-6.9-46.4
	c2.6-19,13.5-30.9,31.6-36.7c3-0.9,5.9-2,8.8-3C342.3,0,345.7,0,349,0z"/>
<path fill="#00505D" d="M472,320.3c-4.5,43.7-9,87.3-13.5,131.6c13.7,3.1,26.8,6.1,39.9,9.1c34.7,8.1,69.3,16.2,104,24.4c4.1,1,8.9,1.4,9.5,7.2
	c0.5,5.2-2,8.5-6.1,11.1c-0.6,0.3-1,0.8-1.7,1.4c0.2,0.6,0.2,1.3,0.5,1.8c7.1,12.1,8.6,25.4,8.5,39c-0.3,27.3,0.3,54.7-0.9,82
	c-0.9,21.9-22.8,38.1-44.7,34.7c-20.4-3.2-33.8-17.7-34.4-38.5c-0.6-21.1-0.5-42.3-0.7-63.5c0-1.6,0-3.3,0-5.2
	c-12.8-0.7-25-1-36.5,4.9c-23.4,12.1-46.8,24-70.1,36.1c-1.3,0.7-2.5,3-2.6,4.6c-1.5,21.6-2.8,43.2-4,64.9
	c-0.6,11.1-3.4,21.3-10.2,30.3c-25.8,34.4-51.5,68.8-77.3,103.2c-7.8,10.4-17.4,18-31.3,19.2c-26.4,2.3-49-23.9-42-49.4
	c1-3.8,3.1-7.4,5.4-10.6c18.1-25.5,36.5-50.9,54.7-76.4c6.7-9.4,13.2-18.8,19.2-28.6c1.9-3.1,2.2-7.3,3.3-10.9
	c-0.5-0.4-1.1-0.8-1.6-1.2c-4.6,1.6-9.1,3.3-13.7,4.8c-5.6,1.8-10.2-0.9-11.2-6.5c-0.3-1.4,0-3,0.3-4.4
	c6.6-35.8,12.9-71.7,19.9-107.5c9-45.8,16.3-91.8,20.6-138.3c3.2-35.2,6.9-70.3,10.4-105.4c0.2-1.9,0.3-3.9,0.4-6.6
	c-9.5,2.7-18.3,5-27,7.6c-9.6,2.9-19.1,5.8-28.5,9.1c-2.6,0.9-5.7,2.6-7.1,4.9c-27.5,45.2-54.8,90.6-82.2,135.9
	c-0.4,0.7-0.7,1.5-1.4,3c3.5,2.1,7,4.1,10.6,6.2c8.6,4.9,9.9,8.4,6.4,17.6c-1.2,3.3-2.8,6.4-4.2,9.6c-1.3,3-2.7,6-4.1,9.3
	c13.4,6.6,26.6,12.9,39.6,19.5c6.1,3.1,11.9,6.7,17.9,10c4.9,2.7,6.2,7,4.5,11.9c-2.4,6.7-5.2,13.3-8.1,19.8
	c-4.2,9.2-8.7,18.3-13.2,27.7c-12.7-5.9-24.9-11.6-37-17.4c-18.6-8.9-37.2-17.9-55.7-26.9c-3.3-1.6-5.2-3.7-5.9-7.8
	c-1.8-10.9-11.3-15.4-21.1-10.3c-4.3,2.3-8.2,0.9-11.9-0.7c-13.9-6.1-27.7-12.3-41.4-18.6c-14.9-6.9-29.8-14.1-44.7-21.1
	c-1.5-0.7-2.9-1.5-4.7-2.4c0.5-1.6,0.8-3,1.5-4.3c6.4-13.2,12.6-26.4,19.3-39.5c4-7.9,7.6-9.6,15.8-6.4
	c12.1,4.6,23.9,10.1,35.7,15.3c6.5,2.9,13,6,20.1,9.3c3.8-7.5,7.8-14.5,11.1-21.9c1.9-4.1,4.3-5.6,8.5-4.3c8.4,2.6,13-0.4,17.5-8.2
	c25.3-43.5,51.6-86.3,76.9-129.7c8.5-14.6,19.9-24.3,35.6-29.3c29.1-9.4,58.2-19,87.4-28c13.5-4.1,27.2-7.7,41.1-10
	c16-2.6,30.4,2.3,41.7,14.4c17,18.1,33.9,36.2,50.8,54.4c5.2,5.6,10.7,11.1,15.3,17.1c5.1,6.8,11.8,9.9,19.8,12.1
	c42.8,12.4,85.5,25.2,128.2,37.9c4.3,1.3,8.3,3.3,12.5,5c10.3,4.1,14.6,12.2,13.3,22.6c-0.7,5.9-2.8,12.1-6,17
	c-5.6,8.5-13.9,12.2-24.3,9.2c-52.1-15-104.2-30-156.2-45.3c-5.3-1.6-10.2-5.5-14.6-9.2c-5.8-4.9-10.9-10.7-16.5-16
	c-2.5-2.4-5.2-4.5-7.8-6.7C473.2,319.8,472.6,320,472,320.3z M161.8,422c-0.9-0.4-1.9-0.7-2.8-1.1c-0.4,1.3-0.6,2.7-1.1,4
	c-2.2,5-4.7,9.9-6.6,15.1c-0.4,1.1,0.6,3.7,1.7,4.3c20.5,10.2,41.1,20.3,61.8,30.2c1.1,0.5,3.9-0.2,4.4-1.1c3-5.2,5.6-10.5,8.1-16
	c0.4-0.9-0.1-2.9-0.8-3.4c-6.1-3.7-11.8-7.8-19.8-4.9c-14.9,5.4-27.8,0.7-35.1-12.4c-1.2-2.2-1.5-4.9-2.9-6.8
	C166.7,427,164.1,424.6,161.8,422z"/>
</svg>
