<?xml version="1.0" encoding="UTF-8"?>
<!DOCTYPE svg PUBLIC "-//W3C//DTD SVG 1.1//EN" "http://www.w3.org/Graphics/SVG/1.1/DTD/svg11.dtd">
<!-- Creator: CorelDRAW -->
<svg xmlns="http://www.w3.org/2000/svg" xml:space="preserve" width="55.717mm" height="5.535mm" version="1.1" style="shape-rendering:geometricPrecision; text-rendering:geometricPrecision; image-rendering:optimizeQuality; fill-rule:evenodd; clip-rule:evenodd"
viewBox="0 0 5571.7 553.5"
 xmlns:xlink="http://www.w3.org/1999/xlink"
 xmlns:xodm="http://www.corel.com/coreldraw/odm/2003">
 <defs>
  <style type="text/css">
   <![CDATA[
    .fil0 {fill:#F0F0EE}
    .fil1 {fill:#E3B196;fill-rule:nonzero}
   ]]>
  </style>
 </defs>
 <g id="Слой_x0020_1">
  <metadata id="CorelCorpID_0Corel-Layer"/>
  <polygon class="fil0" points="1499.52,30.4 1267.37,547.74 1170.73,547.74 938.73,30.4 934.31,20.55 945.11,20.55 1039.34,20.55 1043.87,20.55 1045.73,24.69 1248.34,476.15 1450.16,24.69 1452.02,20.52 1456.55,20.52 1493.14,20.52 1503.95,20.52 "/>
  <polygon class="fil0" points="1740.4,20.52 1740.4,547.74 1843.25,547.74 1843.25,20.52 "/>
  <polygon class="fil0" points="2434.09,65.97 2285.57,65.97 2285.57,540.71 2285.57,547.74 2278.54,547.74 2250.03,547.74 2216.45,547.74 2216.45,547.7 2187.88,547.7 2180.85,547.7 2180.85,540.71 2180.85,65.97 2032.35,65.97 2025.36,65.97 2025.36,58.94 2025.36,27.54 2025.36,20.52 2032.35,20.52 2187.88,20.52 2278.54,20.52 2434.09,20.52 2441.08,20.52 2441.08,27.54 2441.08,58.94 2441.08,65.97 "/>
  <path class="fil0" d="M3296.59 398.11c7.7,12.07 16.76,23.54 27.13,34.39 10.26,10.83 21.14,20.3 32.58,28.38 11.44,8.07 23.47,14.77 36.05,20.13 12.56,5.34 25.79,9.39 39.65,12.11 13.85,2.7 28.41,4.07 43.67,4.07 15.05,0 29.49,-1.36 43.26,-4.05 13.88,-2.71 27.16,-6.77 39.78,-12.13 12.59,-5.36 24.61,-12.06 36.03,-20.13 11.44,-8.08 22.28,-17.54 32.5,-28.35l0.06 -0.05c10.38,-10.85 19.43,-22.3 27.15,-34.37 7.74,-12.12 14.2,-24.91 19.39,-38.41l0 -0.02c5.12,-13.26 8.96,-27.29 11.5,-42.06 2.55,-14.76 3.81,-30.31 3.81,-46.64 0,-16.3 -1.26,-31.89 -3.81,-46.71 -2.53,-14.81 -6.38,-28.96 -11.53,-42.41 -5.19,-13.32 -11.64,-26 -19.36,-38.03 -7.78,-12.12 -16.83,-23.59 -27.15,-34.39l-0.03 -0.02c-10.27,-10.85 -21.18,-20.41 -32.72,-28.61 -11.36,-8.05 -23.3,-14.75 -35.8,-20.04 -12.6,-5.31 -25.84,-9.32 -39.71,-11.99 -13.8,-2.66 -28.26,-4 -43.37,-4 -15.28,0 -29.85,1.34 -43.7,4 -13.89,2.67 -27.11,6.68 -39.66,11.99 -12.5,5.29 -24.47,12.01 -35.85,20.07 -11.48,8.13 -22.41,17.7 -32.74,28.6 -10.34,10.84 -19.39,22.32 -27.13,34.39 -7.73,12.07 -14.17,24.76 -19.34,38.06l-0.01 0c-5.13,13.37 -8.97,27.52 -11.51,42.38 -2.54,14.82 -3.78,30.41 -3.78,46.71 0,16.33 1.24,31.88 3.78,46.64 2.53,14.77 6.37,28.79 11.52,42.06l0.03 0.02c5.19,13.56 11.62,26.35 19.31,38.41zm-118.82 -233.55l0 0 -0.03 -0.01c12.45,-32.44 31.12,-61.7 55.95,-87.67l0.06 -0.06c40.31,-41.45 97.6,-67.19 158.06,-77.44 63.74,-10.82 131.21,-4.45 186.12,18.77l0.05 0c15.51,6.66 30.33,14.91 44.41,24.71 14,9.73 27.31,21.06 39.92,33.96 12.63,13.05 23.66,26.86 33.1,41.43 9.46,14.6 17.32,30 23.56,46.17l0.02 0.03c6.21,16.2 10.93,33.28 14.07,51.13 3.1,17.67 4.67,36.15 4.67,55.4 0,19.15 -1.57,37.63 -4.68,55.36 -3.13,17.89 -7.85,35.05 -14.06,51.39l-0.02 0c-6.28,16.35 -14.17,31.91 -23.6,46.57 -9.41,14.62 -20.45,28.48 -33.06,41.45 -12.59,12.95 -25.94,24.31 -40.01,34.03 -14.11,9.74 -28.93,17.84 -44.4,24.25 -54.94,22.96 -122.73,29.41 -186.72,18.62 -60.26,-10.14 -117.34,-35.6 -157.43,-76.9l-0.03 -0.03c-12.5,-13.04 -23.36,-26.87 -32.62,-41.46 -9.27,-14.63 -17,-30.07 -23.21,-46.27l0.01 -0.01c-6.28,-16.26 -11,-33.32 -14.12,-51.14 -3.11,-17.69 -4.66,-36.32 -4.66,-55.86l-0.04 0c0,-38.54 6.24,-74.02 18.69,-106.42z"/>
  <path class="fil0" d="M4046.78 306.42l0.03 241.32c-34.27,-0.15 -68.56,-0.04 -102.83,-0.04l0 -520.16 0 -7.02 7.02 0 282.38 0 0 0.03c16.82,0.04 32.44,1.51 46.75,4.37 14.58,2.92 28.01,7.31 40.18,13.09l0.05 0.02c12.1,5.88 22.88,12.9 32.29,21.11 9.43,8.23 17.49,17.68 24.13,28.4 6.6,10.68 11.54,22.33 14.81,34.89 3.24,12.4 4.87,25.76 4.94,40l0 0.06c-0.07,12.84 -1.39,24.96 -3.98,36.3 -2.63,11.47 -6.57,22.21 -11.85,32.17l-0.01 0c-5.25,10.14 -11.69,19.31 -19.3,27.5 -7.56,8.15 -16.34,15.37 -26.25,21.66l0.01 0c-9.99,6.4 -21.07,11.62 -33.18,15.62 -8.71,2.87 -17.99,5.16 -27.8,6.83l162.26 234.17 7.6 10.96 -13.36 0 -39.66 0 -3.68 0 -2.08 -2.98 -165.81 -238.3 -172.66 0zm183.7 -240.45l0 0 -183.7 0 0 194.97 183.7 0c12.72,0 24.35,-0.99 34.95,-2.91 10.86,-1.95 20.87,-4.91 30.01,-8.74l0 0.01c8.63,-3.79 16.29,-8.43 22.93,-13.91l0.02 0c6.56,-5.41 12.15,-11.72 16.71,-18.91l0 0.01c4.56,-7.2 8.02,-15.24 10.32,-24.07 2.32,-8.88 3.5,-18.67 3.5,-29.33 0,-10.31 -1.18,-19.82 -3.49,-28.5 -2.31,-8.67 -5.77,-16.59 -10.32,-23.73 -4.53,-7.1 -10.11,-13.39 -16.68,-18.85 -6.64,-5.52 -14.36,-10.24 -23.1,-14.16 -8.91,-3.88 -18.71,-6.87 -29.4,-8.85 -10.75,-2.01 -22.56,-3.03 -35.45,-3.03z"/>
  <polygon class="fil0" points="3031.37,65.97 2882.58,65.97 2882.58,540.71 2882.58,547.74 2875.56,547.74 2847.11,547.74 2813.37,547.74 2785.05,547.74 2778.04,547.74 2778.04,540.71 2778.04,65.97 2629.47,65.97 2622.47,65.97 2622.47,58.94 2622.47,27.54 2622.47,20.52 2629.47,20.52 2785.05,20.52 2875.56,20.52 3031.37,20.52 3038.36,20.52 3038.36,27.54 3038.36,58.94 3038.36,65.97 "/>
  <path class="fil0" d="M5087.43 397.67l-66.24 145.92 -1.89 4.15 -4.51 0 -36.02 0 -10.9 0 4.5 -9.91 233.19 -513.17 1.89 -4.14 4.5 0 88.32 0 4.51 0 1.88 4.14 231.69 513.17 4.45 9.87 -10.84 0 -92.06 0 -4.53 0 -1.86 -4.11 -66.37 -145.92 -279.71 0zm260.88 -43.44l0 0 -120.98 -266.18 -121.88 266.18 242.86 0z"/>
  <polygon class="fil0" points="4663.14,20.52 4663.14,547.74 4765.99,547.74 4765.99,20.52 "/>
  <path class="fil1" d="M46.49 542.18l-41.43 0 0 -361.68 44.46 0 0 129.06c18.77,-23.4 42.68,-35.1 71.81,-35.1 16.08,0 31.4,3.2 45.8,9.68 14.4,6.48 26.18,15.66 35.53,27.36 9.26,11.79 16.58,25.93 21.8,42.52 5.31,16.5 7.92,34.26 7.92,53.12 0,44.79 -11.12,79.47 -33.26,103.89 -22.22,24.5 -48.83,36.71 -79.89,36.71 -30.9,0 -55.15,-12.88 -72.74,-38.56l0 33zm-0.51 -133.02c0,31.32 4.29,53.97 12.8,67.94 13.97,22.82 32.83,34.27 56.66,34.27 19.45,0 36.2,-8.42 50.26,-25.26 14.14,-16.84 21.21,-41.93 21.21,-75.27 0,-34.18 -6.73,-59.35 -20.29,-75.6 -13.55,-16.25 -29.97,-24.41 -49.16,-24.41 -19.45,0 -36.2,8.41 -50.26,25.25 -14.15,16.84 -21.22,41.17 -21.22,73.08zm419.35 48.16l45.97 6.06c-7.16,26.69 -20.55,47.48 -40.08,62.21 -19.53,14.74 -44.45,22.15 -74.84,22.15 -38.23,0 -68.53,-11.79 -90.93,-35.36 -22.39,-23.49 -33.59,-56.58 -33.59,-99.09 0,-43.95 11.28,-78.13 33.93,-102.38 22.65,-24.33 52.03,-36.45 88.15,-36.45 34.93,0 63.47,11.87 85.62,35.69 22.14,23.83 33.25,57.34 33.25,100.53 0,2.61 -0.08,6.56 -0.25,11.78l-195.24 0c1.69,28.71 9.77,50.77 24.42,66.01 14.56,15.24 32.83,22.9 54.64,22.9 16.25,0 30.14,-4.3 41.59,-12.88 11.53,-8.59 20.62,-22.31 27.36,-41.17zm-145.48 -71.23l145.98 0c-1.93,-22.06 -7.57,-38.56 -16.75,-49.59 -14.06,-17.09 -32.41,-25.67 -54.89,-25.67 -20.38,0 -37.47,6.82 -51.36,20.45 -13.8,13.64 -21.47,31.91 -22.98,54.81zm246.59 156.09l0 -361.68 44.45 0 0 361.68 -44.45 0zm112.23 0l0 -361.68 44.45 0 0 361.68 -44.45 0zm284.48 -32.83c-16.5,14.06 -32.41,23.91 -47.65,29.71 -15.24,5.81 -31.57,8.68 -49.08,8.68 -28.8,0 -50.94,-6.99 -66.43,-21.05 -15.49,-13.98 -23.23,-31.91 -23.23,-53.71 0,-12.8 2.94,-24.5 8.75,-35.11 5.89,-10.61 13.56,-19.03 22.98,-25.43 9.52,-6.4 20.13,-11.28 32,-14.56 8.75,-2.27 21.97,-4.46 39.57,-6.65 35.86,-4.21 62.38,-9.35 79.3,-15.24 0.17,-6.06 0.26,-9.94 0.26,-11.54 0,-18.01 -4.21,-30.72 -12.63,-38.13 -11.37,-10.02 -28.29,-14.99 -50.69,-14.99 -20.96,0 -36.45,3.71 -46.38,11.03 -10.02,7.32 -17.35,20.29 -22.15,38.98l-43.44 -6.06c3.96,-18.61 10.44,-33.68 19.53,-45.13 9.1,-11.45 22.23,-20.2 39.41,-26.43 17.09,-6.15 37.04,-9.26 59.6,-9.26 22.4,0 40.67,2.61 54.73,7.91 13.97,5.3 24.33,11.87 30.89,19.87 6.57,8 11.2,18.1 13.89,30.31 1.44,7.57 2.19,21.21 2.19,40.83l0 58.93c0,41.17 0.93,67.19 2.78,78.21 1.77,11.03 5.47,21.56 10.86,31.66l-46.47 0c-4.46,-9.35 -7.33,-20.29 -8.59,-32.83zm-3.53 -98.51c-16.17,6.57 -40.42,12.13 -72.74,16.67 -18.36,2.61 -31.32,5.56 -38.9,8.84 -7.58,3.29 -13.39,8.09 -17.51,14.32 -4.13,6.31 -6.23,13.3 -6.23,21.04 0,11.71 4.46,21.56 13.47,29.39 9.01,7.82 22.14,11.78 39.4,11.78 17.09,0 32.33,-3.7 45.71,-11.2 13.31,-7.4 23.16,-17.59 29.39,-30.47 4.8,-10.02 7.15,-24.75 7.15,-44.2l0.26 -16.17z"/>
 </g>
 <g id="Слой_x0020_1_0">
  <metadata id="CorelCorpID_1Corel-Layer"/>
 </g>
</svg>
