<svg xmlns="http://www.w3.org/2000/svg" xml:space="preserve" width="55.717mm" height="5.535mm" version="1.1" style="shape-rendering:geometricPrecision; text-rendering:geometricPrecision; image-rendering:optimizeQuality; fill-rule:evenodd; clip-rule:evenodd"
viewBox="0 0 5571.7 553.5"
 xmlns:xlink="http://www.w3.org/1999/xlink"
 xmlns:xodm="http://www.corel.com/coreldraw/odm/2003">
 <g id="Слой_x0020_1">
  <metadata id="CorelCorpID_0Corel-Layer"/>
  
  <path fill="#E3B196" d="M71.22 40.28c70.18,0 159.11,6.29 159.11,158.39l0 222.81 0 22.3c0,28.43 7.74,116.02 73.91,123.97l-102.24 0c-70.19,0 -159.12,-6.29 -159.12,-158.39 0,-120.41 0,-152.19 0,-272.59 0,-70.94 -27.72,-96.49 -61.61,-96.49l89.95 0z"/>
  
  <path fill="#E3B196" d="M500.04 40.28c70.19,0 161.44,6.29 217.55,158.39 44.42,120.4 56.15,152.18 100.57,272.6 26.17,70.94 63.32,96.48 97.2,96.48l-89.94 0c-70.19,0 -161.43,-6.29 -217.55,-158.39 -44.42,-120.41 -56.15,-152.19 -100.57,-272.59 -26.17,-70.94 -63.31,-96.49 -97.2,-96.49l89.94 0z"/>
  
  <path fill="#E3B196" d="M427.31 567.75c66.57,0 120.55,-53.98 120.55,-120.54 0,-66.57 -53.98,-120.54 -120.55,-120.54 -66.56,0 -120.54,53.97 -120.54,120.54 0,66.56 53.98,120.54 120.54,120.54z"/>
  <polygon fill="#F0F0EE" points="1509.72,50.41 1277.57,567.75 1180.93,567.75 948.93,50.41 944.51,40.56 955.31,40.56 1049.54,40.56 1054.07,40.56 1055.93,44.7 1258.54,496.16 1460.36,44.7 1462.22,40.53 1466.75,40.53 1503.34,40.53 1514.15,40.53 "/>
  <polygon fill="#F0F0EE" points="1750.6,40.53 1750.6,567.75 1853.45,567.75 1853.45,40.53 "/>
  <polygon fill="#F0F0EE" points="2444.29,85.98 2295.77,85.98 2295.77,560.72 2295.77,567.75 2288.74,567.75 2260.23,567.75 2226.65,567.75 2226.65,567.71 2198.08,567.71 2191.05,567.71 2191.05,560.72 2191.05,85.98 2042.55,85.98 2035.56,85.98 2035.56,78.95 2035.56,47.55 2035.56,40.53 2042.55,40.53 2198.08,40.53 2288.74,40.53 2444.29,40.53 2451.28,40.53 2451.28,47.55 2451.28,78.95 2451.28,85.98 "/>
  
  <path fill="#F0F0EE" d="M3306.79 418.12c7.7,12.07 16.76,23.54 27.13,34.39 10.26,10.83 21.14,20.3 32.58,28.38 11.44,8.07 23.47,14.77 36.05,20.13 12.56,5.34 25.79,9.39 39.65,12.11 13.85,2.7 28.41,4.07 43.67,4.07 15.05,0 29.49,-1.36 43.26,-4.05 13.88,-2.71 27.16,-6.77 39.78,-12.13 12.59,-5.36 24.61,-12.06 36.03,-20.13 11.44,-8.08 22.28,-17.54 32.5,-28.35l0.06 -0.05c10.38,-10.85 19.43,-22.3 27.15,-34.37 7.74,-12.12 14.2,-24.91 19.39,-38.41l0 -0.02c5.12,-13.26 8.96,-27.29 11.5,-42.06 2.55,-14.76 3.81,-30.31 3.81,-46.64 0,-16.3 -1.26,-31.89 -3.81,-46.71 -2.53,-14.81 -6.38,-28.96 -11.53,-42.41 -5.19,-13.32 -11.64,-26 -19.36,-38.03 -7.78,-12.12 -16.83,-23.59 -27.15,-34.39l-0.03 -0.02c-10.27,-10.85 -21.18,-20.41 -32.72,-28.61 -11.36,-8.05 -23.3,-14.75 -35.8,-20.04 -12.6,-5.31 -25.84,-9.32 -39.71,-11.99 -13.8,-2.66 -28.26,-4 -43.37,-4 -15.28,0 -29.85,1.34 -43.7,4 -13.89,2.67 -27.11,6.68 -39.66,11.99 -12.5,5.29 -24.47,12.01 -35.85,20.07 -11.48,8.13 -22.41,17.7 -32.74,28.6 -10.34,10.84 -19.39,22.32 -27.13,34.39 -7.73,12.07 -14.17,24.76 -19.34,38.06l-0.01 0c-5.13,13.37 -8.97,27.52 -11.51,42.38 -2.54,14.82 -3.78,30.41 -3.78,46.71 0,16.33 1.24,31.88 3.78,46.64 2.53,14.77 6.37,28.79 11.52,42.06l0.03 0.02c5.19,13.56 11.62,26.35 19.31,38.41zm-118.82 -233.55l0 0 -0.03 -0.01c12.45,-32.44 31.12,-61.7 55.95,-87.67l0.06 -0.06c40.31,-41.45 97.6,-67.19 158.06,-77.44 63.74,-10.82 131.21,-4.45 186.12,18.77l0.05 0c15.51,6.66 30.33,14.91 44.41,24.71 14,9.73 27.31,21.06 39.92,33.96 12.63,13.05 23.66,26.86 33.1,41.43 9.46,14.6 17.32,30 23.56,46.17l0.02 0.03c6.21,16.2 10.93,33.28 14.07,51.13 3.1,17.67 4.67,36.15 4.67,55.4 0,19.15 -1.57,37.63 -4.68,55.36 -3.13,17.89 -7.85,35.05 -14.06,51.39l-0.02 0c-6.28,16.35 -14.17,31.91 -23.6,46.57 -9.41,14.62 -20.45,28.48 -33.06,41.45 -12.59,12.95 -25.94,24.31 -40.01,34.03 -14.11,9.74 -28.93,17.84 -44.4,24.25 -54.94,22.96 -122.73,29.41 -186.72,18.62 -60.26,-10.14 -117.34,-35.6 -157.43,-76.9l-0.03 -0.03c-12.5,-13.04 -23.36,-26.87 -32.62,-41.46 -9.27,-14.63 -17,-30.07 -23.21,-46.27l0.01 -0.01c-6.28,-16.26 -11,-33.32 -14.12,-51.14 -3.11,-17.69 -4.66,-36.32 -4.66,-55.86l-0.04 0c0,-38.54 6.24,-74.02 18.69,-106.42z"/>
  
  <path fill="#F0F0EE" d="M4056.98 326.43l0.03 241.32c-34.27,-0.15 -68.56,-0.04 -102.83,-0.04l0 -520.16 0 -7.02 7.02 0 282.38 0 0 0.03c16.82,0.04 32.44,1.51 46.75,4.37 14.58,2.92 28.01,7.31 40.18,13.09l0.05 0.02c12.1,5.88 22.88,12.9 32.29,21.11 9.43,8.23 17.49,17.68 24.13,28.4 6.6,10.68 11.54,22.33 14.81,34.89 3.24,12.4 4.87,25.76 4.94,40l0 0.06c-0.07,12.84 -1.39,24.96 -3.98,36.3 -2.63,11.47 -6.57,22.21 -11.85,32.17l-0.01 0c-5.25,10.14 -11.69,19.31 -19.3,27.5 -7.56,8.15 -16.34,15.37 -26.25,21.66l0.01 0c-9.99,6.4 -21.07,11.62 -33.18,15.62 -8.71,2.87 -17.99,5.16 -27.8,6.83l162.26 234.17 7.6 10.96 -13.36 0 -39.66 0 -3.68 0 -2.08 -2.98 -165.81 -238.3 -172.66 0zm183.7 -240.45l0 0 -183.7 0 0 194.97 183.7 0c12.72,0 24.35,-0.99 34.95,-2.91 10.86,-1.95 20.87,-4.91 30.01,-8.74l0 0.01c8.63,-3.79 16.29,-8.43 22.93,-13.91l0.02 0c6.56,-5.41 12.15,-11.72 16.71,-18.91l0 0.01c4.56,-7.2 8.02,-15.24 10.32,-24.07 2.32,-8.88 3.5,-18.67 3.5,-29.33 0,-10.31 -1.18,-19.82 -3.49,-28.5 -2.31,-8.67 -5.77,-16.59 -10.32,-23.73 -4.53,-7.1 -10.11,-13.39 -16.68,-18.85 -6.64,-5.52 -14.36,-10.24 -23.1,-14.16 -8.91,-3.88 -18.71,-6.87 -29.4,-8.85 -10.75,-2.01 -22.56,-3.03 -35.45,-3.03z"/>
  <polygon fill="#F0F0EE" points="3041.57,85.98 2892.78,85.98 2892.78,560.72 2892.78,567.75 2885.76,567.75 2857.31,567.75 2823.57,567.75 2795.25,567.75 2788.24,567.75 2788.24,560.72 2788.24,85.98 2639.67,85.98 2632.67,85.98 2632.67,78.95 2632.67,47.55 2632.67,40.53 2639.67,40.53 2795.25,40.53 2885.76,40.53 3041.57,40.53 3048.56,40.53 3048.56,47.55 3048.56,78.95 3048.56,85.98 "/>
  
  <path fill="#F0F0EE" d="M5097.63 417.68l-66.24 145.92 -1.89 4.15 -4.51 0 -36.02 0 -10.9 0 4.5 -9.91 233.19 -513.17 1.89 -4.14 4.5 0 88.32 0 4.51 0 1.88 4.14 231.69 513.17 4.45 9.87 -10.84 0 -92.06 0 -4.53 0 -1.86 -4.11 -66.37 -145.92 -279.71 0zm260.88 -43.44l0 0 -120.98 -266.18 -121.88 266.18 242.86 0z"/>
  <polygon fill="#F0F0EE" points="4673.34,40.53 4673.34,567.75 4776.19,567.75 4776.19,40.53 "/>
 </g>
</svg>