<?xml version="1.0" encoding="UTF-8"?>
<!DOCTYPE svg PUBLIC "-//W3C//DTD SVG 1.1//EN" "http://www.w3.org/Graphics/SVG/1.1/DTD/svg11.dtd">
<!-- Creator: CorelDRAW -->
<svg xmlns="http://www.w3.org/2000/svg" xml:space="preserve" width="55.717mm" height="5.535mm" version="1.1" style="shape-rendering:geometricPrecision; text-rendering:geometricPrecision; image-rendering:optimizeQuality; fill-rule:evenodd; clip-rule:evenodd"
viewBox="0 0 5571.7 553.5"
 xmlns:xlink="http://www.w3.org/1999/xlink"
 xmlns:xodm="http://www.corel.com/coreldraw/odm/2003">
 <defs>
  <style type="text/css">
   <![CDATA[
    .fil1 {fill:#00505D}
    .fil0 {fill:#E3B196}
   ]]>
  </style>
 </defs>
 <g id="Слой_x0020_1">
  <metadata id="CorelCorpID_0Corel-Layer"/>
  <polygon class="fil0" points="136.47,402.15 251.63,163.51 365.08,402.15 479.24,402.15 286.62,24.46 213.81,24.46 22.46,402.15 "/>
  <path class="fil0" d="M752.28 101.99c35.71,0 65.34,10.19 88.62,30.46 23.43,20.39 35.14,46.95 35.14,79.79 0,33.54 -11.71,60.69 -35.14,81.32 -23.28,20.75 -52.77,31.06 -88.19,31.06 -34.44,0 -63.36,-10.55 -86.93,-31.53 -23.56,-21.11 -35.27,-47.9 -35.27,-80.5 0,-32.36 11.57,-58.92 34.71,-79.54 23,-20.75 52.06,-31.06 87.06,-31.06zm-234.38 112.02c0,56.08 21.17,103.02 63.64,140.72 42.47,37.82 92.71,56.67 150.99,56.67 25.82,0 49.95,-3.92 72.11,-11.62 22.15,-7.71 44.31,-20.27 66.32,-37.82l0 40.19 112.6 0 0 -377.69 -112.6 0 0 41.49c-20.18,-16.84 -42.05,-29.64 -65.76,-38.06 -23.71,-8.41 -48.97,-12.68 -76.06,-12.68 -58.7,0 -108.51,18.61 -149.58,55.72 -41.06,37.22 -61.66,84.88 -61.66,143.08z"/>
  <path class="fil1" d="M1097.17 24.46l0 377.69 172.86 0c43.31,0 77.05,-2.73 101.03,-8.3 24.13,-5.57 44.16,-16.71 59.83,-33.55 15.66,-16.71 23.57,-37.93 23.57,-63.54 0,-47.42 -29.63,-79.66 -88.9,-96.85 43.46,-16.24 65.18,-42.68 65.18,-79.55 0,-24.78 -10.58,-46.94 -31.88,-66.5 -21.17,-19.57 -61.52,-29.4 -120.79,-29.4l-180.9 0zm112.6 148.65l0 -81.79 38.52 0 14.53 -0.36c13.41,0 24.99,3.91 34.73,11.74 9.72,7.94 14.66,18.85 14.66,32.95 0,9.49 -5.07,18.14 -15.24,25.85 -10.15,7.7 -24.55,11.61 -43.31,11.61l-43.89 0zm0 155.78l0 -86.78 47.55 0c26.39,0 44.74,5.1 54.89,15.17 10.17,10.08 15.25,21.22 15.25,33.43 0,8.18 -4.52,16.6 -13.55,25.26 -9.03,8.65 -24.7,12.92 -46.99,12.92l-57.15 0z"/>
  <polygon class="fil1" points="1550.28,24.46 1550.28,402.15 1610.25,402.15 1834.75,184.85 1834.75,402.15 1944.82,402.15 1944.82,24.46 1890.64,24.46 1660.33,246.26 1660.33,24.46 "/>
  <polygon class="fil1" points="2175.25,114.79 2175.25,402.15 2287.87,402.15 2287.87,114.79 2437.72,114.79 2437.72,24.46 2018.62,24.46 2018.62,114.79 "/>
  <path class="fil1" d="M2489.51 213.66c0,54.89 22.86,101.59 68.58,140.12 45.58,38.41 100.75,57.62 165.39,57.62 43.87,0 83.95,-8.78 120.51,-26.2 36.4,-17.43 65.19,-41.61 86.36,-72.55 21.02,-30.95 31.6,-64.14 31.6,-99.7 0,-35.33 -10.44,-68.17 -31.46,-98.75 -21.03,-30.47 -50.1,-54.54 -87.63,-72.32 -37.4,-17.78 -77.34,-26.67 -119.81,-26.67 -58.84,0 -110.77,17.07 -156.06,51.21 -51.65,39.24 -77.48,88.32 -77.48,147.24zm112.6 -0.48c0,-31.89 11.72,-57.97 35,-78.48 23.28,-20.39 52.49,-30.58 87.63,-30.58 35.84,0 65.34,10.08 88.33,30.23 23.01,20.27 34.58,46.47 34.58,78.83 0,32.25 -11.71,58.69 -35.13,79.19 -23.57,20.51 -52.93,30.83 -88.2,30.83 -35.42,0 -64.63,-10.2 -87.63,-30.47 -23,-20.27 -34.58,-46.83 -34.58,-79.55z"/>
  <path class="fil1" d="M3053.53 24.46l0 515.68 112.61 0 0 -178.41c22.01,17.66 44.16,30.34 66.45,38.05 22.3,7.7 46.44,11.62 72.26,11.62 58.13,0 108.38,-18.85 150.71,-56.67 42.47,-37.7 63.64,-84.64 63.64,-140.72 0,-58.2 -20.46,-105.86 -61.53,-143.08 -41.06,-37.11 -90.88,-55.72 -149.43,-55.72 -26.96,0 -52.36,4.27 -76.06,12.68 -23.71,8.42 -45.72,21.22 -66.04,38.06l0 -41.49 -112.61 0zm107.53 187.78c0,-32.84 11.71,-59.4 35.13,-79.79 23.29,-20.27 52.78,-30.46 88.2,-30.46 35.28,0 64.49,10.31 87.48,31.06 23.14,20.62 34.71,47.18 34.71,79.54 0,32.6 -11.71,59.39 -35.26,80.5 -23.57,20.98 -52.5,31.53 -86.93,31.53 -35.42,0 -64.91,-10.31 -88.2,-31.06 -23.42,-20.63 -35.13,-47.78 -35.13,-81.32z"/>
  <polygon class="fil1" points="3612.48,24.46 3612.48,402.15 3672.45,402.15 3896.95,184.85 3896.95,402.15 4007.02,402.15 4007.02,24.46 3952.84,24.46 3722.53,246.26 3722.53,24.46 "/>
  <path class="fil1" d="M4197.38 247.21l-125.17 154.94 133.92 0 107.67 -136.57 21.86 0 0 136.57 112.62 0 0 -377.69 -114.31 0c-56.02,0 -97.08,2.72 -123.47,8.29 -26.39,5.58 -49.1,18.85 -68.16,39.95 -19.05,20.99 -28.5,45.53 -28.5,73.5 0,23.36 7.76,44.34 23.43,62.95 15.65,18.62 35.7,31.3 60.11,38.06zm138.28 -52.76l-32.03 0c-48.11,0 -72.1,-15.29 -72.1,-45.76 0,-30.23 21.58,-45.28 64.62,-45.28l39.51 0 0 91.04z"/>
 </g>
</svg>
