<svg aria-hidden="true" data-prefix="fas" data-icon="money" role="img" xmlns="http://www.w3.org/2000/svg" viewBox="0 0 250 250">
<path fill="#00505D" d="M32.5,70.2C38.3,48.5,44,27.5,49.6,6.5C51.4,0,52.7-0.8,59.2,1c20.7,5.5,41.5,11,62.1,16.8
	c4,1.1,6.7,0.6,9.5-2.6c3.5-4.2,7.7-7.9,11.6-11.7c4.6-4.5,6.2-4.5,10.8,0c21.2,21.2,42.4,42.5,63.7,63.5c1.8,1.7,4.7,3,7.2,3.2
	c15.8,0.9,25.6,10.8,25.7,26.7c0.1,42.3,0.1,84.6,0,127c0,16-10.3,26.3-26.2,26.3c-65.8,0-131.6,0-197.4,0c-15.6,0-26-10.4-26-26.1
	C0,180.1,0,136.3,0,92.5c0-13.3,8.4-21.9,21.7-22.3C25.2,70.1,28.7,70.2,32.5,70.2z M23.7,239.8c0-8.5,0-16.7,0-24.8
	c0-9.5,0-19,0-28.5c0-3.1,0.9-5.4,4.2-5.7c3.5-0.3,5.1,2,5.4,5.2c0.2,1.5,0.1,3,0.1,4.5c0,13.3,0,26.7,0,40c0,3.1,0,6.2,0,9.7
	c2,0,3.3,0,4.6,0c53,0,106,0,159,0c1.3,0,2.7,0,4-0.2c5.8-0.9,10.6-4.1,11.5-9.7c1.3-7.9,1.1-16,1.6-24.3c-19.6,0-38.1,0-56.6,0
	c-11.7,0-23.3,0.2-35-0.2c-12.8-0.5-23.4-8.9-27.2-20.8c-3.9-12-0.1-24.5,9.8-32.8c10.4-8.7,22.7-7.1,34.8-6.3
	c1.2,0.1,3.4,3.3,3.1,4.7c-0.4,1.7-2.6,4-4.4,4.3c-3.9,0.7-8-0.1-12,0.4c-4.1,0.4-8.4,0.8-12,2.5c-8.5,3.9-12.6,13.5-10.5,22.6
	c2.1,9.2,10,15.5,20,15.7c14,0.2,28,0.1,42,0.1c19.7,0,39.3,0,59,0c8,0,14.1-4.4,14.5-11.5c0.6-10.7,0.2-21.4,0.2-31.3
	c-5.5,0.6-10.7,1.6-15.9,1.7c-14.5,0.2-29,0.1-43.5,0.1c-3.5,0-6.6-0.7-6.5-5c0.1-4.3,3.3-4.8,6.7-4.8c5.3,0,10.7,0,16,0
	c5.6,0,11.2,0,17.3,0c0-5.1,0-9.6,0-14.1c0-15.2-4.9-20.2-19.9-20.2c-54.5,0-109,0-163.4,0c-6.7,0-13.4-0.7-20.4-1.1
	c0,14,0,28.8,0,43.6c0,23.7,0,47.3,0,71C9.9,233.5,15,239.2,23.7,239.8z M81.3,101.4c4.6,0,8,0.2,11.4-0.1c0.9-0.1,2.2-1.3,2.6-2.3
	c3.9-10.1,11.3-15.7,22-15.8c10.7-0.1,18,5.7,22.1,15.6c0.5,1.2,2.2,2.5,3.4,2.5c6,0.3,12,0.2,18,0c1.5-0.1,3.1-1,4.3-2
	c3.9-3.6,7.7-7.3,11.3-11.3c1-1.1,1.5-3.7,1-5.1c-1.9-5-1.8-9.6-0.1-14.6c0.5-1.5-0.1-4.2-1.2-5.4c-5.1-5.5-10.4-10.8-15.9-15.9
	c-1.1-1-3.6-1.4-5-0.9c-4.9,1.8-9.7,2.2-14.5-0.1c-2.4-1.1-3.8-0.7-5.6,1.1c-16.8,17-33.8,34-50.7,51
	C83.6,98.9,82.9,99.7,81.3,101.4z M59.5,101.3c4.4,0.9,8,0.2,11.5-3.4c20-20.5,40.4-40.6,60.5-61c3.3-3.4,6.4-4.4,10.4-1.3
	c3.9,3,8,2.9,11.9-0.1c3.5-2.7,6.5-2.3,9.6,0.9c7.8,8,15.7,15.9,23.7,23.7c3,2.9,3.6,5.7,1,9.2c-3.3,4.2-3.3,8.6,0,12.8
	c2.7,3.5,2.2,6.4-1,9.1c-3.3,2.9-6.5,5.9-9.8,8.9c0.3,0.6,0.7,1.3,1,1.9c2.9-0.6,6.7-0.2,8.5-1.9c8.5-7.7,16.4-16,24-23.7
	c-21.4-21.4-42.6-42.6-62.8-62.8C118.9,42.5,89.2,71.9,59.5,101.3z M223.5,144.8c9.9,1.8,16.2-2.6,16.4-11.3c0.2-13,0.2-25.9,0-38.9
	c-0.1-8-5.8-13.8-13.7-14.4c-1.9-0.1-4.5-0.3-5.7,0.7c-7,6.5-13.6,13.4-20.6,20.5c15.7,2.8,23.3,11.7,23.6,27.2
	C223.6,134,223.5,139.4,223.5,144.8z M34.5,100.9c4.4,1.6,7,0.9,7.5-3.7c0.1-1.1,0.6-2.2,0.9-3.4c4.8-17.8,9.5-35.7,14.3-53.5
	c1-3.6,2.2-6.7,7-5.9c5.7,0.9,9.4-1,11.6-6.3c1.7-4.2,4.4-5,8.3-3.9c8,2.2,16.1,4.2,24,6.6c4.4,1.4,7.6,0.9,9.8-4
	c-19.8-5.3-39.4-10.6-59.4-15.9C50.4,41.2,42.5,71,34.5,100.9z M53.9,90.4c17-17,33.7-33.7,50.5-50.5c-5.7-1.5-11.9-3.4-18.2-4.8
	c-1.2-0.3-3.2,0.6-4.1,1.6c-3.5,4.1-7.7,6.7-13,7.5c-1.3,0.2-3.1,1.5-3.4,2.7C61.6,61.4,57.7,76,53.9,90.4z M218.6,240.2
	c2.8,0,4.6,0.1,6.4,0c8.3-0.3,14.4-5.7,14.8-13.8c0.3-7.9,0.1-15.9,0.1-23.6c-5.4,1.4-10.6,2.8-16.1,4.2
	C222.5,217.6,225.8,229.2,218.6,240.2z M29.9,80.2c-3.9,0-7.2-0.3-10.5,0.1C13.5,81,9.5,86,9.9,91.6c0.4,5.5,4.9,9.6,10.6,10
	c2.4,0.1,3.9-0.3,4.6-3.2C26.4,92.5,28.1,86.6,29.9,80.2z M129.3,101.4c-2.3-6.1-6.1-8.5-12.3-8.4c-6,0.1-9.5,2.6-11.4,8.4
	C113.4,101.4,121.1,101.4,129.3,101.4z"/>
<path fill="#00505D" d="M123.8,188.3c-7,0-12.7-5.5-12.7-12.5c0-6.9,5.7-12.7,12.6-12.7c6.9,0,12.7,5.8,12.8,12.6
	C136.5,182.6,130.8,188.3,123.8,188.3z M127.6,175.5c-1.8-1.2-3-2.5-4-2.4c-1,0.1-1.9,1.6-2.8,2.5c1,1,1.9,2.5,3,2.8
	C124.7,178.6,125.8,176.9,127.6,175.5z"/>
<path fill="#00505D" d="M160.3,144.8c1.2,1.8,3.6,3.7,3.4,5.4c-0.2,1.8-2.7,3.3-4.2,4.9c-1.6-1.5-4.2-2.9-4.5-4.7
	c-0.3-1.7,1.9-3.7,3.1-5.6C158.8,144.8,159.6,144.8,160.3,144.8z"/>
<path fill="#00505D" d="M27.2,171.7c-1.1-1.9-3.4-3.9-3.1-5.5c0.3-1.8,2.9-3.2,4.4-4.8c1.5,1.7,4.1,3.2,4.3,5
	c0.2,1.7-2.1,3.6-3.4,5.4C28.6,171.8,27.9,171.7,27.2,171.7z"/>
</svg>
