<svg aria-hidden="true" data-prefix="fas" data-icon="home" role="img" xmlns="http://www.w3.org/2000/svg" viewBox="0 0 576 512"><path fill-rule="evenodd" clip-rule="evenodd" d="M256.31,235.5c20.26-24.85,32.4-56.58,32.4-91.14C288.71,64.63,224.08,0,144.36,0
	C64.63,0,0,64.63,0,144.36c0,123.23,143.72,187.8,236.26,111.33c31.06,33.33,64.19,65.49,96.23,97.96c3.6,3.65,9.52,3.69,13.17,0.09
	l7.28-7.18c3.65-3.6,3.69-9.52,0.09-13.17C320.8,300.73,288.6,268.06,256.31,235.5L256.31,235.5z M144.36,21.73
	c67.31,0,121.87,54.9,121.87,122.63c0,161.3-243.75,161.3-243.75,0C22.48,76.63,77.05,21.73,144.36,21.73z"/>
</svg>
