<svg aria-hidden="true" data-prefix="fas" data-icon="sov" role="img" xmlns="http://www.w3.org/2000/svg" viewBox="0 0 450 415">	 
<path fill="#00505D" d="M154.7,408.7c-7.5-3.3-10.4-9.1-9.8-17.2c0.4-5.4,0.1-10.9,0.1-17c-3,0-5.7,0.1-8.4,0c-8-0.2-13.5-5-14.1-12.8
	c-0.4-5-0.2-10.1,0.1-15.1c0.2-4.9,2.8-8.4,6.9-11c1.1-0.7,1.9-2.4,2-3.7c0.2-5.3-0.1-10.7,0.2-16c0.1-2.7-0.9-4-3.2-5.1
	c-18.9-8.7-35-21.2-48-37.4c-18.6-23.1-28.8-49.4-30.3-79.1c-1.7-34.8,8.2-66,30.1-93.1c22.5-27.8,51.8-44.4,87.4-49.3
	c20.6-2.8,40.8-0.9,60.6,5.9c2.7,0.9,5,1.4,7.8-0.2c3.9-2.2,7.8-0.8,11,2.1c2,1.8,3.9,3.7,5.6,5.7c1.5,1.6,2.8,2.3,5.1,1.3
	c2.4-1,2.8-2.4,2.7-4.6c-0.1-2.7-0.1-5.3,0-8c0.3-6.1,4.4-10.2,10.5-10.2c6.9-0.1,13.8-0.1,20.8,0c6.2,0.1,10.1,4.1,10.3,10.3
	c0.1,2.8,0.2,5.6,0,8.4c-0.2,2.3,0.8,3.2,2.8,4.1c2.1,0.9,3.4,0.6,4.9-1c1.9-2.1,3.8-4.1,5.9-5.9c4.7-4.1,9.9-4.2,14.3,0.1
	c5.3,5,10.5,10.2,15.4,15.6c3.6,3.9,3.4,9.4-0.1,13.4c-1.9,2.2-4,4.3-6.2,6.2c-1.8,1.6-1.9,3-1.1,5.2c0.9,2.3,2.3,2.9,4.5,2.8
	c2.7-0.2,5.3-0.1,8,0c5.7,0.2,9.9,4.1,10.1,9.7c0.2,7.4,0.2,14.9,0,22.4c-0.2,5.6-4.5,9.5-10.2,9.6c-2.5,0.1-5.1,0.2-7.6,0
	c-2.4-0.2-3.8,0.4-4.9,2.8c-1.1,2.6-0.1,3.9,1.5,5.4c2,1.8,3.8,3.7,5.6,5.7c3.7,4.1,3.9,9.7,0.2,13.7c-5,5.4-10.1,10.6-15.5,15.5
	c-2.2,2-5.5,2.7-9.2,4.4c-0.2,2.9-0.5,6.8-0.9,10.8c-0.6,5.4-2.9,7.8-6.9,7.3c-3.7-0.4-5.3-3.4-5-8.5c0.4-5.7,0.6-11.4,0.9-17.1
	c0.1-1.4-0.3-2.8-0.4-4.2c-5.9,0.7-6.2,1.1-6.2,6.2c0,2.7,0.1,5.3-0.1,8c-0.4,4.9-4.2,8.9-9,9c-7.7,0.2-15.4,0.2-23.1,0
	c-5.1-0.1-8.9-4.4-9.3-9.7c-0.2-2.8-0.1-5.6,0-8.4c0.1-2.1-0.2-3.7-2.6-4.6c-2.3-0.9-3.6-0.4-5.1,1.3c-1.8,2-3.7,3.9-5.6,5.6
	c-4.5,4-9.7,4.3-14,0.3c-5.6-5.2-10.9-10.6-16-16.1c-3.3-3.6-3.1-9,0-12.8c1.5-1.8,3.1-3.7,5-5.1c3.7-2.7,3.8-5.7,0.8-9.3
	c-3.3,0-6.9,0.1-10.5,0c-6.1-0.1-10.3-4.2-10.5-10.2c-0.1-7.1-0.1-14.1,0-21.2c0.1-6.1,4.2-10.2,10.3-10.4c2.5-0.1,5.1-0.1,7.6,0
	c2.1,0.1,3.7,0,4.7-2.5c0.9-2.4,0.7-3.9-1.2-5.5c-2.1-1.8-4.1-3.9-5.9-6c-3.7-4.3-3.6-9.9,0.3-14.1c1.8-1.9,4-3.4,6-5.1
	c-0.2-0.6-0.4-1.2-0.7-1.9c-9.1-1.6-18.2-3.9-27.3-4.7c-31.8-2.5-60.6,5.8-85.8,25.5c-26.4,20.7-42.7,47.8-46.6,81.2
	C57,222.9,77,264.4,121.7,293.6c5.2,3.4,11,5.9,16.7,8.5c3.6,1.7,5.2,4.1,5.2,8.1c-0.1,7.7,0,15.4,0,23.3c2.8,0,5.2,0,7.9,0
	c0-14.2,0-28.2,0-42.2c-9.4-2.2-11.2-4.5-11.2-14.3c0-3.9-0.1-7.7,0-11.6c0.2-5.9,4.2-9.9,10.2-10c4.9-0.1,9.8-0.1,14.8,0
	c5.5,0.1,9.7,3.9,10,9.4c0.3,5.6,0.5,11.2,0,16.7c-0.6,6.4-5.1,9.2-11.4,9.6c0,14.2,0,28.1,0,42.3c5.8,0,11.6,0,18,0
	c0-1.3,0-2.7,0-4.1c0-14.9,0-29.8,0-44.7c0-4.5,2.2-7,5.9-7c3.6,0,5.9,2.6,6.1,6.9c0,0.9,0,1.9,0,2.8c0,14,0,27.9,0,41.9
	c0,1.3,0,2.6,0,4.2c4,0,7.8,0,11.9,0c0.1-0.9,0.3-1.9,0.3-2.9c0-13.3,0.1-26.6,0-39.9c0-2.1-0.5-4.8-1.9-6.2
	c-14.7-14.6-29.6-29.1-44.8-43.9c0.3-0.1-0.3,0.1-0.8,0.5c-4.9,3.1-9.2,3-13.4-0.9c-3.7-3.4-7.2-7.1-10.7-10.8
	c-3.7-4-3.7-9.7,0-13.7c3.5-3.8,7.2-7.5,11-11c4.4-4,9.5-4.1,14-0.1c4,3.5,7.7,7.3,11.3,11.3c4,4.5,3.3,9.4-2,15.6
	c0.9,1,1.8,2,2.8,3c13.4,13.5,26.8,27.1,40.3,40.5c4.4,4.4,6.5,9.4,6.4,15.7c-0.2,12.9-0.1,25.8-0.1,38.7c0,1.4,0,2.8,0,4.4
	c3,0,5.5,0,8.3,0c0-22.1,0-44.3,0-66.4c-9.6-2.2-11.5-4.6-11.5-14.8c0-3.5-0.1-6.9,0-10.4c0.2-6.7,4.1-10.7,10.7-10.9
	c4.8-0.2,9.6-0.1,14.4,0.1c6,0.3,9.8,4.1,10.1,10.2c0.2,4.2,0.1,8.5,0.1,12.8c0,8.2-2.8,11.4-11.2,12.9c0,10.4,0,20.8,0,31.7
	c1.2-0.5,2.2-0.8,3.1-1.3c22.9-12.1,40.3-29.7,52.4-52.6c0.8-1.5,1.5-3.1,2.4-4.6c2-3.2,5.2-4.3,8.1-2.8c3,1.5,4.2,4.9,2.3,8.2
	c-4.1,7.4-8.1,15-13,21.9c-13.5,18.8-30.9,33.3-52,42.9c-2.7,1.2-3.7,2.7-3.6,5.7c0.2,5.2-0.1,10.4,0.2,15.6c0.1,1.3,0.9,3.1,2,3.7
	c5,3,7,7.5,7.2,13c0.2,3.9,0.1,7.7,0,11.6c-0.3,8.8-5.9,14.2-14.7,14.5c-2.5,0.1-5,0-8.1,0c0,6-0.3,11.5,0.1,17
	c0.6,8.1-2.2,13.9-9.9,17.1C195.2,408.7,175,408.7,154.7,408.7z M240.1,177.9c5.9-7,11.6-12.8,22.4-8.2c10.8,4.5,9.8,13.1,9.8,21.7
	c6.1,0,11.7,0,17.7,0c-0.5-9.1-0.6-17.3,10-21.8c10.9-4.6,16.3,2,22.3,8.3c4.3-4.2,8.3-8.3,12.7-12.6c-6.4-6-12.8-11.5-8.5-22.3
	c4.4-10.9,12.8-10.7,21.8-10.3c0-6.3,0-11.9,0-17.9c-9.4,0.7-17.5,0.3-21.8-10.4c-4.4-10.8,2.3-16.3,8.3-22.1
	c-4.3-4.4-8.3-8.4-12.5-12.7c-6,6.5-11.5,12.9-22.4,8.3C289.4,73.2,289.7,64.9,290,56c-6.1,0-11.7,0-17.8,0
	c0.5,9.2,0.7,17.4-10.1,21.8c-10.9,4.5-16.2-2.1-21.9-8.1c-4.4,4.2-8.5,8.2-12.8,12.3c6.6,6.1,12.7,11.8,8.3,22.5
	c-4.4,10.7-12.7,10.5-21.7,10.1c0,6.2,0,11.8,0,17.9c9.2-0.5,17.4-0.4,21.7,10.3c4.4,10.8-2,16.4-8.4,22.4
	C231.7,169.5,235.7,173.5,240.1,177.9z M185.1,362.5c13,0,26,0,39.1,0c12,0,11.9,0,12-12c0-3.9-1.4-5-5.2-4.9
	c-30.6,0.1-61.1,0.1-91.7,0c-3.8,0-5.5,1.1-5.1,4.9c0.2,2.4,0.2,4.8,0,7.2c-0.4,3.9,1.4,5,5.1,4.9
	C154.6,362.4,169.9,362.5,185.1,362.5z M157.5,391.2c-0.8,5.5-0.8,5.5,4.1,5.5c15.7,0,31.3,0,47,0c5.1,0,5.4-0.3,4-5.5
	C194.2,391.2,175.8,391.2,157.5,391.2z M157.3,378.8c18.8,0,37.2,0,55.7,0c0-1.5,0-2.7,0-4.1c-18.7,0-37.1,0-55.7,0
	C157.3,376.2,157.3,377.3,157.3,378.8z M144.9,222.2c2.6,2.5,5.1,5,7.5,7.3c2.4-2.4,4.9-5,7.4-7.5c-2.4-2.3-5-4.7-7.6-7.2
	C149.9,217.2,147.4,219.7,144.9,222.2z M227.2,243.3c0,3.9,0,7.5,0,11c3.8,0,7.3,0,10.7,0c0-3.8,0-7.4,0-11
	C234.2,243.3,230.8,243.3,227.2,243.3z M163.2,267.6c-3.9,0-7.4,0-10.8,0c0,3.8,0,7.3,0,10.8c3.8,0,7.2,0,10.8,0
	C163.2,274.7,163.2,271.3,163.2,267.6z"/>
<path fill="#00505D" d="M193.8,197.4c0,10.5,0,21.1,0,31.7c0,1.5,0.1,2.9,0,4.4c-0.3,4-2.8,6.4-6.3,6.2c-3.4-0.2-5.6-2.5-5.6-6.4
	c-0.1-10.2-0.1-20.5-0.1-30.7c0-1.7,0-3.4,0-5.3c-1.1-0.3-1.9-0.5-2.8-0.7c-5.2-1-8.5-4.4-8.8-9.8c-0.3-5.2-0.3-10.4,0-15.5
	c0.3-6.1,4.5-9.9,10.7-10c4.6-0.1,9.3-0.1,13.9,0c6.1,0.1,10.2,4,10.5,10.2c0.2,3.6,0.1,7.2,0.1,10.8
	C205.4,192.7,204.1,194.5,193.8,197.4z M193.1,184.6c0-4,0-7.5,0-11.1c-3.8,0-7.2,0-10.8,0c0,3.8,0,7.3,0,11.1
	C186,184.6,189.4,184.6,193.1,184.6z"/>
<path fill="#00505D" d="M132.8,147.7c2.3,0,4.5,0,6.8,0c6.3,0.1,10.5,4,10.8,10.4c0.2,5,0.2,10.1-0.1,15.1c-0.3,6-4.1,9.8-10.2,10.1
	c-4.9,0.2-9.8,0.2-14.7,0c-6-0.3-9.9-4.2-10.1-10.2c-0.2-4.9-0.2-9.8,0-14.7c0.2-6.8,4.4-10.6,11.2-10.7
	C128.6,147.6,130.7,147.7,132.8,147.7z M127.4,171.1c3.7,0,7.1,0,10.7,0c0-3.9,0-7.5,0-11.2c-3.7,0-7.1,0-10.7,0
	C127.4,163.5,127.4,167,127.4,171.1z"/>
<path fill="#00505D" d="M142.7,119.5c0-2.8-0.1-5.6,0-8.4c0.3-4.9,4-8.9,8.9-9.1c5.7-0.3,11.4-0.3,17.1,0c4.9,0.2,8.8,4.3,9,9.5
	c0.3,5.3,0.3,10.6,0,15.9c-0.2,5.8-4.5,9.8-10.4,9.9c-4.8,0.1-9.6,0.1-14.3,0c-6.1-0.1-10.2-4.1-10.4-10.2
	C142.5,124.5,142.6,122,142.7,119.5C142.6,119.5,142.6,119.5,142.7,119.5z M165.6,114.1c-3.7,0-7.1,0-10.7,0c0,3.9,0,7.5,0,11
	c3.7,0,7.1,0,10.7,0C165.6,121.4,165.6,117.9,165.6,114.1z"/>
<path fill="#00505D" d="M181.9,14.2c0-2.8-0.1-5.6,0-8.3c0.2-3.5,2.7-6,5.8-5.8c3.4,0.1,5.7,2.1,5.9,5.4c0.3,5.8,0.3,11.7,0.1,17.5
	c-0.1,3.4-3,5.8-6.1,5.7c-3.1-0.1-5.5-2.5-5.7-6C181.8,19.8,181.9,17,181.9,14.2z"/>
<path fill="#00505D" d="M40.6,124.8c-0.1,5.3-3.9,8.2-7.9,6.7c-5.5-2-10.8-4.4-16-6.9c-3-1.5-4-4.2-2.8-7.4c1.2-3,4.3-4.5,7.5-3.2
	c5.3,2,10.6,4.2,15.6,6.8C38.8,121.7,39.8,123.9,40.6,124.8z"/>
<path fill="#00505D" d="M7.2,165.5c5.2,0.6,10.6,1.2,15.9,2c3.5,0.5,5.6,3.2,5.3,6.3c-0.3,3.2-3.2,5.7-6.7,5.4c-5.4-0.5-10.8-1.2-16.2-2
	c-3.8-0.6-5.9-3.4-5.5-6.6C0.5,167.5,3.3,165.4,7.2,165.5z"/>
<path fill="#00505D" d="M87.9,31.5c0.8,0.6,2.8,1.6,3.9,3.1c3,4.2,5.8,8.5,8.5,12.9c2.1,3.4,1.4,6.9-1.5,8.8c-2.7,1.8-6.1,1.1-8.3-2.1
	c-3.1-4.4-6.2-8.9-8.9-13.6C79.2,36.2,82,31.4,87.9,31.5z"/>
<path fill="#00505D" d="M23.3,216.2c4,0.2,6.2,1.6,6.8,4.7c0.6,3.3-0.7,6-4,6.8c-5.9,1.4-11.9,2.5-17.9,3.2c-3.1,0.4-5.3-1.6-5.9-4.8
	c-0.6-3.1,0.8-5.8,3.9-6.5C12.1,218.2,18.1,217.2,23.3,216.2z"/>
<path fill="#00505D" d="M136.4,8.3c0.9,1,3.3,2.5,4.1,4.6c2,4.9,3.3,10.1,4.6,15.2c1,3.9-0.8,7-4.1,7.8c-3.3,0.8-6.1-0.8-7.3-4.5
	c-1.6-4.9-3.1-9.8-4.5-14.8C128.2,12,130.7,8.4,136.4,8.3z"/>
<path fill="#00505D" d="M46.3,66.8c2.2,1.1,3.9,1.6,5.2,2.6c3.9,3,7.6,6.2,11.3,9.5c3.1,2.7,3.6,6.2,1.5,8.8c-2.3,2.9-5.8,3.1-9.2,0.4
	c-4.1-3.3-8.4-6.6-12-10.4c-1.3-1.4-1.9-4.5-1.4-6.4C42.2,69.5,44.6,68.3,46.3,66.8z"/>
<path fill="#00505D" d="M25.3,283.1c-2.2-2-4.7-3.3-5-4.9c-0.4-2.1,0.2-5.6,1.7-6.6c5.3-3.4,11-6.3,16.9-8.6c1.6-0.6,4.9,0.7,6,2.2
	c1.1,1.5,1.2,5.7,0.2,6.3C38.9,275.6,32.3,279.1,25.3,283.1z"/>
<path fill="#00505D" d="M75.4,307.9c-1.3,2.1-1.9,3.8-3.2,5.1c-3.4,3.5-7,6.9-10.6,10.2c-3.4,3.1-6.6,3.2-9.1,0.5c-2.5-2.5-2.2-6.1,0.8-9.1
	c3.7-3.6,7.3-7.4,11.4-10.5c1.6-1.2,4.8-1.5,6.9-0.9C73.1,303.7,74,306.2,75.4,307.9z"/>
<path fill="#00505D" d="M239.9,123.8c-0.1-28,26.7-48,53.6-39.8c4.1,1.2,6,4.2,5,7.7c-1,3.4-4.1,5-8.4,3.7c-8.4-2.4-16.3-1.6-23.8,2.8
	c-12.5,7.2-17.8,23.9-11.9,37.2c6.3,14.3,21.6,21,36.5,16c13.5-4.5,22-19.6,19-33.8c-0.3-1.2-0.6-2.3-0.8-3.5
	c-0.7-3.7,1.1-6.7,4.3-7.4c3.4-0.8,6.2,0.9,7.3,4.6c2.6,8.9,2.6,17.8-0.7,26.6c-7.9,21.3-31.5,32.4-52.7,24.7
	C251.1,156.9,240,141.2,239.9,123.8z"/>
<path fill="#00505D" d="M281.3,144.6c-11.6,0.1-21.1-9.4-21.1-21c0-11.4,9.4-20.8,20.8-20.9c11.6-0.1,21,9.3,21,21
	C302,135.2,292.8,144.5,281.3,144.6z M281.1,114.7c-4.8,0-8.9,4.2-8.9,9c0,4.8,4.1,8.9,8.9,8.9c4.9,0,8.8-4,8.8-9
	C289.9,118.7,286,114.7,281.1,114.7z"/>
</svg>
