<?xml version="1.0" encoding="utf-8"?><svg xmlns="http://www.w3.org/2000/svg" xmlns:xlink="http://www.w3.org/1999/xlink"><symbol viewBox="0 0 600 600" id="favicon--safari-pinned-tab" xmlns="http://www.w3.org/2000/svg"><path d="M274.5 6.1C159.1 16.2 59.5 93.7 21.6 202.9c-44.7 128.7 3.6 269.8 117.9 344.4C208 591.9 292.7 606 372 586c95.8-24.2 174.1-95.8 206.4-188.9 22-63.4 22-130.8 0-194.2-23.8-68.6-73.2-126.7-137.9-162.2-49.2-27-109.3-39.5-166-34.6zm64.6 111.7c46.6 8.4 77.7 32.4 90.6 70.1 3.1 9.1 6.3 25.6 6.3 32.7v3l-30.7 1.3c-17 .6-33.3 1.4-36.4 1.8l-5.6.5-.7-3.8c-3.3-18.8-13.4-34.2-26.7-40.9-10.5-5.4-18.7-6.8-38.4-6.8-20.4 0-28.2 1.4-41.1 7.8-21 10.3-25.5 32-9.8 46.5 9 8.3 25.4 14.5 65.4 24.6 41.3 10.5 60.6 16.7 77.5 25.1 27.6 13.8 45.7 35.5 53.1 63.8 3.5 13.5 4.4 36.7 2 49.9-3.1 16.2-10.7 33.3-20.3 45.8-17.5 22.8-41.5 36-77.8 42.9-13.9 2.7-55.5 3.8-71.6 1.9-64.4-7.3-103.6-41.4-116.8-101.5-3-13.7-3.6-20.5-1.9-20.5.7 0 15.2-1.4 32.1-3 17-1.7 32.3-3 34.1-3 3.2 0 3.3.1 4.8 7.3 5.3 24.3 18.5 43.3 36.4 52.2 12.9 6.4 20.5 7.8 40.9 7.8 20.3 0 27.9-1.4 41.3-7.8 9.8-4.6 19-13.8 23.5-23.2 3-6.3 3.2-7.5 3.2-17.3 0-9.2-.3-11.1-2.5-15.4-4.9-9.5-16.7-17.3-34.9-23-4.6-1.5-22.2-6.2-39-10.5-34.9-9-45.9-12.4-60.9-18.7-18.3-7.7-30.6-15.7-41.2-27-11-11.7-19.7-27.1-23.5-41.4-2.3-8.9-3.1-30.3-1.5-39.4 6.5-36.5 31-63.3 69.3-76.1 20.6-6.8 33.7-8.5 65.2-8 18.9.2 26.5.7 35.6 2.3z"/></symbol><symbol viewBox="0 0 800 1000" id="icons--bez" xmlns="http://www.w3.org/2000/svg"><path fill="#00505D" d="M408.2 980h-15c-.4-.3-.8-.7-1.2-.7-24.4-4.3-47.6-12.5-70.1-22.5-89.7-39.5-159.5-102.1-212.5-184-36.9-56.8-62-118.7-79.2-183.9C9.7 511.3 1.2 432.2.3 352.2-.3 295.9.1 239.6.1 183.3c0-35.3 28.3-62.4 63.8-62.2 26.1.1 52.3 0 78.4-1.2 26.8-1.3 53.3-5.4 79.3-12.4 32-8.7 60.1-25.2 85.8-45.7 19.2-15.4 37.1-32.5 55.9-48.4 5-4.2 11.1-7.2 17-10.1 3.6-1.8 7.9-2.2 11.9-3.2h16c18.2 2.6 31.6 13.7 45.4 24.6C477.7 43.5 502 62.2 527 79.8c19.2 13.5 40.4 23.9 63.6 29.2 48.2 11 97.1 14.4 146.4 12.1 38.7-1.8 67.2 25.4 67.3 64 0 38.5-.2 77 0 115.5.4 64.7-1.5 129.2-11 193.4-6.8 45.7-16.7 90.6-31 134.5-26.9 82.2-67.3 156.7-127.4 219.7-51.4 53.9-111.7 94.4-182.2 119.2-14.5 5.2-29.7 8.5-44.5 12.6zM62 183v6.4c0 37.2.1 74.3 0 111.5-.2 53 .6 105.9 7 158.7 6.2 51.2 16.2 101.5 32.4 150.5 24.1 73 59.7 139.4 112.8 195.7 45.5 48.2 98.8 84.5 161.7 105.9 12.5 4.3 24.6 8.1 38.7 3.8 60.8-18.7 113.4-50.8 159.1-94.5 60.5-57.7 100.8-128.1 127.5-206.7 28.3-83.4 39.6-169.7 40.9-257.4.8-56.2.3-112.3.4-168.5v-5.7H739c-39.9 1.4-79.6-.1-119.2-5.8-24.6-3.6-48.9-8-72.2-17-39.4-15.3-74.2-38.3-107-64.3-13.7-10.7-26.6-22.2-40-33.6-.7.6-1.5 1.3-2.4 2-19.1 16.1-37.5 33.1-57.3 48.2-32.5 24.8-67.5 45.3-107.6 55.5-39.7 10.1-80.3 14.1-121.2 15.2-16.5.5-32.9.1-50.1.1z"/><path fill="#00505D" d="M342.6 570.5c23.1-23.1 45.6-45.7 68.3-68.3l169.3-169.3c5.7-5.7 12-10 19.9-11.7 16.4-3.5 32.4 3.6 40.5 17.8 8.1 14.4 5.9 32.2-5.9 44.3-13.1 13.5-26.6 26.7-39.9 40L370.7 647.4c-5.7 5.7-12 10-19.9 11.7-13.6 2.8-25.4-.9-35.2-10.7-19.5-19.4-38.9-38.9-58.3-58.3-28.8-28.7-57.5-57.5-86.3-86.3-21.1-21.2-13-55.3 15-63 14.5-4 26.9 0 37.5 10.5 28.3 28.3 56.6 56.6 84.8 84.9 11.3 11.2 22.6 22.5 34.3 34.3z"/></symbol><symbol viewBox="0 0 14142.1 8131.7" id="icons--button-filter" xmlns="http://www.w3.org/2000/svg"><path fill="#314F55" d="M-19.8 1069.37L1040.86 8.71l6010.41 6010.41L13061.68 8.71l1060.66 1060.66-6010.41 6010.41-1060.66 1060.66-1060.66-1060.66z"/></symbol><symbol viewBox="0 0 576 512" id="icons--cc-mastercard-brands" xmlns="http://www.w3.org/2000/svg"><path d="M482.9 410.3c0 6.8-4.6 11.7-11.2 11.7-6.8 0-11.2-5.2-11.2-11.7 0-6.5 4.4-11.7 11.2-11.7 6.6 0 11.2 5.2 11.2 11.7zm-310.8-11.7c-7.1 0-11.2 5.2-11.2 11.7 0 6.5 4.1 11.7 11.2 11.7 6.5 0 10.9-4.9 10.9-11.7-.1-6.5-4.4-11.7-10.9-11.7zm117.5-.3c-5.4 0-8.7 3.5-9.5 8.7h19.1c-.9-5.7-4.4-8.7-9.6-8.7zm107.8.3c-6.8 0-10.9 5.2-10.9 11.7 0 6.5 4.1 11.7 10.9 11.7 6.8 0 11.2-4.9 11.2-11.7 0-6.5-4.4-11.7-11.2-11.7zm105.9 26.1c0 .3.3.5.3 1.1 0 .3-.3.5-.3 1.1-.3.3-.3.5-.5.8-.3.3-.5.5-1.1.5-.3.3-.5.3-1.1.3-.3 0-.5 0-1.1-.3-.3 0-.5-.3-.8-.5-.3-.3-.5-.5-.5-.8-.3-.5-.3-.8-.3-1.1 0-.5 0-.8.3-1.1 0-.5.3-.8.5-1.1.3-.3.5-.3.8-.5.5-.3.8-.3 1.1-.3.5 0 .8 0 1.1.3.5.3.8.3 1.1.5s.2.6.5 1.1zm-2.2 1.4c.5 0 .5-.3.8-.3.3-.3.3-.5.3-.8 0-.3 0-.5-.3-.8-.3 0-.5-.3-1.1-.3h-1.6v3.5h.8V426h.3l1.1 1.4h.8l-1.1-1.3zM576 81v352c0 26.5-21.5 48-48 48H48c-26.5 0-48-21.5-48-48V81c0-26.5 21.5-48 48-48h480c26.5 0 48 21.5 48 48zM64 220.6c0 76.5 62.1 138.5 138.5 138.5 27.2 0 53.9-8.2 76.5-23.1-72.9-59.3-72.4-171.2 0-230.5-22.6-15-49.3-23.1-76.5-23.1-76.4-.1-138.5 62-138.5 138.2zm224 108.8c70.5-55 70.2-162.2 0-217.5-70.2 55.3-70.5 162.6 0 217.5zm-142.3 76.3c0-8.7-5.7-14.4-14.7-14.7-4.6 0-9.5 1.4-12.8 6.5-2.4-4.1-6.5-6.5-12.2-6.5-3.8 0-7.6 1.4-10.6 5.4V392h-8.2v36.7h8.2c0-18.9-2.5-30.2 9-30.2 10.2 0 8.2 10.2 8.2 30.2h7.9c0-18.3-2.5-30.2 9-30.2 10.2 0 8.2 10 8.2 30.2h8.2v-23zm44.9-13.7h-7.9v4.4c-2.7-3.3-6.5-5.4-11.7-5.4-10.3 0-18.2 8.2-18.2 19.3 0 11.2 7.9 19.3 18.2 19.3 5.2 0 9-1.9 11.7-5.4v4.6h7.9V392zm40.5 25.6c0-15-22.9-8.2-22.9-15.2 0-5.7 11.9-4.8 18.5-1.1l3.3-6.5c-9.4-6.1-30.2-6-30.2 8.2 0 14.3 22.9 8.3 22.9 15 0 6.3-13.5 5.8-20.7.8l-3.5 6.3c11.2 7.6 32.6 6 32.6-7.5zm35.4 9.3l-2.2-6.8c-3.8 2.1-12.2 4.4-12.2-4.1v-16.6h13.1V392h-13.1v-11.2h-8.2V392h-7.6v7.3h7.6V416c0 17.6 17.3 14.4 22.6 10.9zm13.3-13.4h27.5c0-16.2-7.4-22.6-17.4-22.6-10.6 0-18.2 7.9-18.2 19.3 0 20.5 22.6 23.9 33.8 14.2l-3.8-6c-7.8 6.4-19.6 5.8-21.9-4.9zm59.1-21.5c-4.6-2-11.6-1.8-15.2 4.4V392h-8.2v36.7h8.2V408c0-11.6 9.5-10.1 12.8-8.4l2.4-7.6zm10.6 18.3c0-11.4 11.6-15.1 20.7-8.4l3.8-6.5c-11.6-9.1-32.7-4.1-32.7 15 0 19.8 22.4 23.8 32.7 15l-3.8-6.5c-9.2 6.5-20.7 2.6-20.7-8.6zm66.7-18.3H408v4.4c-8.3-11-29.9-4.8-29.9 13.9 0 19.2 22.4 24.7 29.9 13.9v4.6h8.2V392zm33.7 0c-2.4-1.2-11-2.9-15.2 4.4V392h-7.9v36.7h7.9V408c0-11 9-10.3 12.8-8.4l2.4-7.6zm40.3-14.9h-7.9v19.3c-8.2-10.9-29.9-5.1-29.9 13.9 0 19.4 22.5 24.6 29.9 13.9v4.6h7.9v-51.7zm7.6-75.1v4.6h.8V302h1.9v-.8h-4.6v.8h1.9zm6.6 123.8c0-.5 0-1.1-.3-1.6-.3-.3-.5-.8-.8-1.1-.3-.3-.8-.5-1.1-.8-.5 0-1.1-.3-1.6-.3-.3 0-.8.3-1.4.3-.5.3-.8.5-1.1.8-.5.3-.8.8-.8 1.1-.3.5-.3 1.1-.3 1.6 0 .3 0 .8.3 1.4 0 .3.3.8.8 1.1.3.3.5.5 1.1.8.5.3 1.1.3 1.4.3.5 0 1.1 0 1.6-.3.3-.3.8-.5 1.1-.8.3-.3.5-.8.8-1.1.3-.6.3-1.1.3-1.4zm3.2-124.7h-1.4l-1.6 3.5-1.6-3.5h-1.4v5.4h.8v-4.1l1.6 3.5h1.1l1.4-3.5v4.1h1.1v-5.4zm4.4-80.5c0-76.2-62.1-138.3-138.5-138.3-27.2 0-53.9 8.2-76.5 23.1 72.1 59.3 73.2 171.5 0 230.5 22.6 15 49.5 23.1 76.5 23.1 76.4.1 138.5-61.9 138.5-138.4z"/></symbol><symbol viewBox="0 0 576 512" id="icons--cc-visa-brands" xmlns="http://www.w3.org/2000/svg"><path d="M470.1 231.3s7.6 37.2 9.3 45H446c3.3-8.9 16-43.5 16-43.5-.2.3 3.3-9.1 5.3-14.9l2.8 13.4zM576 80v352c0 26.5-21.5 48-48 48H48c-26.5 0-48-21.5-48-48V80c0-26.5 21.5-48 48-48h480c26.5 0 48 21.5 48 48zM152.5 331.2L215.7 176h-42.5l-39.3 106-4.3-21.5-14-71.4c-2.3-9.9-9.4-12.7-18.2-13.1H32.7l-.7 3.1c15.8 4 29.9 9.8 42.2 17.1l35.8 135h42.5zm94.4.2L272.1 176h-40.2l-25.1 155.4h40.1zm139.9-50.8c.2-17.7-10.6-31.2-33.7-42.3-14.1-7.1-22.7-11.9-22.7-19.2.2-6.6 7.3-13.4 23.1-13.4 13.1-.3 22.7 2.8 29.9 5.9l3.6 1.7 5.5-33.6c-7.9-3.1-20.5-6.6-36-6.6-39.7 0-67.6 21.2-67.8 51.4-.3 22.3 20 34.7 35.2 42.2 15.5 7.6 20.8 12.6 20.8 19.3-.2 10.4-12.6 15.2-24.1 15.2-16 0-24.6-2.5-37.7-8.3l-5.3-2.5-5.6 34.9c9.4 4.3 26.8 8.1 44.8 8.3 42.2.1 69.7-20.8 70-53zM528 331.4L495.6 176h-31.1c-9.6 0-16.9 2.8-21 12.9l-59.7 142.5H426s6.9-19.2 8.4-23.3H486c1.2 5.5 4.8 23.3 4.8 23.3H528z"/></symbol><symbol viewBox="0 0 492 492" id="icons--close" xmlns="http://www.w3.org/2000/svg"><path d="M300.188 246L484.14 62.04c5.06-5.064 7.852-11.82 7.86-19.024 0-7.208-2.792-13.972-7.86-19.028L468.02 7.872C462.952 2.796 456.196.016 448.984.016c-7.2 0-13.956 2.78-19.024 7.856L246.008 191.82 62.048 7.872C56.988 2.796 50.228.016 43.02.016c-7.2 0-13.96 2.78-19.02 7.856L7.872 23.988c-10.496 10.496-10.496 27.568 0 38.052L191.828 246 7.872 429.952C2.808 435.024.02 441.78.02 448.984c0 7.204 2.788 13.96 7.852 19.028l16.124 16.116c5.06 5.072 11.824 7.856 19.02 7.856 7.208 0 13.968-2.784 19.028-7.856l183.96-183.952 183.952 183.952c5.068 5.072 11.824 7.856 19.024 7.856h.008c7.204 0 13.96-2.784 19.028-7.856l16.12-16.116c5.06-5.064 7.852-11.824 7.852-19.028 0-7.204-2.792-13.96-7.852-19.028L300.188 246z"/></symbol><symbol viewBox="0 0 200 200" id="icons--dor" xmlns="http://www.w3.org/2000/svg"><path fill-rule="evenodd" clip-rule="evenodd" d="M26.1 131.1H0V9.3h26.1V0l59.7 9.3v121.8l-59.7 12.6v-12.6zm0-7.2v-108H7.2v108h18.9zm11.45-47.07c2.35 0 4.25-1.9 4.25-4.25s-1.9-4.25-4.25-4.25-4.25 1.9-4.25 4.25c0 2.34 1.9 4.25 4.25 4.25z"/></symbol><symbol viewBox="0 0 600 990" id="icons--dres" xmlns="http://www.w3.org/2000/svg"><path fill="#00505D" d="M432.2 0h2c1.7 1 3.4 2 5.2 2.9 19.2 10 38.6 19.6 57.5 30.1 13.7 7.6 14.3 10.2 8.6 24.8-9.2 23.6-15.2 47.8-15.6 73.3-.6 33.2 8.5 62.8 31.7 87.3 5.6 5.9 11.1 12 16.6 18 3.9 4.2 5 8.8 3.5 14.7-10.4 39.6-20.6 79.2-30.6 118.9-.9 3.4-.5 7.6.6 11 42.9 130.2 86 260.3 128.9 390.4 15.2 46.1 29.9 92.4 44.7 138.7 2.6 8.1.7 12.6-7 16.3-4.6 2.2-9.5 4-14.4 5.6-49.4 15.2-99.7 26.5-150.6 35-33.2 5.5-66.4 10.6-100.1 11.7-10.3.3-20.6.9-30.9 1.4h-88c-4.1-.3-8.3-.6-12.4-.9-19-1.1-38-1.2-56.8-3.5-56.6-7-112.5-17.7-167.4-32.8-16.6-4.6-32.9-10.7-49-17-8.4-3.3-9.8-7.8-7.8-16.5 2-8.6 4.3-17.1 6.7-25.6C54.4 716 101.3 548.3 147.9 380.5c1-3.7.8-8.3-.2-12.1-9.8-37.7-19.7-75.3-30.2-112.8-2.5-9.1-1.5-16.6 4.7-23.5 1.5-1.7 3-3.6 4.3-5.5 7.6-11.5 15.8-22.7 22.7-34.6 24.9-42.7 24.7-86.7 5-131.2-1.5-3.3-2.7-6.8-3.5-10.4-1.9-8.1-.3-12.3 7-16.1 19.1-10.1 38.5-19.7 57.5-30.1 7.5-4.1 13.6-2.6 20.5 1.2 13 7.1 26.2 13.8 39.6 20.1 23.9 11.3 49 14.5 75 9.6 19.6-3.7 38.1-10.8 55.7-20C414.9 10.3 423.5 5 432.2 0zm200 842.2c-.9-3.3-1.6-5.8-2.4-8.3-47.5-143.7-95.1-287.4-142.6-431.1-.9-2.7-2-3.9-5.1-3.9-101.1.4-202.3.8-303.4 1-4 0-5.4 1.5-6.4 5.1C132.6 548.1 92.8 691.2 53 834.3c-1.8 6.5-1.9 6.9 4.7 8.9 11.5 3.4 23 6.8 34.7 9.2 32.1 6.7 64.1 13.9 96.4 19.3 44 7.3 88.4 8.9 133 9.5 48 .6 95.9-1.1 143.6-7.3 47.2-6.1 94-15.2 140.4-25.5 8.7-2 17.4-4.1 26.4-6.2zM442.8 39.3c-4 7.3-7.3 14-11.1 20.4C387.3 133.1 291.3 143 235.9 74c-7.3-9.1-12.5-20-18.3-30.3-2.1-3.8-4.2-4.6-7.9-2.6-5.9 3.1-12.1 5.7-17.8 9.1-9.2 5.5-7.9 3.5-5.5 13.4 3.4 13.9 8 27.7 9.4 41.7 4.3 45.7-8.7 86.9-35.3 124-3.7 5.1-7.4 10.3-10.4 15.9-1.3 2.5-1.9 6.2-1.2 8.9 9.6 36.9 19.5 73.6 29.2 110.5.8 2.9 2.2 3.5 4.9 3.5 97.3.3 194.6.6 291.9 1.1 3.5 0 4.9-1 5.8-4.4 9.8-37.5 19.9-74.9 29.7-112.4.4-1.5-.2-3.9-1.3-5.1-4.1-4.8-8.6-9.3-12.8-14-22.4-25.3-35.1-54.6-37.3-88.4-1.7-25.5 2.9-50.1 10.7-74.2 1.8-5.5 3.5-11 5.4-16.7-10.9-5.1-21.4-9.8-32.3-14.7zM339.7 951.1c33.6-2.1 67.2-3.4 100.7-6.5 48.6-4.4 96.7-12.8 144.2-24.5 20.8-5.1 41.6-10.8 62.3-16.2 2.7-.7 5.3-1.4 4.1-5.2-2.7-8.2-5.3-16.5-7.9-24.7-.7-2.2-1.8-3.2-4.4-2.4-4.1 1.2-8.5 1.8-12.7 2.8-84.9 20.5-170.7 34.1-258.2 36.9-93 3.1-184.7-5-275.1-27-14.6-3.5-29.2-6.7-43.8-10.2-4.6-1.1-7.3.2-8.6 4.8-1.8 6.4-3.8 12.8-5.4 19.2-.3 1.2.9 3.5 2.1 4 4 1.9 8.3 3.5 12.6 4.8 94.6 28.3 191.3 42.9 290.1 44.2zm60.9-900.3c-48.1 19.4-96 24.8-144 0 30.9 46.4 103 58.3 144 0z"/></symbol><symbol viewBox="0 0 890 890" id="icons--eco" xmlns="http://www.w3.org/2000/svg"><path fill="#00505D" clip-rule="evenodd" d="M887.8 437.6c3.7 241.8-187.6 443.1-430.9 450.2C209.4 894.9 7.7 699.8.2 458.1-7.5 210.4 188 6.1 432.7.1c249.7-6 451.9 192.9 455.1 437.5zM444.3 35.7C219.5 35.4 35.7 217.9 35.5 442.5c-.3 231.4 187.4 409.7 408.4 409.8 223.4.1 408.4-180.9 408.6-407.6.1-231.9-189.4-409.8-408.2-409z"/><path fill="#00505D" clip-rule="evenodd" d="M444.1 90.5c189.9-.7 353.6 153.8 353.6 353.8 0 195.3-159.5 356.6-360.2 353.2-189.9-3.1-347.2-157.2-347.3-355.1 0-193.8 159.1-351.9 353.9-351.9zm.9 35.2c-173.7-1.6-317.3 140.3-319.2 315-1.9 175.5 140 321 316.6 321.6 177.4.6 319.5-143.1 319.9-317.5.4-175.3-142-318.6-317.3-319.1z"/><path fill="#E3B196" clip-rule="evenodd" d="M464.7 284.9c47 .9 102.8 12.5 157.3 30.9 17.5 5.9 34.8 12.3 51.7 19.6 13.9 5.9 17.2 18.1 8.1 30.2-42.7 56.7-86 112.8-132.3 166.6-15.5 18-30.9 36.4-50.6 50.2-31 21.6-65.2 31.6-103.1 29-37.7-2.6-70.1-17.2-97.6-42.8-2.8-2.6-4-2.6-6.1.7-6.4 10.1-12.3 20.6-18 31.1-3.7 6.8-10.6 10.1-17.5 9-8.1-1.3-13.5-6.1-15.3-13.7-1.2-5 .2-9.6 2.6-13.9 7.9-14.3 15.9-28.5 25.5-41.7 1.8-2.5 1.9-4.4.3-7.1-33.3-56.8-27.6-129.6 13.9-180 26.7-32.4 61.4-51.3 101.8-60.9 22.7-5.5 45.5-7.2 79.3-7.2zm160 95.8c-1.3.1-2.7.1-4 .4-27 6-53.8 12.1-80.2 20.5-19.2 6.1-38.2 12.6-56.6 20.9-11.7 5.2-23.1-.9-25.5-13.2-1.6-8.1 3.2-15.8 12.5-19.8 42.1-18.3 86.2-30.4 130.8-40.5 1.1-.2 2.4 0 2.8-1.7-35.9-11.4-72.3-20.5-109.8-24.5-29.4-3.1-58.8-4-88.1 1.1-28.2 4.9-54.3 14.7-76.6 32.9-47.8 38.9-60.8 103-30.5 156.5 23.5 41.4 60.3 62.3 108 62.9 26.8.3 51-8 72.6-23.9 13.4-9.9 24.2-22.3 35.1-34.7 29.9-34 58.2-69.4 86.1-105.1 8.1-10.3 16.6-20.3 23.7-31.4.2-.2.4-.4.7-.5-.4-.6-.7-.4-1 .1z"/><path fill="#00505D" clip-rule="evenodd" d="M150.3 431.9c2.2-47.8 14.7-92.6 38.9-133.8 39.8-67.6 97.5-113 172.6-135.9 10.1-3.1 20 2 22.8 11.4 2.9 9.7-2.5 19.4-12.9 22.5-40.1 11.9-75.5 32-105.7 61.1-38.7 37.3-63.7 82.3-75 134.8-3.6 16.6-5.2 33.5-5.3 50.5-.1 14.3-12.3 22.8-24.8 17.5-7.5-3.2-10.4-9.4-10.7-17.1 0-3.7.1-7.4.1-11z"/><path fill="#00505D" d="M451.8 150.2c17.1.8 35 2.5 52.6 6.4 9.4 2.1 14.9 9.2 14.7 18.1-.2 8.6-6.3 15.2-15.5 16.9-4.2.8-8.2-.8-12.3-1.5-15.4-2.9-31-4.1-46.7-4.3-14.5-.2-22.9-15-15.6-26.9 3.3-5.3 8.2-8.1 14.4-8.7 2.5-.1 5 0 8.4 0z"/><path fill="#E3B196" clip-rule="evenodd" d="M447.1 431.8c0 5.7-2.3 10.4-6.8 13.8-7.4 5.6-14.6 11.6-21.9 17.4-7.1 5.7-17.4 4.7-23.5-1.9-6.1-6.6-6.4-16.8-.1-23.6 7.7-8.4 16.7-15.4 26.4-21.2 11.4-6.8 25.8 2.1 25.9 15.5z"/></symbol><symbol viewBox="0 0 280 280" id="icons--heart" xmlns="http://www.w3.org/2000/svg"><path fill="#00505D" d="M140.6 242.1h34.5c0-6.7.2-13.3-.1-19.9-.2-4 1.1-6.9 4.4-9.4 6.1-4.6 11.6-10.1 17.9-14.4 14.6-10 22.3-24.4 27.3-40.6 2.2-7 4.1-14.1 6.6-20.9.7-1.8 3.4-4.3 4.8-4.1 3.5.6 3 3.6 2 6.4-4.7 13.3-9.1 26.7-14.3 39.8-3.3 8.5-9.6 15.1-16.7 20.9-7.2 5.9-14.6 11.7-21.6 17.8-1.6 1.4-2.8 4-2.9 6.1-.4 6.8-.3 13.7-.1 20.5.1 3.8-1.3 5.7-5.1 5.7-13 0-26 .2-39-.2-1.8 0-5.2-2.5-5.1-3.8.2-15.9-.6-32.1 1.8-47.8 2.8-17.9 13.6-31.5 29.8-40.4 1.8-1 3.5-3.1 4.1-5 3.4-9.6 6.3-19.3 9.5-28.9 3.1-9.4 7-11.5 16.4-9 4.1-9.6 7.1-11.3 16.4-9.1.8-2 1.4-4 2.4-5.9 2.3-4.5 6.8-6.4 11.7-5.5 1.6.3 3.7-.1 5-1.1 4.5-3.3 9.2-3.9 13.4-1.2 4.2 2.7 6.1 7.4 4.6 12.6-1.6 5.8-3.4 11.5-5.2 17.2-.8 2.4-2 4.4-5.1 3.2-2.9-1.1-2.8-3.2-1.9-5.7 1.7-5.2 3.5-10.4 4.7-15.8.4-1.7-1.3-3.8-2-5.7-1.6 1.2-4.2 2.1-4.8 3.7-3.1 9.1-5.6 18.5-8.6 27.6-4.9 15.1-13.4 27.8-25.6 38-5.9 4.9-11.9 9.6-18.2 14.1-1.3.9-3.7.3-5.6.5.1-1.9-.5-4.4.5-5.7 7.9-10.3 16-20.4 24.1-30.6.8-1 2-2 2.4-3.2.4-1.5.2-3.2.2-4.9-1.8.1-4.1-.5-5.2.5-4.2 3.5-8 7.5-11.9 11.4-6.6 6.5-13.4 12.6-21.5 17.5-16.3 9.8-23.3 25.5-24.2 44-.2 10.3.2 20.6.2 31.3zm40.1-97.9c7.1-4.3 9.8-11.3 11.4-18.9.2-1.2-1.1-2.7-1.7-4-1.3.7-3.3 1.2-3.6 2.2-2.3 6.7-4.2 13.5-6.3 20.3-.1.3-.3.6-.4.9.2-.1.4-.3.6-.5zm30.2-4.8c.7.1 1.3.2 2 .3.7-1.1 1.6-2.2 2-3.4 3.4-9.9 6.9-19.7 10-29.7.4-1.3-.6-3.1-1-4.7-1.4 1-3.5 1.8-4 3.1-2.7 7.3-5.2 14.8-7.2 22.3-1.2 4-1.3 8.1-1.8 12.1zm-12-10.8c3.8 1.3 5.8.2 6.6-3.3.7-2.9 2-5.6 2.5-8.5.2-1.4-.8-3-1.3-4.5-1.3 1-3.2 1.7-3.7 3-1.5 4.3-2.7 8.8-4.1 13.3zM73.9 242h34.9c-.8-18.7 2.7-37.5-6.3-55.1-5.1-10-13-16.9-22.3-22.9-7.1-4.7-13.2-11-19.6-16.7-3.2-2.9-6-6.3-9.4-9-1.3-1-3.6-.7-5.4-1 .2 1.9-.4 4.3.6 5.6 8.4 11 17.1 21.7 25.6 32.6.9 1.2 2 3.1 1.7 4.3-.8 2.8-2.9 4-5.7 2.1-22.2-15-40.4-33.1-47.1-60.3-1.7-6.9-3.8-13.8-6.2-20.5-.5-1.4-3-2.2-4.6-3.3-.8 1.7-2.6 3.8-2.2 5.2 7.6 23.7 15 47.5 23.5 71 2.3 6.3 7.7 11.5 12 17 1.6 2.1 3.6 3.8 1.1 6.3s-4.4.6-6.4-1.1c-8.9-8-14.4-18.3-18.1-29.4C13.2 146.3 7 125.6.7 105-1 99.5.9 94.7 5.3 92c4.7-2.9 9.1-2.3 13.7 1.6.9.7 2.3 1.4 3.3 1.3 9-1.2 11.6.3 14.5 8.7.2.6.4 1.2.5 1.3 3.9.4 7.8-.1 10.7 1.5 2.8 1.5 4.4 5 6.4 7.5 3.4.5 7.9-.1 10.6 1.8 2.9 2 4.6 6.3 5.9 9.9 3.3 9.1 5.9 18.3 9.2 27.4.7 1.9 2.4 4 4.2 5 20.9 11.8 30.7 30.2 31.8 53.6.5 10.8-.1 21.7.1 32.5.1 4.3-1.5 6.1-5.8 6-12.7-.1-25.3-.1-38 0-4 0-5.8-1.7-5.7-5.7.1-6.8.3-13.7-.1-20.5-.1-2.1-1.4-4.7-2.9-6.2-3.7-3.6-8.1-6.5-11.7-10.1-1.1-1.1-.8-3.6-1.1-5.4 1.9 0 4.3-.8 5.6.1 5.3 3.8 10.3 7.9 15.1 12.3 1.5 1.4 2.4 4 2.5 6 0 6.9-.2 13.9-.2 21.4zM35.8 140c.5-.2 1-.3 1.4-.5.4-2.2 1.7-4.7 1.1-6.6-2.8-9.7-6.1-19.2-9.4-28.8-.4-1.1-2.3-1.6-3.6-2.3-.5 1.4-1.6 3-1.3 4.2 1.5 5.9 3.2 11.8 5.2 17.6 1.9 5.6 4.4 11 6.6 16.4zm33.5 4.9c-2.3-7.2-4.3-13.9-6.7-20.4-.5-1.4-2.6-2.2-4-3.2-.5 1.7-1.6 3.5-1.3 5.1 1.3 7.3 4.4 13.8 12 18.5zm-19.1-16c-1.5-4.9-2.8-9.5-4.5-13.9-.4-1.1-2.3-1.8-3.4-2.6-.5 1.4-1.7 3-1.4 4.2 1.1 4.3 2.7 8.4 4.1 12.6 1.9-.1 3.3-.2 5.2-.3z"/><path fill="#E3B196" d="M124.4 16.2C138 .9 154.4-3.6 173.3 3c15.7 5.5 25.9 21.3 26.4 39.4.7 21.7-9.5 38.6-23.7 53.7-13.8 14.7-30.1 26.2-48 35.5-1.9 1-5.4 1-7.2-.1-9.8-5.9-19.4-12.2-28.9-18.6-1.3-.9-2.4-4.1-1.8-5.5 1.4-3.1 3.8-1.9 6.2-.3 8.3 5.5 16.7 11 25.1 16.3 1.3.8 3.7 1.5 4.8.9 22.8-12.7 43.7-27.6 57.6-50.3 8.5-13.8 11.3-28.6 5.8-44.4C181.7 7 151.2-.2 134.2 16.8c-2.5 2.5-3.9 6.1-6 9-.9 1.2-2.4 2.7-3.6 2.7-1.2 0-2.9-1.5-3.6-2.7-7.6-14.1-19.5-20-36.1-17.6-13.6 1.9-24 12.4-27.1 27.1-3.5 16.7 1.6 31.5 11.5 44.8 4.5 6 10 11.1 14.7 16.9.9 1.1.4 3.4.5 5.1-1.8 0-4.2.8-5.1 0-13.9-12.9-25.6-27.3-29-46.6-3-16.9-.2-32.8 13-45 17.3-16.1 45.2-13.3 61 5.7z"/><path fill="#E3B196" d="M125.1 78.1c-6.8.1-13.3-4.1-15.4-10.5-.5-1.4.7-3.4 1.1-5.1 1.8.7 4.3.8 5.1 2.1 5.5 8.2 12.2 8.2 17.3 0 .8-1.3 3.3-1.6 5-2.4.5 1.8 1.8 3.9 1.3 5.5-1.8 6-8.2 10.3-14.4 10.4zM96 47c3.9-.1 7.1 2.9 7.1 6.7.1 4-3.3 7.4-7.1 7.3-3.6-.1-7-3.5-7-7.1-.1-3.6 3.2-6.8 7-6.9zm57 14.1c-3.8 0-7.3-3.6-7.2-7.4.1-3.6 3.6-6.7 7.3-6.6 3.9.1 6.8 3.1 6.7 7.1 0 3.7-3.1 6.9-6.8 6.9zm27.7 83.1c-.2.2-.5.4-.7.6.1-.3.3-.6.4-.9.1-.1.3.3.3.3z"/></symbol><symbol viewBox="0 0 320 512" id="icons--icon-cart" xmlns="http://www.w3.org/2000/svg"><path fill-rule="evenodd" clip-rule="evenodd" d="M168.11 25.72c-2.08.19-3.66.43-5.96.95-2.29.51-5.31 1.3-8.2 2.27-2.89.97-5.66 2.12-8.9 3.85-3.24 1.74-6.95 4.05-9.85 6.13-2.9 2.07-5 3.91-7.66 6.84-2.66 2.93-5.89 6.97-8.59 11.28-2.7 4.3-4.87 8.88-6.48 13.5-1.61 4.62-2.64 9.3-3.23 15.2-.58 5.9-.67 14.73-.8 21.86H242.3c-.13-7.14-.22-15.96-.8-21.86-.58-5.9-1.62-10.58-3.23-15.2-1.6-4.62-3.78-9.2-6.48-13.5-2.7-4.31-5.93-8.34-8.59-11.28-2.66-2.93-4.76-4.77-7.66-6.84-2.9-2.08-6.61-4.4-9.85-6.13-3.24-1.73-6-2.89-8.9-3.85-2.89-.97-5.91-1.76-8.2-2.27-2.29-.52-3.87-.75-5.96-.95-5.18-.48-9.33-.47-14.52 0zm75.16 136.91l-.97-24.52c-9.55 4.97-16.07 14.96-16.07 26.48 0 16.48 13.36 29.83 29.83 29.83 16.48 0 29.83-13.36 29.83-29.83 0-12.39-7.54-23.4-18.29-27.91l-.28 27.53c0 6.73-5.39 10.52-12.03 10.52s-12.02-5.39-12.02-12.1zM185.19.67c3.87.49 8.49 1.31 13.34 2.61 4.85 1.31 9.91 3.1 14.99 5.46s10.17 5.3 14.65 8.39c4.48 3.09 8.34 6.34 12.99 11.58s10.07 12.48 13.94 18.87c3.87 6.38 6.19 11.92 7.97 17.94 1.78 6.01 3.01 12.51 3.68 19.27.66 6.76.76 15.81.86 22.83h54.73l28.43 294.47H0l28.43-294.47h54.73c.1-7.02.19-16.07.86-22.83.66-6.76 1.9-13.25 3.68-19.27 1.78-6.02 4.1-11.55 7.97-17.94 3.87-6.39 9.29-13.62 13.94-18.87 4.64-5.24 8.51-8.49 12.99-11.58s9.57-6.03 14.65-8.39a93.548 93.548 0 0114.99-5.46c4.84-1.31 9.47-2.13 13.34-2.61 7.09-.9 12.52-.89 19.61 0zM83.43 162.61l-.28-25.94c-10.75 4.51-18.29 15.52-18.29 27.91 0 16.48 13.36 29.83 29.83 29.83s29.83-13.36 29.83-29.83c0-11.52-6.52-21.51-16.07-26.48l-.97 24.59c0 6.71-5.38 12.03-12.02 12.03-6.64.01-12.03-5.38-12.03-12.11z"/></symbol><symbol class="lsvg-inline--fa lfa-instagram lfa-w-14" viewBox="0 0 448 512" id="icons--instagram-brands" xmlns="http://www.w3.org/2000/svg"><path fill="currentColor" d="M224.1 141c-63.6 0-114.9 51.3-114.9 114.9s51.3 114.9 114.9 114.9S339 319.5 339 255.9 287.7 141 224.1 141zm0 189.6c-41.1 0-74.7-33.5-74.7-74.7s33.5-74.7 74.7-74.7 74.7 33.5 74.7 74.7-33.6 74.7-74.7 74.7zm146.4-194.3c0 14.9-12 26.8-26.8 26.8-14.9 0-26.8-12-26.8-26.8s12-26.8 26.8-26.8 26.8 12 26.8 26.8zm76.1 27.2c-1.7-35.9-9.9-67.7-36.2-93.9-26.2-26.2-58-34.4-93.9-36.2-37-2.1-147.9-2.1-184.9 0-35.8 1.7-67.6 9.9-93.9 36.1s-34.4 58-36.2 93.9c-2.1 37-2.1 147.9 0 184.9 1.7 35.9 9.9 67.7 36.2 93.9s58 34.4 93.9 36.2c37 2.1 147.9 2.1 184.9 0 35.9-1.7 67.7-9.9 93.9-36.2 26.2-26.2 34.4-58 36.2-93.9 2.1-37 2.1-147.8 0-184.8zM398.8 388c-7.8 19.6-22.9 34.7-42.6 42.6-29.5 11.7-99.5 9-132.1 9s-102.7 2.6-132.1-9c-19.6-7.8-34.7-22.9-42.6-42.6-11.7-29.5-9-99.5-9-132.1s-2.6-102.7 9-132.1c7.8-19.6 22.9-34.7 42.6-42.6 29.5-11.7 99.5-9 132.1-9s102.7-2.6 132.1 9c19.6 7.8 34.7 22.9 42.6 42.6 11.7 29.5 9 99.5 9 132.1s2.7 102.7-9 132.1z"/></symbol><symbol viewBox="0 0 900 1000" id="icons--kar" xmlns="http://www.w3.org/2000/svg"><path fill="#00505D" d="M926 484c-1 2.4-2.2 4.8-3 7.3-4.2 12.6-13.5 17.5-26 17.7l-73.9 1.2c-23.2.3-46.3.5-69.5.9-5.1.1-10.3.8-15.3 1.9-6.6 1.4-9.2 4.3-9.4 11-1.1 36.3-2 72.6-2.8 108.9-.4 17.5-.4 35-.8 52.5-.1 2.4-.7 4.9-1.7 7.1-7.2 16-15.7 31.1-30.6 41.1-8 5.3-16.8 9.4-25.3 13.9-1.4.7-3.2.7-4.9.7-42.6.6-85.3 1.2-127.9 1.9-11 .2-22 .9-32.9 2-8.5.8-12.1 3.7-12.3 12.5-.8 33-1.7 65.9-2.6 98.9-.4 14.7-.7 29.3-1.1 44-.5 22.3-11.4 39.3-28.1 52.9-14.8 12.1-31.6 18.9-51 18.7-6.6-.1-13.3.6-19.9 1H266c-3.1-.4-6.3-.7-9.4-1.1-12.7-1.7-22.3-7.9-26.7-20.3-4.3-11.9-1.5-22.6 7.3-31.7 3.8-3.9 8.4-5.9 13.8-6.1 28-.7 55.9-1.6 83.9-2.2 25.5-.5 51-.7 76.5-.9 3.2 0 5.4-1 7.8-3.4 5.3-5.3 7.1-11.1 7-18.6-.1-42.8.6-85.6.8-128.5.2-37.3 27.3-68.3 60.5-75.6 13.7-3 28.1-3.2 42.2-3.3 39.5-.5 79-.4 118.5-.4 3.7 0 6-1.4 8.7-3.6 6.6-5.2 8.3-11.6 8.3-19.9-.1-44.7 0-89.3 1-134 .9-39.1 23.2-68 59.1-77.9 6.6-1.8 13.8-2.5 20.7-2.5 47.5-.2 95 .2 142.4-.3 20.9-.2 31 6.4 37.5 26.1.1 2.8.1 5.4.1 8.1zM0 564c13.5-30 26.9-60 40.7-90.6 12.3 5.7 23.8 10.9 35.1 16.3 19.7 9.4 39.2 19.1 58.9 28.4 4.6 2.2 5.2 4.8 3.2 9-2.6 5.3-4.7 10.7-3.1 16.8 2.3 8.9 12.6 12.1 19.2 5.6 3.1-3.1 5.7-7 7.9-10.9 2.2-3.9 4.8-4.6 8.6-3 7.6 3.3 15.4 6.3 22.9 9.9 21.4 10.1 42.6 20.5 64 30.4 4.6 2.1 5.5 4.6 3.6 8.9-5 11.2-9.8 22.6-15.1 33.7-6.9 14.6-14 29.1-21.1 43.6-.6 1.2-1.3 2.3-2 3.5-4.9 8.2-5.8 8.8-14.6 4.8-41.3-18.9-82.6-37.7-123.7-57-23.8-11.2-47.3-22.9-70.8-34.7-4.9-2.5-9.2-6.4-13.8-9.6.1-1.8.1-3.4.1-5.1zM349 0c17.3 4.8 26.8 17.5 33.2 33.2.9 2.3 2 4.5 3.1 6.9 1.1-.4 1.9-.6 2.6-1.1 18.4-11.3 38.8-11.7 59-8.8 17.5 2.5 31.5 12.7 41.7 27 18.1 25.3 21.4 52.6 6.9 80.5-14.4 27.7-38.7 41-69.6 39.7-31.2-1.3-54.2-16.8-66-46.1-9.4-23.5-7.3-47 5.7-69.1 1.7-2.8 3.3-5.8 4.2-9 1-3.5-1.2-5.3-4.5-4.1-2.6.9-5.1 2.5-7.2 4.2-9.9 8.1-14.8 18.8-14.9 31.4-.1 11.8.1 23.7 1 35.4.9 12.3-5.2 21.9-9.7 31.6-9.7-21.9-19.9-43.7-29-65.8-6-14.7-9.1-30.3-6.9-46.4 2.6-19 13.5-30.9 31.6-36.7 3-.9 5.9-2 8.8-3 3.3.2 6.7.2 10 .2z"/><path fill="#00505D" d="M472 320.3c-4.5 43.7-9 87.3-13.5 131.6 13.7 3.1 26.8 6.1 39.9 9.1 34.7 8.1 69.3 16.2 104 24.4 4.1 1 8.9 1.4 9.5 7.2.5 5.2-2 8.5-6.1 11.1-.6.3-1 .8-1.7 1.4.2.6.2 1.3.5 1.8 7.1 12.1 8.6 25.4 8.5 39-.3 27.3.3 54.7-.9 82-.9 21.9-22.8 38.1-44.7 34.7-20.4-3.2-33.8-17.7-34.4-38.5-.6-21.1-.5-42.3-.7-63.5v-5.2c-12.8-.7-25-1-36.5 4.9-23.4 12.1-46.8 24-70.1 36.1-1.3.7-2.5 3-2.6 4.6-1.5 21.6-2.8 43.2-4 64.9-.6 11.1-3.4 21.3-10.2 30.3-25.8 34.4-51.5 68.8-77.3 103.2-7.8 10.4-17.4 18-31.3 19.2-26.4 2.3-49-23.9-42-49.4 1-3.8 3.1-7.4 5.4-10.6 18.1-25.5 36.5-50.9 54.7-76.4 6.7-9.4 13.2-18.8 19.2-28.6 1.9-3.1 2.2-7.3 3.3-10.9-.5-.4-1.1-.8-1.6-1.2-4.6 1.6-9.1 3.3-13.7 4.8-5.6 1.8-10.2-.9-11.2-6.5-.3-1.4 0-3 .3-4.4 6.6-35.8 12.9-71.7 19.9-107.5 9-45.8 16.3-91.8 20.6-138.3 3.2-35.2 6.9-70.3 10.4-105.4.2-1.9.3-3.9.4-6.6-9.5 2.7-18.3 5-27 7.6-9.6 2.9-19.1 5.8-28.5 9.1-2.6.9-5.7 2.6-7.1 4.9-27.5 45.2-54.8 90.6-82.2 135.9-.4.7-.7 1.5-1.4 3 3.5 2.1 7 4.1 10.6 6.2 8.6 4.9 9.9 8.4 6.4 17.6-1.2 3.3-2.8 6.4-4.2 9.6-1.3 3-2.7 6-4.1 9.3 13.4 6.6 26.6 12.9 39.6 19.5 6.1 3.1 11.9 6.7 17.9 10 4.9 2.7 6.2 7 4.5 11.9-2.4 6.7-5.2 13.3-8.1 19.8-4.2 9.2-8.7 18.3-13.2 27.7-12.7-5.9-24.9-11.6-37-17.4-18.6-8.9-37.2-17.9-55.7-26.9-3.3-1.6-5.2-3.7-5.9-7.8-1.8-10.9-11.3-15.4-21.1-10.3-4.3 2.3-8.2.9-11.9-.7-13.9-6.1-27.7-12.3-41.4-18.6-14.9-6.9-29.8-14.1-44.7-21.1-1.5-.7-2.9-1.5-4.7-2.4.5-1.6.8-3 1.5-4.3 6.4-13.2 12.6-26.4 19.3-39.5 4-7.9 7.6-9.6 15.8-6.4 12.1 4.6 23.9 10.1 35.7 15.3 6.5 2.9 13 6 20.1 9.3 3.8-7.5 7.8-14.5 11.1-21.9 1.9-4.1 4.3-5.6 8.5-4.3 8.4 2.6 13-.4 17.5-8.2 25.3-43.5 51.6-86.3 76.9-129.7 8.5-14.6 19.9-24.3 35.6-29.3 29.1-9.4 58.2-19 87.4-28 13.5-4.1 27.2-7.7 41.1-10 16-2.6 30.4 2.3 41.7 14.4 17 18.1 33.9 36.2 50.8 54.4 5.2 5.6 10.7 11.1 15.3 17.1 5.1 6.8 11.8 9.9 19.8 12.1 42.8 12.4 85.5 25.2 128.2 37.9 4.3 1.3 8.3 3.3 12.5 5 10.3 4.1 14.6 12.2 13.3 22.6-.7 5.9-2.8 12.1-6 17-5.6 8.5-13.9 12.2-24.3 9.2-52.1-15-104.2-30-156.2-45.3-5.3-1.6-10.2-5.5-14.6-9.2-5.8-4.9-10.9-10.7-16.5-16-2.5-2.4-5.2-4.5-7.8-6.7-.4-.2-1 0-1.6.3zM161.8 422c-.9-.4-1.9-.7-2.8-1.1-.4 1.3-.6 2.7-1.1 4-2.2 5-4.7 9.9-6.6 15.1-.4 1.1.6 3.7 1.7 4.3 20.5 10.2 41.1 20.3 61.8 30.2 1.1.5 3.9-.2 4.4-1.1 3-5.2 5.6-10.5 8.1-16 .4-.9-.1-2.9-.8-3.4-6.1-3.7-11.8-7.8-19.8-4.9-14.9 5.4-27.8.7-35.1-12.4-1.2-2.2-1.5-4.9-2.9-6.8-2-2.9-4.6-5.3-6.9-7.9z"/></symbol><symbol viewBox="0 0 5571.7 553.5" shape-rendering="geometricPrecision" text-rendering="geometricPrecision" image-rendering="optimizeQuality" fill-rule="evenodd" clip-rule="evenodd" id="icons--logo" xmlns="http://www.w3.org/2000/svg"><path fill="#E3B196" d="M71.22 40.28c70.18 0 159.11 6.29 159.11 158.39v245.11c0 28.43 7.74 116.02 73.91 123.97H202c-70.19 0-159.12-6.29-159.12-158.39V136.77c0-70.94-27.72-96.49-61.61-96.49h89.95zm428.82 0c70.19 0 161.44 6.29 217.55 158.39 44.42 120.4 56.15 152.18 100.57 272.6 26.17 70.94 63.32 96.48 97.2 96.48h-89.94c-70.19 0-161.43-6.29-217.55-158.39-44.42-120.41-56.15-152.19-100.57-272.59-26.17-70.94-63.31-96.49-97.2-96.49h89.94zm-72.73 527.47c66.57 0 120.55-53.98 120.55-120.54 0-66.57-53.98-120.54-120.55-120.54-66.56 0-120.54 53.97-120.54 120.54 0 66.56 53.98 120.54 120.54 120.54z"/><path fill="#F0F0EE" d="M1509.72 50.41l-232.15 517.34h-96.64l-232-517.34-4.42-9.85h109.56l1.86 4.14 202.61 451.46L1460.36 44.7l1.86-4.17h51.93zm240.88-9.88v527.22h102.85V40.53zm693.69 45.45h-148.52v481.77h-69.12v-.04h-35.6V85.98h-155.49V40.53h415.72v45.45zm862.5 332.14c7.7 12.07 16.76 23.54 27.13 34.39 10.26 10.83 21.14 20.3 32.58 28.38 11.44 8.07 23.47 14.77 36.05 20.13 12.56 5.34 25.79 9.39 39.65 12.11 13.85 2.7 28.41 4.07 43.67 4.07 15.05 0 29.49-1.36 43.26-4.05 13.88-2.71 27.16-6.77 39.78-12.13 12.59-5.36 24.61-12.06 36.03-20.13 11.44-8.08 22.28-17.54 32.5-28.35l.06-.05c10.38-10.85 19.43-22.3 27.15-34.37 7.74-12.12 14.2-24.91 19.39-38.41v-.02c5.12-13.26 8.96-27.29 11.5-42.06 2.55-14.76 3.81-30.31 3.81-46.64 0-16.3-1.26-31.89-3.81-46.71-2.53-14.81-6.38-28.96-11.53-42.41-5.19-13.32-11.64-26-19.36-38.03-7.78-12.12-16.83-23.59-27.15-34.39l-.03-.02c-10.27-10.85-21.18-20.41-32.72-28.61-11.36-8.05-23.3-14.75-35.8-20.04-12.6-5.31-25.84-9.32-39.71-11.99-13.8-2.66-28.26-4-43.37-4-15.28 0-29.85 1.34-43.7 4-13.89 2.67-27.11 6.68-39.66 11.99-12.5 5.29-24.47 12.01-35.85 20.07-11.48 8.13-22.41 17.7-32.74 28.6-10.34 10.84-19.39 22.32-27.13 34.39a214.493 214.493 0 00-19.34 38.06h-.01c-5.13 13.37-8.97 27.52-11.51 42.38-2.54 14.82-3.78 30.41-3.78 46.71 0 16.33 1.24 31.88 3.78 46.64 2.53 14.77 6.37 28.79 11.52 42.06l.03.02c5.19 13.56 11.62 26.35 19.31 38.41zm-118.82-233.55l-.03-.01c12.45-32.44 31.12-61.7 55.95-87.67l.06-.06c40.31-41.45 97.6-67.19 158.06-77.44 63.74-10.82 131.21-4.45 186.12 18.77h.05c15.51 6.66 30.33 14.91 44.41 24.71 14 9.73 27.31 21.06 39.92 33.96 12.63 13.05 23.66 26.86 33.1 41.43 9.46 14.6 17.32 30 23.56 46.17l.02.03c6.21 16.2 10.93 33.28 14.07 51.13 3.1 17.67 4.67 36.15 4.67 55.4 0 19.15-1.57 37.63-4.68 55.36-3.13 17.89-7.85 35.05-14.06 51.39h-.02a254.906 254.906 0 01-23.6 46.57c-9.41 14.62-20.45 28.48-33.06 41.45-12.59 12.95-25.94 24.31-40.01 34.03-14.11 9.74-28.93 17.84-44.4 24.25-54.94 22.96-122.73 29.41-186.72 18.62-60.26-10.14-117.34-35.6-157.43-76.9l-.03-.03c-12.5-13.04-23.36-26.87-32.62-41.46-9.27-14.63-17-30.07-23.21-46.27l.01-.01c-6.28-16.26-11-33.32-14.12-51.14-3.11-17.69-4.66-36.32-4.66-55.86h-.04c0-38.54 6.24-74.02 18.69-106.42zm869.01 141.86l.03 241.32c-34.27-.15-68.56-.04-102.83-.04V40.53h289.4v.03c16.82.04 32.44 1.51 46.75 4.37 14.58 2.92 28.01 7.31 40.18 13.09l.05.02c12.1 5.88 22.88 12.9 32.29 21.11 9.43 8.23 17.49 17.68 24.13 28.4 6.6 10.68 11.54 22.33 14.81 34.89 3.24 12.4 4.87 25.76 4.94 40v.06c-.07 12.84-1.39 24.96-3.98 36.3-2.63 11.47-6.57 22.21-11.85 32.17h-.01c-5.25 10.14-11.69 19.31-19.3 27.5-7.56 8.15-16.34 15.37-26.25 21.66h.01c-9.99 6.4-21.07 11.62-33.18 15.62-8.71 2.87-17.99 5.16-27.8 6.83l162.26 234.17 7.6 10.96h-56.7l-2.08-2.98-165.81-238.3h-172.66zm183.7-240.45h-183.7v194.97h183.7c12.72 0 24.35-.99 34.95-2.91 10.86-1.95 20.87-4.91 30.01-8.74v.01c8.63-3.79 16.29-8.43 22.93-13.91h.02a79.785 79.785 0 0016.71-18.91v.01c4.56-7.2 8.02-15.24 10.32-24.07 2.32-8.88 3.5-18.67 3.5-29.33 0-10.31-1.18-19.82-3.49-28.5-2.31-8.67-5.77-16.59-10.32-23.73-4.53-7.1-10.11-13.39-16.68-18.85-6.64-5.52-14.36-10.24-23.1-14.16-8.91-3.88-18.71-6.87-29.4-8.85-10.75-2.01-22.56-3.03-35.45-3.03zm-1199.11 0h-148.79v481.77h-104.54V85.98h-155.57V40.53h415.89v45.45zm2056.06 331.7l-66.24 145.92-1.89 4.15h-51.43l4.5-9.91 233.19-513.17 1.89-4.14h97.33l1.88 4.14 231.69 513.17 4.45 9.87h-107.43l-1.86-4.11-66.37-145.92h-279.71zm260.88-43.44l-120.98-266.18-121.88 266.18h242.86zM4673.34 40.53v527.22h102.85V40.53z"/></symbol><symbol viewBox="0 0 5571.7 553.5" shape-rendering="geometricPrecision" text-rendering="geometricPrecision" image-rendering="optimizeQuality" fill-rule="evenodd" clip-rule="evenodd" id="icons--logo-b" xmlns="http://www.w3.org/2000/svg"><path d="M72.43 38.75c70.19 0 159.11 6.28 159.11 158.39v245.12c0 28.43 7.75 116.01 73.91 123.96H203.21c-70.19 0-159.11-6.28-159.11-158.39v-272.6c0-70.94-27.72-96.48-61.61-96.48h89.94zm428.83 0c70.18 0 161.43 6.28 217.54 158.39 44.43 120.41 56.15 152.18 100.57 272.6 26.17 70.94 63.32 96.48 97.2 96.48h-89.94c-70.19 0-161.43-6.28-217.55-158.39-44.42-120.41-56.14-152.19-100.57-272.6-26.16-70.94-63.31-96.48-97.2-96.48h89.95zm-72.73 527.47c66.56 0 120.54-53.98 120.54-120.54s-53.98-120.54-120.54-120.54-120.54 53.98-120.54 120.54 53.98 120.54 120.54 120.54z" fill="#E3B196"/><path d="M1510.93 48.88l-232.16 517.34h-96.63l-232-517.34-4.42-9.85h109.56l1.86 4.14 202.61 451.46 201.82-451.46 1.86-4.18h51.93zM1751.8 39v527.22h102.86V38.99zm693.7 45.45h-148.53v481.77h-69.12v-.03h-35.6V84.45h-155.48V38.99h415.72v45.46zm862.49 332.14c7.7 12.07 16.76 23.54 27.13 34.4 10.26 10.82 21.13 20.29 32.58 28.37 11.44 8.07 23.47 14.77 36.05 20.13 12.56 5.34 25.78 9.39 39.64 12.11 13.86 2.7 28.42 4.07 43.68 4.07 15.05 0 29.49-1.36 43.25-4.05 13.88-2.71 27.16-6.76 39.79-12.13a193.333 193.333 0 0036.03-20.13c11.44-8.08 22.28-17.53 32.49-28.35l.06-.05c10.38-10.85 19.44-22.3 27.15-34.37 7.75-12.11 14.2-24.91 19.39-38.4v-.03c5.13-13.26 8.96-27.29 11.5-42.06 2.55-14.76 3.81-30.31 3.81-46.63 0-16.31-1.26-31.9-3.81-46.72-2.53-14.81-6.37-28.96-11.52-42.42a214.67 214.67 0 00-19.37-38.03c-7.77-12.11-16.83-23.58-27.15-34.38l-.03-.03c-10.26-10.85-21.17-20.41-32.72-28.6-11.35-8.05-23.29-14.76-35.8-20.04-12.6-5.31-25.83-9.33-39.71-12-13.79-2.66-28.26-4-43.36-4-15.28 0-29.86 1.35-43.7 4-13.89 2.67-27.11 6.69-39.66 12-12.5 5.28-24.47 12.01-35.85 20.06-11.48 8.14-22.41 17.71-32.74 28.61-10.34 10.84-19.39 22.32-27.13 34.38a214.834 214.834 0 00-19.34 38.06h-.01c-5.13 13.38-8.97 27.52-11.52 42.39-2.53 14.82-3.77 30.41-3.77 46.72 0 16.32 1.24 31.87 3.77 46.63 2.54 14.77 6.38 28.8 11.53 42.06l.03.03c5.19 13.55 11.62 26.35 19.31 38.4zm-118.83-233.56l-.02-.01c12.44-32.43 31.12-61.69 55.95-87.67l.06-.06c40.31-41.45 97.6-67.18 158.06-77.43 63.74-10.82 131.21-4.46 186.11 18.77h.05c15.51 6.66 30.33 14.9 44.41 24.7 14.01 9.73 27.32 21.07 39.92 33.96 12.64 13.05 23.67 26.87 33.11 41.44 9.46 14.59 17.32 30 23.56 46.16l.02.03c6.21 16.2 10.92 33.28 14.06 51.13 3.1 17.69 4.68 36.17 4.68 55.42 0 19.14-1.58 37.62-4.69 55.35-3.13 17.89-7.84 35.06-14.05 51.39h-.02a255.037 255.037 0 01-23.61 46.58c-9.41 14.62-20.45 28.47-33.06 41.44-12.58 12.95-25.93 24.32-40 34.03-14.12 9.75-28.94 17.85-44.4 24.25-54.95 22.97-122.73 29.41-186.73 18.62-60.26-10.13-117.34-35.6-157.42-76.9l-.03-.03c-12.5-13.03-23.37-26.87-32.62-41.46-9.27-14.63-17-30.07-23.22-46.27l.02-.01c-6.28-16.26-11-33.32-14.12-51.13-3.11-17.69-4.66-36.33-4.66-55.86h-.04c0-38.55 6.24-74.04 18.68-106.44zm869.01 141.88l.03 241.31c-34.27-.15-68.56-.03-102.83-.03V38.99h289.4v.04c16.82.03 32.44 1.51 46.75 4.37 14.58 2.92 28.01 7.3 40.18 13.08l.05.03c12.1 5.87 22.88 12.89 32.29 21.1 9.43 8.23 17.5 17.68 24.13 28.4 6.6 10.69 11.54 22.33 14.81 34.89 3.24 12.4 4.87 25.76 4.94 40v.06c-.07 12.84-1.39 24.96-3.98 36.3-2.63 11.47-6.57 22.21-11.85 32.18h-.01c-5.25 10.14-11.69 19.31-19.29 27.5-7.57 8.16-16.35 15.38-26.26 21.66l.01.01c-9.99 6.4-21.07 11.61-33.18 15.62-8.71 2.87-17.99 5.15-27.8 6.82l162.26 234.17 7.6 10.97h-56.7l-2.08-2.99-165.81-238.29h-172.66zm183.7-240.46h-183.7v194.98h183.7c12.72 0 24.35-1 34.95-2.91 10.87-1.96 20.87-4.92 30.01-8.75v.01c8.63-3.79 16.3-8.43 22.93-13.91h.02a79.785 79.785 0 0016.71-18.91l.01.01c4.56-7.2 8.01-15.25 10.31-24.08 2.32-8.87 3.5-18.66 3.5-29.32 0-10.32-1.18-19.83-3.49-28.51-2.31-8.67-5.76-16.59-10.32-23.72-4.53-7.11-10.11-13.4-16.67-18.86-6.64-5.51-14.37-10.24-23.11-14.15-8.91-3.89-18.71-6.88-29.4-8.86-10.75-2-22.56-3.02-35.45-3.02zm-1199.1 0h-148.79v481.77h-104.54V84.45h-155.57V38.99h415.89v45.46zm2056.05 331.7l-66.25 145.92-1.88 4.15h-51.44l4.51-9.91 233.19-513.17 1.89-4.15h97.33l1.88 4.15 231.68 513.17 4.46 9.88h-107.43l-1.86-4.12-66.38-145.92h-279.7zm260.87-43.44l-120.98-266.19-121.87 266.19h242.85zM4674.53 39v527.22h102.85V38.99z" fill="#00505D"/></symbol><symbol viewBox="0 0 934.1 553.5" shape-rendering="geometricPrecision" text-rendering="geometricPrecision" image-rendering="optimizeQuality" fill-rule="evenodd" clip-rule="evenodd" id="icons--logo-sm" xmlns="http://www.w3.org/2000/svg"><path fill="#E3B196" d="M80.8 27.72c70.19 0 159.11 6.28 159.11 158.39v245.12c0 28.43 7.75 116.01 73.91 123.96H211.58c-70.19 0-159.11-6.28-159.11-158.39V124.2c0-70.94-27.72-96.48-61.61-96.48H80.8z"/><path class="pfil0" d="M509.63 27.72c70.18 0 161.43 6.28 217.54 158.39 44.43 120.41 56.15 152.18 100.57 272.6 26.17 70.94 63.32 96.48 97.2 96.48H835c-70.19 0-161.43-6.28-217.55-158.39-44.42-120.41-56.14-152.19-100.57-272.6-26.16-70.94-63.31-96.48-97.2-96.48h89.95z"/><path fill="#E3B196" d="M436.9 555.19c66.56 0 120.54-53.98 120.54-120.54S503.46 314.11 436.9 314.11s-120.54 53.98-120.54 120.54 53.98 120.54 120.54 120.54z"/></symbol><symbol viewBox="0 0 250 250" id="icons--map" xmlns="http://www.w3.org/2000/svg"><path fill="#00505D" d="M95.4 178.3c-12.6-19.8-24.6-38.6-36.6-57.4C28.9 74.2 53.6 14 107.9 1.8c44.7-10.1 89.8 23.5 93.4 69.2 1.5 19.3-3.5 36.5-13.8 52.5-10.7 16.5-21.2 33.1-31.7 49.7-.9 1.5-1.8 3-3.1 5.3 12.9 0 25 .2 37.1-.1 5.2-.1 8.6 1.4 11.8 5.6 14.5 18.7 29.4 37 43.9 55.7 1.5 1.9 2.7 5.4 1.9 7.4-.6 1.6-4.3 2.8-6.7 2.8-78 .1-155.9.1-233.9 0-2.3 0-5.7-1.2-6.6-2.9-.8-1.6.4-5.1 1.8-6.9 15-19.2 30.2-38.1 45.2-57.2 2.5-3.2 5.4-4.4 9.4-4.4 12.7 0 25.3-.2 38.8-.2zm28.4 26.7c1-1.4 1.5-2 1.9-2.7 17.9-28.2 35.8-56.5 53.9-84.6 7.7-12.1 12.5-25 12.4-39.4-.2-43-39.2-75-81.3-66.9-45.2 8.6-68.9 59.9-46.1 99.8 6.5 11.4 13.7 22.4 20.8 33.5 12.6 19.9 25.4 39.8 38.4 60.3zm67.7 34.9c-5.6-7.1-10.5-13.5-15.7-19.7-.7-.9-2.7-1.1-4.1-1.1-32-.1-63.9-.1-95.9 0-1.2 0-3 .1-3.7.9-5.2 6.3-10.2 12.8-15.9 19.9h135.3zM60.2 219.1H33c-.9 0-2.2.2-2.7.9-5.2 6.3-10.2 12.8-16 20.1 10 0 18.6.1 27.2-.1 1.1 0 2.6-.7 3.3-1.6 5-6 9.7-12.2 15.4-19.3zM233.5 240c-5.7-7.2-10.7-13.6-15.8-19.9-.4-.5-1.1-1-1.6-1-9.2-.1-18.4 0-28.4 0 5.4 6.9 10 12.9 14.9 18.8 1 1.2 3 2 4.6 2 8.4.2 16.7.1 26.3.1zm-70.4-51.8c5.7 7.1 10.5 13.3 15.4 19.3.6.7 1.5 1.5 2.3 1.5 9.2.1 18.3.1 28.2.1-5.5-7-10.2-13.1-15.1-19.1-.7-.9-2.1-1.7-3.2-1.7-8.8-.1-17.5-.1-27.6-.1zm-124.4 21c9.9 0 18.8 0 27.7-.1.9 0 2-.5 2.5-1.2 5.1-6.3 10-12.6 15.6-19.7-9.9 0-18.8 0-27.7.1-.9 0-2 .5-2.5 1.2-5 6.2-10 12.6-15.6 19.7zm42.2-.4h33.8c-4.2-6.6-7.9-12.6-11.8-18.6-2-3.1-4.8-2.9-6.9-.4-5.1 6-9.9 12.3-15.1 19zm86.3.3c-5.4-6.9-10-13.2-15.2-19-1.1-1.2-5.5-1.6-6.1-.7-4.5 6.2-8.5 12.8-12.9 19.7h34.2z"/><path fill="#E3B196" d="M172.4 77.8c.5 26-21.1 48.8-46.5 49.2-27.9.4-50.3-20.9-50.7-48.2-.4-26.7 21.1-49 47.9-49.5 26.8-.4 48.8 21.2 49.3 48.5zm-87.3 0c0 21.9 17 39.3 38.6 39.4 21 .1 38.8-17.2 39.1-38 .4-21.7-17.3-39.9-38.8-39.9-21.3-.1-38.9 17.3-38.9 38.5zM141 143c5.3.4 6.9 3.8 4.6 7.9-3.4 6.1-7.1 12-10.7 18-2.1 3.6-4.3 7.1-6.4 10.7-1.6 2.8-4 3.7-6.8 2.1-3.1-1.7-3.2-4.4-1.5-7.3 5.7-9.6 11.4-19.2 17.2-28.7.9-1.4 2.9-2.2 3.6-2.7zm19.2-10.9c-3.4 2.1-5.2 4-7.2 4.3-3.1.3-5.3-2.1-4.5-5 .5-1.8 3.2-3.9 4.9-4 1.7-.1 3.6 2.3 6.8 4.7z"/></symbol><symbol viewBox="0 0 250 250" id="icons--meh" xmlns="http://www.w3.org/2000/svg"><path fill="#E3B196" d="M58.3 86.3c-1.7-1.4-3.6-3-5.5-4.7-3.3-3.1-3.4-6.2-.1-9.4 6.4-6.3 12.7-12.7 19.1-19 3.9-3.8 5.7-3.7 9.7.2 1.6 1.6 2.9 3.6 4.1 5.1 6.4-2.6 11.9-4.6 17.2-6.9 1-.5 2-1.9 2.2-3.1.4-1.8.2-3.6.1-5.5-.2-4.1 1.7-6.3 5.9-6.3h28.5c3.9 0 5.8 2 5.7 5.9 0 .3.1.7 0 1-1.1 5.5.9 8.8 6.7 9.6.8.1 1.7.3 2.4.8 6 4 11.3 5.1 16.3-1.9.7-1 5.4-.9 6.8.4 7.3 6.6 14.1 13.7 21 20.7 2.4 2.4 2.4 5.1 0 7.5-2 2-4.2 3.8-6.2 5.6 2.5 6.2 4.4 11.8 7 17.1.6 1.2 3.1 1.9 4.8 2 9.6.3 10.1.6 10.1 10.3v21.5c0 7.3-1.1 8.5-8.2 8.5h-5.7c-2.6 6.3-5.1 12.3-8.2 19.5 1.4 1.1 3.6 2.4 5.3 4.2 3.9 3.9 3.9 5.8.1 9.7-6.3 6.4-12.7 12.7-19 19.1-3.3 3.3-6.3 3.3-9.4-.1-1.7-1.9-3.2-3.8-4.4-5.3-6.4 2.5-11.9 4.5-17.1 7-1.1.5-2.2 2.7-2.1 4.1.6 12.5-2.8 10.7-10.9 10.7-7.7 0-15.3-.1-23 0-4.4 0-6.5-1.9-6.2-6.4.1-.8-.1-1.7 0-2.5.7-4.2-1-6.1-5.1-7.3-4.4-1.2-8.6-3.5-14.6-6-1.1 1.5-2.4 3.7-4.2 5.7-2.8 3.2-5.9 3.4-9 .3l-19.8-19.8c-2.8-2.9-3.1-5.7 0-8.7 1-.9 1.8-2 2.8-2.8 2.9-2 2.8-4.1 1.1-7.1-1.9-3.3-3.3-6.9-4.3-10.6-.9-3.1-2.5-4-5.7-3.9-9.7.2-10.1-.4-10.1-10V113c0-5.9 1.6-8 7.3-7.4 5.8.6 8.3-1.5 9.6-7 .8-4 3-7.7 5-12.3zM115 46.8v3.9c-.1 7.5-.6 7.8-7.7 9.9-4.3 1.3-8.5 2.9-12.5 4.8-9.7 4.7-9.7 4.8-17.5-2.4-.2-.2-.6-.2-.9-.3l1 1c-5 4.5-10.1 8.9-15.6 13.8 1.2 1 2.2 1.6 3.1 2.4 5.6 5.5 5.4 5.5 1.8 12.2-2 3.6-4.2 7.4-5 11.4-1.8 8.4-5 14.3-15.3 11.2v21c1.6 0 3.1.1 4.5 0 5.4-.6 8.2 1.7 9.4 7.1 1 4.6 3 9.2 5.1 13.5 4.6 9.4 4.7 9.4-2.5 17.1-.2.2-.2.5-.5 1.1 4.7 4.6 9.4 9.2 14.3 14 1.1-1 2.3-2 3.2-3.1 3.4-4.2 6.8-4.9 11.6-1.8 4 2.6 8.6 4.4 13.1 5.9 10 3.5 10 3.3 10.6 13.8 0 .3.3.5.5.9h19.6c0-1.7.1-3.2 0-4.6-.5-5.2 1.6-7.9 6.8-9.1 4.6-1.1 9.4-2.7 13.5-5.1 10.4-5.9 9.1-5.6 17.5 2.5.2.2.6.2.3.1 5-4.7 9.9-9.3 15.3-14.4-1.5-1.2-2.7-2.1-3.9-3-4.5-3.3-4.6-7-1.6-11.6 2.5-3.9 4.5-8.2 5.8-12.7 3.3-11.3 1.8-10.5 14.1-10.9.3 0 .5-.3.7-.5v-20H200c-7.7-.1-7.8-.2-10-7.5-1.3-4.3-2.9-8.5-4.9-12.5-4.7-9.7-4.8-9.7 2.4-17.5.2-.2.1-.6.2-1.1-4.7-4.5-9.5-9.1-15.1-14.4-.8 1.1-1.7 2.4-2.7 3.8-3.1 4-6.4 4.4-10.8 1.6-3.7-2.4-7.9-4.7-12.1-5.6-8.2-1.9-14.4-4.8-11.4-15.1-7.1.2-13.5.2-20.6.2z"/><path fill="#00505D" d="M125.5 0c7.8.9 14.9 1.7 22 2.6 3.5.4 6.6 1.6 6 5.7-.6 4.4-4.1 4.6-7.7 4-32.7-5.7-62.5 1.3-89.2 20.8C6.3 70-4.9 142.5 31.9 192.9c2 2.7 3.6 2.8 6.6 1.9 11.1-3.3 22.7 3.2 25.6 14 2.9 11-3.3 22.2-13.9 25.3-11 3.2-22.7-3-25.2-14.2-1-4.3-.1-9.2.9-13.6.6-2.5.9-4.1-.6-6.3C.9 167-6.1 130.4 5.4 91.6c14.5-48.9 47.8-78.8 98-89C110.8 1 118.5.8 125.5 0zM44.2 203.6c-5.9 0-10.5 4.8-10.4 10.9.1 5.8 4.7 10.4 10.4 10.5 5.9 0 10.8-4.8 10.8-10.7 0-5.7-5-10.7-10.8-10.7zm81 47.4c-7.3-.8-14.5-1.6-21.8-2.5-3.6-.4-6.9-1.4-6.2-6 .7-4.6 4.2-4.4 7.8-3.8 27.5 4.8 53.5.6 77.5-13.6 33-19.6 52.2-48.6 56.9-86.9 3.5-29.2-3.6-55.7-20.5-79.8-1.9-2.7-3.3-3.5-6.8-2.4-11.1 3.5-22.5-2.9-25.6-13.8-3.1-10.8 3.1-22.2 13.7-25.3 10.8-3.2 22.6 2.7 25.2 13.6 1.1 4.5-.5 9.7-.6 14.6-.1 1.9-.3 4.3.7 5.7 23.4 33.2 31.2 69.6 19.6 108.5-14.4 48.7-47.6 78.4-97.4 89.1-4.4.9-8.9 1.4-13.4 1.7-3 .3-6 0-9 0-.1.4-.1.7-.1.9zm91.4-214.4c0-6.1-4.6-10.6-10.7-10.5-6 .1-10.6 4.9-10.5 10.9.1 5.6 5 10.3 10.6 10.4 5.8.1 10.6-4.7 10.6-10.8zM169.7 21c-2.1-3.3-4.4-5.4-4.2-7.1.3-1.7 3.1-4.2 4.7-4.2 1.6.1 4.2 2.8 4.3 4.6.1 1.7-2.4 3.5-4.8 6.7zM79.4 242.5c-1.3-1.8-3.8-3.9-3.4-5.4.4-1.9 3.1-3.4 4.8-5 1.5 1.7 4 3.3 4.2 5.1.1 1.7-2.2 3.6-3.5 5.4-.7-.1-1.4-.1-2.1-.1z"/><path fill="#E3B196" d="M125 165.7c-22.7 0-40-17.7-40-40.8 0-21.8 18.2-39.6 40.4-39.5 22.2.1 40 18.2 39.9 40.7-.1 21.9-18.1 39.6-40.3 39.6zm.2-9.8c16.8 0 30.5-13.8 30.3-30.6-.2-16.7-13.5-30-30.2-30.2-16.9-.1-30.5 13.4-30.6 30.3.1 16.8 13.7 30.5 30.5 30.5z"/></symbol><symbol viewBox="0 0 250 250" id="icons--money" xmlns="http://www.w3.org/2000/svg"><path fill="#00505D" d="M32.5 70.2C38.3 48.5 44 27.5 49.6 6.5 51.4 0 52.7-.8 59.2 1c20.7 5.5 41.5 11 62.1 16.8 4 1.1 6.7.6 9.5-2.6 3.5-4.2 7.7-7.9 11.6-11.7 4.6-4.5 6.2-4.5 10.8 0C174.4 24.7 195.6 46 216.9 67c1.8 1.7 4.7 3 7.2 3.2 15.8.9 25.6 10.8 25.7 26.7.1 42.3.1 84.6 0 127 0 16-10.3 26.3-26.2 26.3H26.2c-15.6 0-26-10.4-26-26.1-.2-44-.2-87.8-.2-131.6 0-13.3 8.4-21.9 21.7-22.3 3.5-.1 7 0 10.8 0zm-8.8 169.6v-53.3c0-3.1.9-5.4 4.2-5.7 3.5-.3 5.1 2 5.4 5.2.2 1.5.1 3 .1 4.5v49.7H197c1.3 0 2.7 0 4-.2 5.8-.9 10.6-4.1 11.5-9.7 1.3-7.9 1.1-16 1.6-24.3h-56.6c-11.7 0-23.3.2-35-.2-12.8-.5-23.4-8.9-27.2-20.8-3.9-12-.1-24.5 9.8-32.8 10.4-8.7 22.7-7.1 34.8-6.3 1.2.1 3.4 3.3 3.1 4.7-.4 1.7-2.6 4-4.4 4.3-3.9.7-8-.1-12 .4-4.1.4-8.4.8-12 2.5-8.5 3.9-12.6 13.5-10.5 22.6 2.1 9.2 10 15.5 20 15.7 14 .2 28 .1 42 .1h59c8 0 14.1-4.4 14.5-11.5.6-10.7.2-21.4.2-31.3-5.5.6-10.7 1.6-15.9 1.7-14.5.2-29 .1-43.5.1-3.5 0-6.6-.7-6.5-5 .1-4.3 3.3-4.8 6.7-4.8h33.3v-14.1c0-15.2-4.9-20.2-19.9-20.2H30.6c-6.7 0-13.4-.7-20.4-1.1v114.6c-.3 8.9 4.8 14.6 13.5 15.2zm57.6-138.4c4.6 0 8 .2 11.4-.1.9-.1 2.2-1.3 2.6-2.3 3.9-10.1 11.3-15.7 22-15.8 10.7-.1 18 5.7 22.1 15.6.5 1.2 2.2 2.5 3.4 2.5 6 .3 12 .2 18 0 1.5-.1 3.1-1 4.3-2 3.9-3.6 7.7-7.3 11.3-11.3 1-1.1 1.5-3.7 1-5.1-1.9-5-1.8-9.6-.1-14.6.5-1.5-.1-4.2-1.2-5.4-5.1-5.5-10.4-10.8-15.9-15.9-1.1-1-3.6-1.4-5-.9-4.9 1.8-9.7 2.2-14.5-.1-2.4-1.1-3.8-.7-5.6 1.1-16.8 17-33.8 34-50.7 51-.8.8-1.5 1.6-3.1 3.3zm-21.8-.1c4.4.9 8 .2 11.5-3.4 20-20.5 40.4-40.6 60.5-61 3.3-3.4 6.4-4.4 10.4-1.3 3.9 3 8 2.9 11.9-.1 3.5-2.7 6.5-2.3 9.6.9 7.8 8 15.7 15.9 23.7 23.7 3 2.9 3.6 5.7 1 9.2-3.3 4.2-3.3 8.6 0 12.8 2.7 3.5 2.2 6.4-1 9.1-3.3 2.9-6.5 5.9-9.8 8.9.3.6.7 1.3 1 1.9 2.9-.6 6.7-.2 8.5-1.9 8.5-7.7 16.4-16 24-23.7L148 13.6c-29.1 28.9-58.8 58.3-88.5 87.7zm164 43.5c9.9 1.8 16.2-2.6 16.4-11.3.2-13 .2-25.9 0-38.9-.1-8-5.8-13.8-13.7-14.4-1.9-.1-4.5-.3-5.7.7-7 6.5-13.6 13.4-20.6 20.5 15.7 2.8 23.3 11.7 23.6 27.2.1 5.4 0 10.8 0 16.2zm-189-43.9c4.4 1.6 7 .9 7.5-3.7.1-1.1.6-2.2.9-3.4 4.8-17.8 9.5-35.7 14.3-53.5 1-3.6 2.2-6.7 7-5.9 5.7.9 9.4-1 11.6-6.3 1.7-4.2 4.4-5 8.3-3.9 8 2.2 16.1 4.2 24 6.6 4.4 1.4 7.6.9 9.8-4-19.8-5.3-39.4-10.6-59.4-15.9-8.1 30.3-16 60.1-24 90zm19.4-10.5l50.5-50.5c-5.7-1.5-11.9-3.4-18.2-4.8-1.2-.3-3.2.6-4.1 1.6-3.5 4.1-7.7 6.7-13 7.5-1.3.2-3.1 1.5-3.4 2.7-4.1 14.5-8 29.1-11.8 43.5zm164.7 149.8c2.8 0 4.6.1 6.4 0 8.3-.3 14.4-5.7 14.8-13.8.3-7.9.1-15.9.1-23.6-5.4 1.4-10.6 2.8-16.1 4.2-1.3 10.6 2 22.2-5.2 33.2zM29.9 80.2c-3.9 0-7.2-.3-10.5.1-5.9.7-9.9 5.7-9.5 11.3.4 5.5 4.9 9.6 10.6 10 2.4.1 3.9-.3 4.6-3.2 1.3-5.9 3-11.8 4.8-18.2zm99.4 21.2c-2.3-6.1-6.1-8.5-12.3-8.4-6 .1-9.5 2.6-11.4 8.4h23.7z"/><path fill="#00505D" d="M123.8 188.3c-7 0-12.7-5.5-12.7-12.5 0-6.9 5.7-12.7 12.6-12.7 6.9 0 12.7 5.8 12.8 12.6 0 6.9-5.7 12.6-12.7 12.6zm3.8-12.8c-1.8-1.2-3-2.5-4-2.4-1 .1-1.9 1.6-2.8 2.5 1 1 1.9 2.5 3 2.8.9.2 2-1.5 3.8-2.9zm32.7-30.7c1.2 1.8 3.6 3.7 3.4 5.4-.2 1.8-2.7 3.3-4.2 4.9-1.6-1.5-4.2-2.9-4.5-4.7-.3-1.7 1.9-3.7 3.1-5.6h2.2zM27.2 171.7c-1.1-1.9-3.4-3.9-3.1-5.5.3-1.8 2.9-3.2 4.4-4.8 1.5 1.7 4.1 3.2 4.3 5 .2 1.7-2.1 3.6-3.4 5.4-.8 0-1.5-.1-2.2-.1z"/></symbol><symbol viewBox="0 0 576 512" id="icons--search-solid" xmlns="http://www.w3.org/2000/svg"><path fill-rule="evenodd" clip-rule="evenodd" d="M256.31 235.5c20.26-24.85 32.4-56.58 32.4-91.14C288.71 64.63 224.08 0 144.36 0 64.63 0 0 64.63 0 144.36c0 123.23 143.72 187.8 236.26 111.33 31.06 33.33 64.19 65.49 96.23 97.96 3.6 3.65 9.52 3.69 13.17.09l7.28-7.18c3.65-3.6 3.69-9.52.09-13.17-32.23-32.66-64.43-65.33-96.72-97.89zM144.36 21.73c67.31 0 121.87 54.9 121.87 122.63 0 161.3-243.75 161.3-243.75 0 0-67.73 54.57-122.63 121.88-122.63z"/></symbol><symbol viewBox="0 0 450 255" id="icons--shi" xmlns="http://www.w3.org/2000/svg"><path fill="#00505D" d="M46.9 185.7v-48.9H22.2c-1.7 0-4 .1-4.9-.9-1.4-1.6-2.5-4-2.5-6.1.1-2.6 2.5-3.9 5.1-3.9 6.5 0 13 0 19.5-.1h7.4V98.4H6.9c-4.6-.2-7-2-6.9-5.6.1-3.4 2.6-5.3 7.1-5.3 32.1 0 2.2.1 34.3.1h5.4V54.7H20.5c-3.7 0-5.9-2-6-5.2-.1-3.2 2.3-5.6 6.1-5.6 7.5-.1 15 0 22.5 0 1.2 0 2.4-.1 4-.2V18.8c0-3.9-.1-7.7 0-11.6 0-5.3 1.8-7 7.4-7h45.7C149.8.1 199.4 0 249 0h19.1c6.9 0 8.5 1.5 8.5 8.3V44h4.3c14.4 0 28.7.1 43.1 0 3.2 0 5.4 1 7.2 3.6C342.7 64 354.4 80.4 366 96.8c3.8 5.3 7.5 10.6 11.4 15.8.8 1.1 2.5 2 3.9 2.1 28.8 2.3 48.6 23.9 48.2 52.9-.1 6.1 0 12.2 0 18.3 7.6 2.2 13.2 6 15.5 13.6 3.6 12.1-5.1 24.4-17.8 24.7-7.9.2-15.7.1-23.6 0-2.2 0-3.2.6-4.1 2.7-6.2 14.7-17.3 23.2-33.4 24.4-16.2 1.2-31.6-8.7-37.6-23.8-.4-1-.8-2.1-1.3-3.3h-25.5c-45.6 0-91.2 0-136.8-.1-3.2 0-4.7.8-6 3.9-5.8 13.9-19.7 23.8-36 23.4-15.2-.4-28.8-9.4-34.6-23.8-1.1-2.7-2.4-3.5-5.1-3.4-10.5.2-21 0-31.5.1-11.3 0-18.9-6.2-20.7-17-1.5-9.3 4.5-17.7 14.8-20.8.3-.3.6-.5 1.1-.8zm11.6-87.2v27.3h7c22.5 0 45 0 67.5.1 1.7 0 4.2.3 5.1 1.5 1.2 1.5 1.8 4.1 1.4 6-.6 3.1-3.6 3.4-6.3 3.4-16.7 0-33.5-.1-50.2-.1H58.6v49.2c12.7 0 25.2 0 37.6-.1.7 0 1.5-.7 2.2-1.2 16.5-13.1 34.1-13.1 50.7-.1 1 .8 2.4 1.3 3.6 1.3 36.5.1 73 .1 109.5.1 1.1 0 2.1-.1 3.2-.2V11.5H58.6V44h90.3c5.4 0 7.8 1.7 7.7 5.4-.1 3.8-2.4 5.4-7.8 5.4h-2.2c-27 0-54-.1-81-.1h-7v32.9h31c4.7 0 7 1.8 6.9 5.5-.1 3.6-2.4 5.4-7 5.5-1.5 0-3-.1-4.5-.1H58.5zm359.8 87.3c0-6.5-.2-12.6 0-18.7 1-22.4-17.2-42.2-41-41.4-25.6.8-51.2.2-76.8.2-5.8 0-7.7-1.9-7.7-7.6 0-13.4.1-26.7.1-40.1 0-4.3 1.6-6.5 4.9-6.6 3.7-.2 5.9 2.1 6 6.5.1 3.5-.1 7-.1 10.5v25.9h61.2c-.6-.9-.9-1.4-1.2-1.9-13.2-18.6-26.4-37.3-39.8-55.8-.8-1.1-2.8-2-4.3-2-11-.1-22 0-33 0h-9.9v131.1h45.9c4.2 0 8.5.1 12.7-.2 1.2-.1 2.5-.9 3.5-1.7 15.2-12.4 35.3-12.2 50.1.4.9.7 2.2 1.4 3.3 1.4 8.6.1 17.1 0 26.1 0zm-255.7 27h162.5c1.2-5.4 2.3-10.5 3.5-15.8H158.9c1.2 5.2 2.4 10.3 3.7 15.8zm201.5-26.9c-15.7.1-27.7 12.5-27.5 28.1.2 14 13.3 26.7 27.3 26.5 15.4-.2 27.5-12.9 27.3-28.5-.2-14.1-12.8-26.2-27.1-26.1zm-267.6 27c.3 15.9 12.2 27.8 27.5 27.5 15.6-.3 27-12.5 26.7-28.7-.2-14.2-13.2-26.2-28.1-25.9-14.2.3-26.4 12.9-26.1 27.1zm-8.1-16c-13.1 0-26.2-.1-39.3.1-4.3.1-7.3 3.7-7.3 8 0 4.2 3.5 7.9 7.8 8 7.4.1 14.7 0 22.1 0h12.8c1.4-5.7 2.6-10.7 3.9-16.1zm314 16.1h23.2c5.5 0 9.2-3.4 9.1-8.2 0-4.8-3.6-8-9.3-8h-26.8c.9 3 1.8 5.4 2.4 7.9.7 2.5 1 5.1 1.4 8.3z"/><path fill="#00505D" d="M380.1 213.2c-.2 9.6-7.5 16.5-17.1 16.3-8.3-.2-15.6-7.7-15.5-16.1.1-9.7 7.5-16.8 17.3-16.6 8.7.2 15.5 7.4 15.3 16.4zm-16.2 5.3c2.8-.1 5.3-2.8 5.3-5.6s-2.4-5.1-5.3-5.2c-2.9 0-5.8 2.9-5.6 5.8.2 2.7 2.9 5.1 5.6 5zm-240.3 10.9c-9.3 0-16.4-7-16.5-16.3-.1-8.8 7.6-16.5 16.5-16.5 8.8 0 16.4 7.4 16.5 16 0 9.6-7.1 16.8-16.5 16.8zm5.3-16.5c0-2.9-2.2-5.3-5.1-5.3-3-.1-5.5 2.5-5.4 5.4.1 2.9 2.3 5.2 5.2 5.3 3 .2 5.2-2.1 5.3-5.4z"/></symbol><symbol viewBox="0 0 450 415" id="icons--sov" xmlns="http://www.w3.org/2000/svg"><path fill="#00505D" d="M154.7 408.7c-7.5-3.3-10.4-9.1-9.8-17.2.4-5.4.1-10.9.1-17-3 0-5.7.1-8.4 0-8-.2-13.5-5-14.1-12.8-.4-5-.2-10.1.1-15.1.2-4.9 2.8-8.4 6.9-11 1.1-.7 1.9-2.4 2-3.7.2-5.3-.1-10.7.2-16 .1-2.7-.9-4-3.2-5.1-18.9-8.7-35-21.2-48-37.4-18.6-23.1-28.8-49.4-30.3-79.1-1.7-34.8 8.2-66 30.1-93.1 22.5-27.8 51.8-44.4 87.4-49.3 20.6-2.8 40.8-.9 60.6 5.9 2.7.9 5 1.4 7.8-.2 3.9-2.2 7.8-.8 11 2.1 2 1.8 3.9 3.7 5.6 5.7 1.5 1.6 2.8 2.3 5.1 1.3 2.4-1 2.8-2.4 2.7-4.6-.1-2.7-.1-5.3 0-8 .3-6.1 4.4-10.2 10.5-10.2 6.9-.1 13.8-.1 20.8 0 6.2.1 10.1 4.1 10.3 10.3.1 2.8.2 5.6 0 8.4-.2 2.3.8 3.2 2.8 4.1 2.1.9 3.4.6 4.9-1 1.9-2.1 3.8-4.1 5.9-5.9 4.7-4.1 9.9-4.2 14.3.1 5.3 5 10.5 10.2 15.4 15.6 3.6 3.9 3.4 9.4-.1 13.4-1.9 2.2-4 4.3-6.2 6.2-1.8 1.6-1.9 3-1.1 5.2.9 2.3 2.3 2.9 4.5 2.8 2.7-.2 5.3-.1 8 0 5.7.2 9.9 4.1 10.1 9.7.2 7.4.2 14.9 0 22.4-.2 5.6-4.5 9.5-10.2 9.6-2.5.1-5.1.2-7.6 0-2.4-.2-3.8.4-4.9 2.8-1.1 2.6-.1 3.9 1.5 5.4 2 1.8 3.8 3.7 5.6 5.7 3.7 4.1 3.9 9.7.2 13.7-5 5.4-10.1 10.6-15.5 15.5-2.2 2-5.5 2.7-9.2 4.4-.2 2.9-.5 6.8-.9 10.8-.6 5.4-2.9 7.8-6.9 7.3-3.7-.4-5.3-3.4-5-8.5.4-5.7.6-11.4.9-17.1.1-1.4-.3-2.8-.4-4.2-5.9.7-6.2 1.1-6.2 6.2 0 2.7.1 5.3-.1 8-.4 4.9-4.2 8.9-9 9-7.7.2-15.4.2-23.1 0-5.1-.1-8.9-4.4-9.3-9.7-.2-2.8-.1-5.6 0-8.4.1-2.1-.2-3.7-2.6-4.6-2.3-.9-3.6-.4-5.1 1.3-1.8 2-3.7 3.9-5.6 5.6-4.5 4-9.7 4.3-14 .3-5.6-5.2-10.9-10.6-16-16.1-3.3-3.6-3.1-9 0-12.8 1.5-1.8 3.1-3.7 5-5.1 3.7-2.7 3.8-5.7.8-9.3-3.3 0-6.9.1-10.5 0-6.1-.1-10.3-4.2-10.5-10.2-.1-7.1-.1-14.1 0-21.2.1-6.1 4.2-10.2 10.3-10.4 2.5-.1 5.1-.1 7.6 0 2.1.1 3.7 0 4.7-2.5.9-2.4.7-3.9-1.2-5.5-2.1-1.8-4.1-3.9-5.9-6-3.7-4.3-3.6-9.9.3-14.1 1.8-1.9 4-3.4 6-5.1-.2-.6-.4-1.2-.7-1.9-9.1-1.6-18.2-3.9-27.3-4.7-31.8-2.5-60.6 5.8-85.8 25.5-26.4 20.7-42.7 47.8-46.6 81.2-6.4 52.8 13.6 94.3 58.3 123.5 5.2 3.4 11 5.9 16.7 8.5 3.6 1.7 5.2 4.1 5.2 8.1-.1 7.7 0 15.4 0 23.3h7.9v-42.2c-9.4-2.2-11.2-4.5-11.2-14.3 0-3.9-.1-7.7 0-11.6.2-5.9 4.2-9.9 10.2-10 4.9-.1 9.8-.1 14.8 0 5.5.1 9.7 3.9 10 9.4.3 5.6.5 11.2 0 16.7-.6 6.4-5.1 9.2-11.4 9.6v42.3h18V284.6c0-4.5 2.2-7 5.9-7 3.6 0 5.9 2.6 6.1 6.9v48.9h11.9c.1-.9.3-1.9.3-2.9 0-13.3.1-26.6 0-39.9 0-2.1-.5-4.8-1.9-6.2-14.7-14.6-29.6-29.1-44.8-43.9.3-.1-.3.1-.8.5-4.9 3.1-9.2 3-13.4-.9-3.7-3.4-7.2-7.1-10.7-10.8-3.7-4-3.7-9.7 0-13.7 3.5-3.8 7.2-7.5 11-11 4.4-4 9.5-4.1 14-.1 4 3.5 7.7 7.3 11.3 11.3 4 4.5 3.3 9.4-2 15.6.9 1 1.8 2 2.8 3 13.4 13.5 26.8 27.1 40.3 40.5 4.4 4.4 6.5 9.4 6.4 15.7-.2 12.9-.1 25.8-.1 38.7v4.4h8.3v-66.4c-9.6-2.2-11.5-4.6-11.5-14.8 0-3.5-.1-6.9 0-10.4.2-6.7 4.1-10.7 10.7-10.9 4.8-.2 9.6-.1 14.4.1 6 .3 9.8 4.1 10.1 10.2.2 4.2.1 8.5.1 12.8 0 8.2-2.8 11.4-11.2 12.9v31.7c1.2-.5 2.2-.8 3.1-1.3 22.9-12.1 40.3-29.7 52.4-52.6.8-1.5 1.5-3.1 2.4-4.6 2-3.2 5.2-4.3 8.1-2.8 3 1.5 4.2 4.9 2.3 8.2-4.1 7.4-8.1 15-13 21.9-13.5 18.8-30.9 33.3-52 42.9-2.7 1.2-3.7 2.7-3.6 5.7.2 5.2-.1 10.4.2 15.6.1 1.3.9 3.1 2 3.7 5 3 7 7.5 7.2 13 .2 3.9.1 7.7 0 11.6-.3 8.8-5.9 14.2-14.7 14.5-2.5.1-5 0-8.1 0 0 6-.3 11.5.1 17 .6 8.1-2.2 13.9-9.9 17.1-20.4-.1-40.6-.1-60.9-.1zm85.4-230.8c5.9-7 11.6-12.8 22.4-8.2 10.8 4.5 9.8 13.1 9.8 21.7H290c-.5-9.1-.6-17.3 10-21.8 10.9-4.6 16.3 2 22.3 8.3 4.3-4.2 8.3-8.3 12.7-12.6-6.4-6-12.8-11.5-8.5-22.3 4.4-10.9 12.8-10.7 21.8-10.3v-17.9c-9.4.7-17.5.3-21.8-10.4-4.4-10.8 2.3-16.3 8.3-22.1-4.3-4.4-8.3-8.4-12.5-12.7-6 6.5-11.5 12.9-22.4 8.3-10.5-4.7-10.2-13-9.9-21.9h-17.8c.5 9.2.7 17.4-10.1 21.8-10.9 4.5-16.2-2.1-21.9-8.1-4.4 4.2-8.5 8.2-12.8 12.3 6.6 6.1 12.7 11.8 8.3 22.5-4.4 10.7-12.7 10.5-21.7 10.1v17.9c9.2-.5 17.4-.4 21.7 10.3 4.4 10.8-2 16.4-8.4 22.4 4.4 4.3 8.4 8.3 12.8 12.7zm-55 184.6h39.1c12 0 11.9 0 12-12 0-3.9-1.4-5-5.2-4.9-30.6.1-61.1.1-91.7 0-3.8 0-5.5 1.1-5.1 4.9.2 2.4.2 4.8 0 7.2-.4 3.9 1.4 5 5.1 4.9 15.3-.2 30.6-.1 45.8-.1zm-27.6 28.7c-.8 5.5-.8 5.5 4.1 5.5h47c5.1 0 5.4-.3 4-5.5h-55.1zm-.2-12.4H213v-4.1h-55.7v4.1zm-12.4-156.6c2.6 2.5 5.1 5 7.5 7.3 2.4-2.4 4.9-5 7.4-7.5-2.4-2.3-5-4.7-7.6-7.2-2.3 2.4-4.8 4.9-7.3 7.4zm82.3 21.1v11h10.7v-11h-10.7zm-64 24.3h-10.8v10.8h10.8v-10.8z"/><path fill="#00505D" d="M193.8 197.4v31.7c0 1.5.1 2.9 0 4.4-.3 4-2.8 6.4-6.3 6.2-3.4-.2-5.6-2.5-5.6-6.4-.1-10.2-.1-20.5-.1-30.7v-5.3c-1.1-.3-1.9-.5-2.8-.7-5.2-1-8.5-4.4-8.8-9.8-.3-5.2-.3-10.4 0-15.5.3-6.1 4.5-9.9 10.7-10 4.6-.1 9.3-.1 13.9 0 6.1.1 10.2 4 10.5 10.2.2 3.6.1 7.2.1 10.8 0 10.4-1.3 12.2-11.6 15.1zm-.7-12.8v-11.1h-10.8v11.1h10.8zm-60.3-36.9h6.8c6.3.1 10.5 4 10.8 10.4.2 5 .2 10.1-.1 15.1-.3 6-4.1 9.8-10.2 10.1-4.9.2-9.8.2-14.7 0-6-.3-9.9-4.2-10.1-10.2-.2-4.9-.2-9.8 0-14.7.2-6.8 4.4-10.6 11.2-10.7 2.1-.1 4.2 0 6.3 0zm-5.4 23.4h10.7v-11.2h-10.7v11.2zm15.3-51.6c0-2.8-.1-5.6 0-8.4.3-4.9 4-8.9 8.9-9.1 5.7-.3 11.4-.3 17.1 0 4.9.2 8.8 4.3 9 9.5.3 5.3.3 10.6 0 15.9-.2 5.8-4.5 9.8-10.4 9.9-4.8.1-9.6.1-14.3 0-6.1-.1-10.2-4.1-10.4-10.2-.1-2.6 0-5.1.1-7.6-.1 0-.1 0 0 0zm22.9-5.4h-10.7v11h10.7v-11zm16.3-99.9c0-2.8-.1-5.6 0-8.3.2-3.5 2.7-6 5.8-5.8 3.4.1 5.7 2.1 5.9 5.4.3 5.8.3 11.7.1 17.5-.1 3.4-3 5.8-6.1 5.7-3.1-.1-5.5-2.5-5.7-6-.1-2.9 0-5.7 0-8.5zM40.6 124.8c-.1 5.3-3.9 8.2-7.9 6.7-5.5-2-10.8-4.4-16-6.9-3-1.5-4-4.2-2.8-7.4 1.2-3 4.3-4.5 7.5-3.2 5.3 2 10.6 4.2 15.6 6.8 1.8.9 2.8 3.1 3.6 4zM7.2 165.5c5.2.6 10.6 1.2 15.9 2 3.5.5 5.6 3.2 5.3 6.3-.3 3.2-3.2 5.7-6.7 5.4-5.4-.5-10.8-1.2-16.2-2-3.8-.6-5.9-3.4-5.5-6.6.5-3.1 3.3-5.2 7.2-5.1zm80.7-134c.8.6 2.8 1.6 3.9 3.1 3 4.2 5.8 8.5 8.5 12.9 2.1 3.4 1.4 6.9-1.5 8.8-2.7 1.8-6.1 1.1-8.3-2.1-3.1-4.4-6.2-8.9-8.9-13.6-2.4-4.4.4-9.2 6.3-9.1zM23.3 216.2c4 .2 6.2 1.6 6.8 4.7.6 3.3-.7 6-4 6.8-5.9 1.4-11.9 2.5-17.9 3.2-3.1.4-5.3-1.6-5.9-4.8-.6-3.1.8-5.8 3.9-6.5 5.9-1.4 11.9-2.4 17.1-3.4zM136.4 8.3c.9 1 3.3 2.5 4.1 4.6 2 4.9 3.3 10.1 4.6 15.2 1 3.9-.8 7-4.1 7.8-3.3.8-6.1-.8-7.3-4.5-1.6-4.9-3.1-9.8-4.5-14.8-1-4.6 1.5-8.2 7.2-8.3zM46.3 66.8c2.2 1.1 3.9 1.6 5.2 2.6 3.9 3 7.6 6.2 11.3 9.5 3.1 2.7 3.6 6.2 1.5 8.8-2.3 2.9-5.8 3.1-9.2.4-4.1-3.3-8.4-6.6-12-10.4-1.3-1.4-1.9-4.5-1.4-6.4.5-1.8 2.9-3 4.6-4.5zm-21 216.3c-2.2-2-4.7-3.3-5-4.9-.4-2.1.2-5.6 1.7-6.6 5.3-3.4 11-6.3 16.9-8.6 1.6-.6 4.9.7 6 2.2 1.1 1.5 1.2 5.7.2 6.3-6.2 4.1-12.8 7.6-19.8 11.6zm50.1 24.8c-1.3 2.1-1.9 3.8-3.2 5.1-3.4 3.5-7 6.9-10.6 10.2-3.4 3.1-6.6 3.2-9.1.5-2.5-2.5-2.2-6.1.8-9.1 3.7-3.6 7.3-7.4 11.4-10.5 1.6-1.2 4.8-1.5 6.9-.9 1.5.5 2.4 3 3.8 4.7zm164.5-184.1c-.1-28 26.7-48 53.6-39.8 4.1 1.2 6 4.2 5 7.7-1 3.4-4.1 5-8.4 3.7-8.4-2.4-16.3-1.6-23.8 2.8-12.5 7.2-17.8 23.9-11.9 37.2 6.3 14.3 21.6 21 36.5 16 13.5-4.5 22-19.6 19-33.8-.3-1.2-.6-2.3-.8-3.5-.7-3.7 1.1-6.7 4.3-7.4 3.4-.8 6.2.9 7.3 4.6 2.6 8.9 2.6 17.8-.7 26.6-7.9 21.3-31.5 32.4-52.7 24.7-16.2-5.7-27.3-21.4-27.4-38.8z"/><path fill="#00505D" d="M281.3 144.6c-11.6.1-21.1-9.4-21.1-21 0-11.4 9.4-20.8 20.8-20.9 11.6-.1 21 9.3 21 21 0 11.5-9.2 20.8-20.7 20.9zm-.2-29.9c-4.8 0-8.9 4.2-8.9 9s4.1 8.9 8.9 8.9c4.9 0 8.8-4 8.8-9 0-4.9-3.9-8.9-8.8-8.9z"/></symbol></svg>