<svg xmlns="http://www.w3.org/2000/svg" xml:space="preserve" width="9.341mm" height="5.535mm" version="1.1" style="shape-rendering:geometricPrecision; text-rendering:geometricPrecision; image-rendering:optimizeQuality; fill-rule:evenodd; clip-rule:evenodd"
viewBox="0 0 934.1 553.5"
 xmlns:xlink="http://www.w3.org/1999/xlink"
 xmlns:xodm="http://www.corel.com/coreldraw/odm/2003">
 <g id="Слой_x0020_1">
  <metadata id="CorelCorpID_0Corel-Layer"/>
  <path fill="#E3B196" d="M80.8 27.72c70.19,0 159.11,6.28 159.11,158.39l0 222.82 0 22.3c0,28.43 7.75,116.01 73.91,123.96l-102.24 0c-70.19,0 -159.11,-6.28 -159.11,-158.39 0,-120.41 0,-152.19 0,-272.6 0,-70.94 -27.72,-96.48 -61.61,-96.48l89.94 0z"/>
  <path class="fil0" d="M509.63 27.72c70.18,0 161.43,6.28 217.54,158.39 44.43,120.41 56.15,152.18 100.57,272.6 26.17,70.94 63.32,96.48 97.2,96.48l-89.94 0c-70.19,0 -161.43,-6.28 -217.55,-158.39 -44.42,-120.41 -56.14,-152.19 -100.57,-272.6 -26.16,-70.94 -63.31,-96.48 -97.2,-96.48l89.95 0z"/>
  <path fill="#E3B196" d="M436.9 555.19c66.56,0 120.54,-53.98 120.54,-120.54 0,-66.56 -53.98,-120.54 -120.54,-120.54 -66.56,0 -120.54,53.98 -120.54,120.54 0,66.56 53.98,120.54 120.54,120.54z"/>
 </g>
</svg>