<svg xmlns="http://www.w3.org/2000/svg" xml:space="preserve" width="55.717mm" height="5.535mm" version="1.1" style="shape-rendering:geometricPrecision; text-rendering:geometricPrecision; image-rendering:optimizeQuality; fill-rule:evenodd; clip-rule:evenodd"
viewBox="0 0 5571.7 553.5"
 xmlns:xlink="http://www.w3.org/1999/xlink"
 xmlns:xodm="http://www.corel.com/coreldraw/odm/2003">
 <g id="Слой_x0020_1">
  <metadata id="CorelCorpID_0Corel-Layer"/>
  <g id="_1854705107632">
   <g>
    <g>
     <path fill="#E3B196" d="M72.43 38.75c70.19,0 159.11,6.28 159.11,158.39l0 222.82 0 22.3c0,28.43 7.75,116.01 73.91,123.96l-102.24 0c-70.19,0 -159.11,-6.28 -159.11,-158.39 0,-120.41 0,-152.19 0,-272.6 0,-70.94 -27.72,-96.48 -61.61,-96.48l89.94 0z"/>
     <path fill="#E3B196" d="M501.26 38.75c70.18,0 161.43,6.28 217.54,158.39 44.43,120.41 56.15,152.18 100.57,272.6 26.17,70.94 63.32,96.48 97.2,96.48l-89.94 0c-70.19,0 -161.43,-6.28 -217.55,-158.39 -44.42,-120.41 -56.14,-152.19 -100.57,-272.6 -26.16,-70.94 -63.31,-96.48 -97.2,-96.48l89.95 0z"/>
    </g>
    <path fill="#E3B196" d="M428.53 566.22c66.56,0 120.54,-53.98 120.54,-120.54 0,-66.56 -53.98,-120.54 -120.54,-120.54 -66.56,0 -120.54,53.98 -120.54,120.54 0,66.56 53.98,120.54 120.54,120.54z"/>
   </g>
   <g>
    <polygon fill="#00505D" points="1510.93,48.88 1278.77,566.22 1182.14,566.22 950.14,48.88 945.72,39.03 956.53,39.03 1050.75,39.03 1055.28,39.03 1057.14,43.17 1259.75,494.63 1461.57,43.17 1463.43,38.99 1467.96,38.99 1504.54,38.99 1515.36,38.99 "/>
    <polygon fill="#00505D" points="1751.8,39 1751.8,566.22 1854.66,566.22 1854.66,38.99 "/>
    <polygon fill="#00505D" points="2445.5,84.45 2296.97,84.45 2296.97,559.2 2296.97,566.22 2289.95,566.22 2261.43,566.22 2227.85,566.22 2227.85,566.19 2199.28,566.19 2192.25,566.19 2192.25,559.2 2192.25,84.45 2043.76,84.45 2036.77,84.45 2036.77,77.42 2036.77,46.02 2036.77,38.99 2043.76,38.99 2199.28,38.99 2289.95,38.99 2445.5,38.99 2452.49,38.99 2452.49,46.02 2452.49,77.42 2452.49,84.45 "/>
    <path fill="#00505D" d="M3307.99 416.59c7.7,12.07 16.76,23.54 27.13,34.4 10.26,10.82 21.13,20.29 32.58,28.37 11.44,8.07 23.47,14.77 36.05,20.13 12.56,5.34 25.78,9.39 39.64,12.11 13.86,2.7 28.42,4.07 43.68,4.07 15.05,0 29.49,-1.36 43.25,-4.05 13.88,-2.71 27.16,-6.76 39.79,-12.13 12.59,-5.36 24.61,-12.05 36.03,-20.13 11.44,-8.08 22.28,-17.53 32.49,-28.35l0.06 -0.05c10.38,-10.85 19.44,-22.3 27.15,-34.37 7.75,-12.11 14.2,-24.91 19.39,-38.4l0 -0.03c5.13,-13.26 8.96,-27.29 11.5,-42.06 2.55,-14.76 3.81,-30.31 3.81,-46.63 0,-16.31 -1.26,-31.9 -3.81,-46.72 -2.53,-14.81 -6.37,-28.96 -11.52,-42.42 -5.19,-13.32 -11.65,-25.99 -19.37,-38.03 -7.77,-12.11 -16.83,-23.58 -27.15,-34.38l-0.03 -0.03c-10.26,-10.85 -21.17,-20.41 -32.72,-28.6 -11.35,-8.05 -23.29,-14.76 -35.8,-20.04 -12.6,-5.31 -25.83,-9.33 -39.71,-12 -13.79,-2.66 -28.26,-4 -43.36,-4 -15.28,0 -29.86,1.35 -43.7,4 -13.89,2.67 -27.11,6.69 -39.66,12 -12.5,5.28 -24.47,12.01 -35.85,20.06 -11.48,8.14 -22.41,17.71 -32.74,28.61 -10.34,10.84 -19.39,22.32 -27.13,34.38 -7.73,12.08 -14.17,24.76 -19.34,38.06l-0.01 0c-5.13,13.38 -8.97,27.52 -11.52,42.39 -2.53,14.82 -3.77,30.41 -3.77,46.72 0,16.32 1.24,31.87 3.77,46.63 2.54,14.77 6.38,28.8 11.53,42.06l0.03 0.03c5.19,13.55 11.62,26.35 19.31,38.4zm-118.83 -233.56l0 0 -0.02 -0.01c12.44,-32.43 31.12,-61.69 55.95,-87.67l0.06 -0.06c40.31,-41.45 97.6,-67.18 158.06,-77.43 63.74,-10.82 131.21,-4.46 186.11,18.77l0.05 0c15.51,6.66 30.33,14.9 44.41,24.7 14.01,9.73 27.32,21.07 39.92,33.96 12.64,13.05 23.67,26.87 33.11,41.44 9.46,14.59 17.32,30 23.56,46.16l0.02 0.03c6.21,16.2 10.92,33.28 14.06,51.13 3.1,17.69 4.68,36.17 4.68,55.42 0,19.14 -1.58,37.62 -4.69,55.35 -3.13,17.89 -7.84,35.06 -14.05,51.39l-0.02 0c-6.29,16.36 -14.17,31.91 -23.61,46.58 -9.41,14.62 -20.45,28.47 -33.06,41.44 -12.58,12.95 -25.93,24.32 -40,34.03 -14.12,9.75 -28.94,17.85 -44.4,24.25 -54.95,22.97 -122.73,29.41 -186.73,18.62 -60.26,-10.13 -117.34,-35.6 -157.42,-76.9l-0.03 -0.03c-12.5,-13.03 -23.37,-26.87 -32.62,-41.46 -9.27,-14.63 -17,-30.07 -23.22,-46.27l0.02 -0.01c-6.28,-16.26 -11,-33.32 -14.12,-51.13 -3.11,-17.69 -4.66,-36.33 -4.66,-55.86l-0.04 0c0,-38.55 6.24,-74.04 18.68,-106.44z"/>
    <path fill="#00505D" d="M4058.17 324.91l0.03 241.31c-34.27,-0.15 -68.56,-0.03 -102.83,-0.03l0 -520.17 0 -7.03 7.02 0 282.38 0 0 0.04c16.82,0.03 32.44,1.51 46.75,4.37 14.58,2.92 28.01,7.3 40.18,13.08l0.05 0.03c12.1,5.87 22.88,12.89 32.29,21.1 9.43,8.23 17.5,17.68 24.13,28.4 6.6,10.69 11.54,22.33 14.81,34.89 3.24,12.4 4.87,25.76 4.94,40l0 0.06c-0.07,12.84 -1.39,24.96 -3.98,36.3 -2.63,11.47 -6.57,22.21 -11.85,32.18l-0.01 0c-5.25,10.14 -11.69,19.31 -19.29,27.5 -7.57,8.16 -16.35,15.38 -26.26,21.66l0.01 0.01c-9.99,6.4 -21.07,11.61 -33.18,15.62 -8.71,2.87 -17.99,5.15 -27.8,6.82l162.26 234.17 7.6 10.97 -13.36 0 -39.66 0 -3.68 0 -2.08 -2.99 -165.81 -238.29 -172.66 0zm183.7 -240.46l0 0 -183.7 0 0 194.98 183.7 0c12.72,0 24.35,-1 34.95,-2.91 10.87,-1.96 20.87,-4.92 30.01,-8.75l0 0.01c8.63,-3.79 16.3,-8.43 22.93,-13.91l0.02 0c6.56,-5.41 12.15,-11.72 16.71,-18.91l0.01 0.01c4.56,-7.2 8.01,-15.25 10.31,-24.08 2.32,-8.87 3.5,-18.66 3.5,-29.32 0,-10.32 -1.18,-19.83 -3.49,-28.51 -2.31,-8.67 -5.76,-16.59 -10.32,-23.72 -4.53,-7.11 -10.11,-13.4 -16.67,-18.86 -6.64,-5.51 -14.37,-10.24 -23.11,-14.15 -8.91,-3.89 -18.71,-6.88 -29.4,-8.86 -10.75,-2 -22.56,-3.02 -35.45,-3.02z"/>
    <polygon fill="#00505D" points="3042.77,84.45 2893.98,84.45 2893.98,559.2 2893.98,566.22 2886.96,566.22 2858.51,566.22 2824.77,566.22 2796.45,566.22 2789.44,566.22 2789.44,559.2 2789.44,84.45 2640.87,84.45 2633.87,84.45 2633.87,77.42 2633.87,46.02 2633.87,38.99 2640.87,38.99 2796.45,38.99 2886.96,38.99 3042.77,38.99 3049.76,38.99 3049.76,46.02 3049.76,77.42 3049.76,84.45 "/>
    <path fill="#00505D" d="M5098.82 416.15l-66.25 145.92 -1.88 4.15 -4.51 0 -36.03 0 -10.9 0 4.51 -9.91 233.19 -513.17 1.89 -4.15 4.5 0 88.31 0 4.52 0 1.88 4.15 231.68 513.17 4.46 9.88 -10.84 0 -92.07 0 -4.52 0 -1.86 -4.12 -66.38 -145.92 -279.7 0zm260.87 -43.44l0 0 -120.98 -266.19 -121.87 266.19 242.85 0z"/>
    <polygon fill="#00505D" points="4674.53,39 4674.53,566.22 4777.38,566.22 4777.38,38.99 "/>
   </g>
  </g>
 </g>
</svg>
