<svg aria-hidden="true" data-prefix="fas" data-icon="map" role="img" xmlns="http://www.w3.org/2000/svg" viewBox="0 0 250 250">
<path fill="#00505D" d="M95.4,178.3c-12.6-19.8-24.6-38.6-36.6-57.4C28.9,74.2,53.6,14,107.9,1.8c44.7-10.1,89.8,23.5,93.4,69.2
	c1.5,19.3-3.5,36.5-13.8,52.5c-10.7,16.5-21.2,33.1-31.7,49.7c-0.9,1.5-1.8,3-3.1,5.3c12.9,0,25,0.2,37.1-0.1
	c5.2-0.1,8.6,1.4,11.8,5.6c14.5,18.7,29.4,37,43.9,55.7c1.5,1.9,2.7,5.4,1.9,7.4c-0.6,1.6-4.3,2.8-6.7,2.8
	c-78,0.1-155.9,0.1-233.9,0c-2.3,0-5.7-1.2-6.6-2.9c-0.8-1.6,0.4-5.1,1.8-6.9c15-19.2,30.2-38.1,45.2-57.2c2.5-3.2,5.4-4.4,9.4-4.4
	C69.3,178.5,81.9,178.3,95.4,178.3z M123.8,205c1-1.4,1.5-2,1.9-2.7c17.9-28.2,35.8-56.5,53.9-84.6c7.7-12.1,12.5-25,12.4-39.4
	c-0.2-43-39.2-75-81.3-66.9C65.5,20,41.8,71.3,64.6,111.2c6.5,11.4,13.7,22.4,20.8,33.5C98,164.6,110.8,184.5,123.8,205z
	 M191.5,239.9c-5.6-7.1-10.5-13.5-15.7-19.7c-0.7-0.9-2.7-1.1-4.1-1.1c-32-0.1-63.9-0.1-95.9,0c-1.2,0-3,0.1-3.7,0.9
	c-5.2,6.3-10.2,12.8-15.9,19.9C101.8,239.9,146.1,239.9,191.5,239.9z M60.2,219.1c-10,0-18.6,0-27.2,0c-0.9,0-2.2,0.2-2.7,0.9
	c-5.2,6.3-10.2,12.8-16,20.1c10,0,18.6,0.1,27.2-0.1c1.1,0,2.6-0.7,3.3-1.6C49.8,232.4,54.5,226.2,60.2,219.1z M233.5,240
	c-5.7-7.2-10.7-13.6-15.8-19.9c-0.4-0.5-1.1-1-1.6-1c-9.2-0.1-18.4,0-28.4,0c5.4,6.9,10,12.9,14.9,18.8c1,1.2,3,2,4.6,2
	C215.6,240.1,223.9,240,233.5,240z M163.1,188.2c5.7,7.1,10.5,13.3,15.4,19.3c0.6,0.7,1.5,1.5,2.3,1.5c9.2,0.1,18.3,0.1,28.2,0.1
	c-5.5-7-10.2-13.1-15.1-19.1c-0.7-0.9-2.1-1.7-3.2-1.7C181.9,188.2,173.2,188.2,163.1,188.2z M38.7,209.2c9.9,0,18.8,0,27.7-0.1
	c0.9,0,2-0.5,2.5-1.2c5.1-6.3,10-12.6,15.6-19.7c-9.9,0-18.8,0-27.7,0.1c-0.9,0-2,0.5-2.5,1.2C49.3,195.7,44.3,202.1,38.7,209.2z
	 M80.9,208.8c11.7,0,22.5,0,33.8,0c-4.2-6.6-7.9-12.6-11.8-18.6c-2-3.1-4.8-2.9-6.9-0.4C90.9,195.8,86.1,202.1,80.9,208.8z
	 M167.2,209.1c-5.4-6.9-10-13.2-15.2-19c-1.1-1.2-5.5-1.6-6.1-0.7c-4.5,6.2-8.5,12.8-12.9,19.7C144.6,209.1,155.4,209.1,167.2,209.1
	z"/>
<path fill="#E3B196" d="M172.4,77.8c0.5,26-21.1,48.8-46.5,49.2c-27.9,0.4-50.3-20.9-50.7-48.2c-0.4-26.7,21.1-49,47.9-49.5
	C149.9,28.9,171.9,50.5,172.4,77.8z M85.1,77.8c0,21.9,17,39.3,38.6,39.4c21,0.1,38.8-17.2,39.1-38c0.4-21.7-17.3-39.9-38.8-39.9
	C102.7,39.2,85.1,56.6,85.1,77.8z"/>
<path fill="#E3B196" d="M141,143c5.3,0.4,6.9,3.8,4.6,7.9c-3.4,6.1-7.1,12-10.7,18c-2.1,3.6-4.3,7.1-6.4,10.7
	c-1.6,2.8-4,3.7-6.8,2.1c-3.1-1.7-3.2-4.4-1.5-7.3c5.7-9.6,11.4-19.2,17.2-28.7C138.3,144.3,140.3,143.5,141,143z"/>
<path fill="#E3B196" d="M160.2,132.1c-3.4,2.1-5.2,4-7.2,4.3c-3.1,0.3-5.3-2.1-4.5-5c0.5-1.8,3.2-3.9,4.9-4
	C155.1,127.3,157,129.7,160.2,132.1z"/>
</svg>
