<svg aria-hidden="true" data-prefix="fas" data-icon="meh" role="img" xmlns="http://www.w3.org/2000/svg" viewBox="0 0 250 250">
<path fill="#E3B196" d="M58.3,86.3c-1.7-1.4-3.6-3-5.5-4.7c-3.3-3.1-3.4-6.2-0.1-9.4c6.4-6.3,12.7-12.7,19.1-19
	c3.9-3.8,5.7-3.7,9.7,0.2c1.6,1.6,2.9,3.6,4.1,5.1c6.4-2.6,11.9-4.6,17.2-6.9c1-0.5,2-1.9,2.2-3.1c0.4-1.8,0.2-3.6,0.1-5.5
	c-0.2-4.1,1.7-6.3,5.9-6.3c9.5,0,19,0,28.5,0c3.9,0,5.8,2,5.7,5.9c0,0.3,0.1,0.7,0,1c-1.1,5.5,0.9,8.8,6.7,9.6
	c0.8,0.1,1.7,0.3,2.4,0.8c6,4,11.3,5.1,16.3-1.9c0.7-1,5.4-0.9,6.8,0.4c7.3,6.6,14.1,13.7,21,20.7c2.4,2.4,2.4,5.1,0,7.5
	c-2,2-4.2,3.8-6.2,5.6c2.5,6.2,4.4,11.8,7,17.1c0.6,1.2,3.1,1.9,4.8,2c9.6,0.3,10.1,0.6,10.1,10.3c0,7.2,0,14.3,0,21.5
	c0,7.3-1.1,8.5-8.2,8.5c-2,0-4,0-5.7,0c-2.6,6.3-5.1,12.3-8.2,19.5c1.4,1.1,3.6,2.4,5.3,4.2c3.9,3.9,3.9,5.8,0.1,9.7
	c-6.3,6.4-12.7,12.7-19,19.1c-3.3,3.3-6.3,3.3-9.4-0.1c-1.7-1.9-3.2-3.8-4.4-5.3c-6.4,2.5-11.9,4.5-17.1,7c-1.1,0.5-2.2,2.7-2.1,4.1
	c0.6,12.5-2.8,10.7-10.9,10.7c-7.7,0-15.3-0.1-23,0c-4.4,0-6.5-1.9-6.2-6.4c0.1-0.8-0.1-1.7,0-2.5c0.7-4.2-1-6.1-5.1-7.3
	c-4.4-1.2-8.6-3.5-14.6-6c-1.1,1.5-2.4,3.7-4.2,5.7c-2.8,3.2-5.9,3.4-9,0.3c-6.6-6.6-13.2-13.2-19.8-19.8c-2.8-2.9-3.1-5.7,0-8.7
	c1-0.9,1.8-2,2.8-2.8c2.9-2,2.8-4.1,1.1-7.1c-1.9-3.3-3.3-6.9-4.3-10.6c-0.9-3.1-2.5-4-5.7-3.9c-9.7,0.2-10.1-0.4-10.1-10
	c0-7.5,0-15,0-22.5c0-5.9,1.6-8,7.3-7.4c5.8,0.6,8.3-1.5,9.6-7C54.1,94.6,56.3,90.9,58.3,86.3z M115,46.8c0,1.5,0,2.7,0,3.9
	c-0.1,7.5-0.6,7.8-7.7,9.9c-4.3,1.3-8.5,2.9-12.5,4.8c-9.7,4.7-9.7,4.8-17.5-2.4c-0.2-0.2-0.6-0.2-0.9-0.3c0.3,0.3,0.7,0.7,1,1
	c-5,4.5-10.1,8.9-15.6,13.8c1.2,1,2.2,1.6,3.1,2.4c5.6,5.5,5.4,5.5,1.8,12.2c-2,3.6-4.2,7.4-5,11.4c-1.8,8.4-5,14.3-15.3,11.2
	c0,7.3,0,13.9,0,21c1.6,0,3.1,0.1,4.5,0c5.4-0.6,8.2,1.7,9.4,7.1c1,4.6,3,9.2,5.1,13.5c4.6,9.4,4.7,9.4-2.5,17.1
	c-0.2,0.2-0.2,0.5-0.5,1.1c4.7,4.6,9.4,9.2,14.3,14c1.1-1,2.3-2,3.2-3.1c3.4-4.2,6.8-4.9,11.6-1.8c4,2.6,8.6,4.4,13.1,5.9
	c10,3.5,10,3.3,10.6,13.8c0,0.3,0.3,0.5,0.5,0.9c6.4,0,12.8,0,19.6,0c0-1.7,0.1-3.2,0-4.6c-0.5-5.2,1.6-7.9,6.8-9.1
	c4.6-1.1,9.4-2.7,13.5-5.1c10.4-5.9,9.1-5.6,17.5,2.5c0.2,0.2,0.6,0.2,0.3,0.1c5-4.7,9.9-9.3,15.3-14.4c-1.5-1.2-2.7-2.1-3.9-3
	c-4.5-3.3-4.6-7-1.6-11.6c2.5-3.9,4.5-8.2,5.8-12.7c3.3-11.3,1.8-10.5,14.1-10.9c0.3,0,0.5-0.3,0.7-0.5c0-6.6,0-13.2,0-20
	c-1.5,0-2.7,0-3.8,0c-7.7-0.1-7.8-0.2-10-7.5c-1.3-4.3-2.9-8.5-4.9-12.5c-4.7-9.7-4.8-9.7,2.4-17.5c0.2-0.2,0.1-0.6,0.2-1.1
	c-4.7-4.5-9.5-9.1-15.1-14.4c-0.8,1.1-1.7,2.4-2.7,3.8c-3.1,4-6.4,4.4-10.8,1.6c-3.7-2.4-7.9-4.7-12.1-5.6
	c-8.2-1.9-14.4-4.8-11.4-15.1C128.5,46.8,122.1,46.8,115,46.8z"/>
<path fill="#00505D" d="M125.5,0c7.8,0.9,14.9,1.7,22,2.6c3.5,0.4,6.6,1.6,6,5.7c-0.6,4.4-4.1,4.6-7.7,4
	c-32.7-5.7-62.5,1.3-89.2,20.8C6.3,70-4.9,142.5,31.9,192.9c2,2.7,3.6,2.8,6.6,1.9c11.1-3.3,22.7,3.2,25.6,14
	c2.9,11-3.3,22.2-13.9,25.3c-11,3.2-22.7-3-25.2-14.2c-1-4.3-0.1-9.2,0.9-13.6c0.6-2.5,0.9-4.1-0.6-6.3C0.9,167-6.1,130.4,5.4,91.6
	c14.5-48.9,47.8-78.8,98-89C110.8,1,118.5,0.8,125.5,0z M44.2,203.6c-5.9,0-10.5,4.8-10.4,10.9c0.1,5.8,4.7,10.4,10.4,10.5
	c5.9,0,10.8-4.8,10.8-10.7C55,208.6,50,203.6,44.2,203.6z"/>
<path fill="#00505D" d="M125.2,251c-7.3-0.8-14.5-1.6-21.8-2.5c-3.6-0.4-6.9-1.4-6.2-6c0.7-4.6,4.2-4.4,7.8-3.8
	c27.5,4.8,53.5,0.6,77.5-13.6c33-19.6,52.2-48.6,56.9-86.9c3.5-29.2-3.6-55.7-20.5-79.8c-1.9-2.7-3.3-3.5-6.8-2.4
	c-11.1,3.5-22.5-2.9-25.6-13.8c-3.1-10.8,3.1-22.2,13.7-25.3c10.8-3.2,22.6,2.7,25.2,13.6c1.1,4.5-0.5,9.7-0.6,14.6
	c-0.1,1.9-0.3,4.3,0.7,5.7c23.4,33.2,31.2,69.6,19.6,108.5c-14.4,48.7-47.6,78.4-97.4,89.1c-4.4,0.9-8.9,1.4-13.4,1.7
	c-3,0.3-6,0-9,0C125.2,250.5,125.2,250.8,125.2,251z M216.6,36.6c0-6.1-4.6-10.6-10.7-10.5c-6,0.1-10.6,4.9-10.5,10.9
	c0.1,5.6,5,10.3,10.6,10.4C211.8,47.5,216.6,42.7,216.6,36.6z"/>
<path fill="#00505D" d="M169.7,21c-2.1-3.3-4.4-5.4-4.2-7.1c0.3-1.7,3.1-4.2,4.7-4.2c1.6,0.1,4.2,2.8,4.3,4.6
	C174.6,16,172.1,17.8,169.7,21z"/>
<path fill="#00505D" d="M79.4,242.5c-1.3-1.8-3.8-3.9-3.4-5.4c0.4-1.9,3.1-3.4,4.8-5c1.5,1.7,4,3.3,4.2,5.1c0.1,1.7-2.2,3.6-3.5,5.4
	C80.8,242.5,80.1,242.5,79.4,242.5z"/>
<path fill="#E3B196" d="M125,165.7c-22.7,0-40-17.7-40-40.8c0-21.8,18.2-39.6,40.4-39.5c22.2,0.1,40,18.2,39.9,40.7
	C165.2,148,147.2,165.7,125,165.7z M125.2,155.9c16.8,0,30.5-13.8,30.3-30.6c-0.2-16.7-13.5-30-30.2-30.2
	c-16.9-0.1-30.5,13.4-30.6,30.3C94.8,142.2,108.4,155.9,125.2,155.9z"/>
</svg>
