<svg aria-hidden="true" data-prefix="fas" data-icon="shi" role="img" xmlns="http://www.w3.org/2000/svg" viewBox="0 0 450 255">
<path fill="#00505D" d="M46.9,185.7c0-16.2,0-32.4,0-48.9c-8.3,0-16.5,0-24.7,0c-1.7,0-4,0.1-4.9-0.9c-1.4-1.6-2.5-4-2.5-6.1
	c0.1-2.6,2.5-3.9,5.1-3.9c6.5,0,13,0,19.5-0.1c2.4,0,4.7,0,7.4,0c0-9,0-17.9,0-27.4c-3.6,0-7.2,0-10.8,0c-29.9,0,2.3,0-27.6,0
	c-0.5,0-1,0-1.5,0c-4.6-0.2-7-2-6.9-5.6c0.1-3.4,2.6-5.3,7.1-5.3c32.1,0,2.2,0.1,34.3,0.1c1.7,0,3.5,0,5.4,0c0-10.9,0-21.6,0-32.9
	c-2,0-4,0-6.1,0c-6.7,0-13.5,0-20.2,0c-3.7,0-5.9-2-6-5.2c-0.1-3.2,2.3-5.6,6.1-5.6c7.5-0.1,15,0,22.5,0c1.2,0,2.4-0.1,4-0.2
	c0-8.4,0-16.7,0-24.9c0-3.9-0.1-7.7,0-11.6c0-5.3,1.8-7,7.4-7c15.2,0,30.5,0,45.7,0C149.8,0.1,199.4,0,249,0c6.4,0,12.7,0,19.1,0
	c6.9,0,8.5,1.5,8.5,8.3c0,11.7,0,23.5,0,35.7c1.6,0,2.9,0,4.3,0c14.4,0,28.7,0.1,43.1,0c3.2,0,5.4,1,7.2,3.6
	C342.7,64,354.4,80.4,366,96.8c3.8,5.3,7.5,10.6,11.4,15.8c0.8,1.1,2.5,2,3.9,2.1c28.8,2.3,48.6,23.9,48.2,52.9
	c-0.1,6.1,0,12.2,0,18.3c7.6,2.2,13.2,6,15.5,13.6c3.6,12.1-5.1,24.4-17.8,24.7c-7.9,0.2-15.7,0.1-23.6,0c-2.2,0-3.2,0.6-4.1,2.7
	c-6.2,14.7-17.3,23.2-33.4,24.4c-16.2,1.2-31.6-8.7-37.6-23.8c-0.4-1-0.8-2.1-1.3-3.3c-8.5,0-17,0-25.5,0c-45.6,0-91.2,0-136.8-0.1
	c-3.2,0-4.7,0.8-6,3.9c-5.8,13.9-19.7,23.8-36,23.4c-15.2-0.4-28.8-9.4-34.6-23.8c-1.1-2.7-2.4-3.5-5.1-3.4c-10.5,0.2-21,0-31.5,0.1
	c-11.3,0-18.9-6.2-20.7-17c-1.5-9.3,4.5-17.7,14.8-20.8C46.1,186.2,46.4,186,46.9,185.7z M58.5,98.5c0,9.3,0,18.2,0,27.3
	c2.5,0,4.7,0,7,0c22.5,0,45,0,67.5,0.1c1.7,0,4.2,0.3,5.1,1.5c1.2,1.5,1.8,4.1,1.4,6c-0.6,3.1-3.6,3.4-6.3,3.4
	c-16.7,0-33.5-0.1-50.2-0.1c-8.1,0-16.2,0-24.4,0c0,16.5,0,32.7,0,49.2c12.7,0,25.2,0,37.6-0.1c0.7,0,1.5-0.7,2.2-1.2
	c16.5-13.1,34.1-13.1,50.7-0.1c1,0.8,2.4,1.3,3.6,1.3c36.5,0.1,73,0.1,109.5,0.1c1.1,0,2.1-0.1,3.2-0.2c0-58.3,0-116.2,0-174.2
	c-69.1,0-138,0-206.8,0c0,11,0,21.7,0,32.5c0.9,0,1.5,0,2.2,0c29.4,0,58.7,0,88.1,0c5.4,0,7.8,1.7,7.7,5.4c-0.1,3.8-2.4,5.4-7.8,5.4
	c-0.7,0-1.5,0-2.2,0c-27,0-54-0.1-81-0.1c-2.3,0-4.7,0-7,0c0,11.2,0,21.9,0,32.9c2.4,0,4.5,0,6.6,0c8.1,0,16.2,0,24.4,0
	c4.7,0,7,1.8,6.9,5.5c-0.1,3.6-2.4,5.4-7,5.5c-1.5,0-3-0.1-4.5-0.1C76.1,98.5,67.4,98.5,58.5,98.5z M418.3,185.8
	c0-6.5-0.2-12.6,0-18.7c1-22.4-17.2-42.2-41-41.4c-25.6,0.8-51.2,0.2-76.8,0.2c-5.8,0-7.7-1.9-7.7-7.6c0-13.4,0.1-26.7,0.1-40.1
	c0-4.3,1.6-6.5,4.9-6.6c3.7-0.2,5.9,2.1,6,6.5c0.1,3.5-0.1,7-0.1,10.5c0,8.6,0,17.2,0,25.9c20.5,0,40.7,0,61.2,0
	c-0.6-0.9-0.9-1.4-1.2-1.9c-13.2-18.6-26.4-37.3-39.8-55.8c-0.8-1.1-2.8-2-4.3-2c-11-0.1-22,0-33,0c-3.3,0-6.6,0-9.9,0
	c0,44,0,87.4,0,131.1c15.5,0,30.7,0,45.9,0c4.2,0,8.5,0.1,12.7-0.2c1.2-0.1,2.5-0.9,3.5-1.7c15.2-12.4,35.3-12.2,50.1,0.4
	c0.9,0.7,2.2,1.4,3.3,1.4C400.8,185.9,409.3,185.8,418.3,185.8z M162.6,212.8c54,0,108.3,0,162.5,0c1.2-5.4,2.3-10.5,3.5-15.8
	c-56.6,0-113.2,0-169.7,0C160.1,202.2,161.3,207.3,162.6,212.8z M364.1,185.9c-15.7,0.1-27.7,12.5-27.5,28.1
	c0.2,14,13.3,26.7,27.3,26.5c15.4-0.2,27.5-12.9,27.3-28.5C391,197.9,378.4,185.8,364.1,185.9z M96.5,212.9
	c0.3,15.9,12.2,27.8,27.5,27.5c15.6-0.3,27-12.5,26.7-28.7c-0.2-14.2-13.2-26.2-28.1-25.9C108.4,186.1,96.2,198.7,96.5,212.9z
	 M88.4,196.9c-13.1,0-26.2-0.1-39.3,0.1c-4.3,0.1-7.3,3.7-7.3,8c0,4.2,3.5,7.9,7.8,8c7.4,0.1,14.7,0,22.1,0c4.5,0,8.9,0,12.8,0
	C85.9,207.3,87.1,202.3,88.4,196.9z M402.4,213c7.8,0,15.5,0,23.2,0c5.5,0,9.2-3.4,9.1-8.2c0-4.8-3.6-8-9.3-8c-6.5,0-13,0-19.5,0
	c-2.3,0-4.6,0-7.3,0c0.9,3,1.8,5.4,2.4,7.9C401.7,207.2,402,209.8,402.4,213z"/>
<path fill="#00505D" d="M380.1,213.2c-0.2,9.6-7.5,16.5-17.1,16.3c-8.3-0.2-15.6-7.7-15.5-16.1c0.1-9.7,7.5-16.8,17.3-16.6
	C373.5,197,380.3,204.2,380.1,213.2z M363.9,218.5c2.8-0.1,5.3-2.8,5.3-5.6c0-2.8-2.4-5.1-5.3-5.2c-2.9,0-5.8,2.9-5.6,5.8
	C358.5,216.2,361.2,218.6,363.9,218.5z"/>
<path fill="#00505D" d="M123.6,229.4c-9.3,0-16.4-7-16.5-16.3c-0.1-8.8,7.6-16.5,16.5-16.5c8.8,0,16.4,7.4,16.5,16
	C140.1,222.2,133,229.4,123.6,229.4z M128.9,212.9c0-2.9-2.2-5.3-5.1-5.3c-3-0.1-5.5,2.5-5.4,5.4c0.1,2.9,2.3,5.2,5.2,5.3
	C126.6,218.5,128.8,216.2,128.9,212.9z"/>
</svg>
