<svg xmlns="http://www.w3.org/2000/svg" width="32" height="37"><path fill="#A83D57" d="M29.963 10.077a.29.29 0 00-.29-.267h-5.237V8.365c0-4.623-3.784-8.383-8.436-8.383s-8.436 3.76-8.436 8.383V9.81H2.327a.29.29 0 00-.29.267L.001 36.671a.29.29 0 00.29.311h31.418a.292.292 0 00.29-.31l-2.036-26.595zM9.89 8.365c0-3.347 2.74-6.07 6.109-6.07 3.369 0 6.11 2.723 6.11 6.07V9.81H9.89V8.365zm-1.164 9.539c-1.604 0-2.909-1.297-2.909-2.89 0-1.155.582-2.194 1.746-2.65v2.65a1.16 1.16 0 001.163 1.155 1.16 1.16 0 001.164-1.156v-2.647c1.164.456 1.745 1.503 1.745 2.647a2.902 2.902 0 01-2.909 2.89zm14.546 0c-1.605 0-2.91-1.297-2.91-2.89 0-1.155.582-2.194 1.746-2.65v2.65a1.16 1.16 0 001.164 1.155 1.16 1.16 0 001.163-1.156v-2.647c1.164.456 1.746 1.503 1.746 2.647 0 1.594-1.305 2.89-2.91 2.89z"/></svg>