<?xml version="1.0" standalone="no"?>
<!DOCTYPE svg PUBLIC "-//W3C//DTD SVG 20010904//EN"
 "http://www.w3.org/TR/2001/REC-SVG-20010904/DTD/svg10.dtd">
<svg version="1.0" xmlns="http://www.w3.org/2000/svg"
 width="600.000000pt" height="600.000000pt" viewBox="0 0 600.000000 600.000000"
 preserveAspectRatio="xMidYMid meet">
<metadata>
Created by potrace 1.11, written by Peter Selinger 2001-2013
</metadata>
<g transform="translate(0.000000,600.000000) scale(0.100000,-0.100000)"
fill="#000000" stroke="none">
<path d="M2745 5939 c-1154 -101 -2150 -876 -2529 -1968 -447 -1287 36 -2698
1179 -3444 685 -446 1532 -587 2325 -387 958 242 1741 958 2064 1889 220 634
220 1308 0 1942 -238 686 -732 1267 -1379 1622 -492 270 -1093 395 -1660 346z
m646 -1117 c466 -84 777 -324 906 -701 31 -91 63 -256 63 -327 l0 -30 -307
-13 c-170 -6 -333 -14 -364 -18 l-56 -5 -7 38 c-33 188 -134 342 -267 409
-105 54 -187 68 -384 68 -204 0 -282 -14 -411 -78 -210 -103 -255 -320 -98
-465 90 -83 254 -145 654 -246 413 -105 606 -167 775 -251 276 -138 457 -355
531 -638 35 -135 44 -367 20 -499 -31 -162 -107 -333 -203 -458 -175 -228
-415 -360 -778 -429 -139 -27 -555 -38 -716 -19 -644 73 -1036 414 -1168 1015
-30 137 -36 205 -19 205 7 0 152 14 321 30 170 17 323 30 341 30 32 0 33 -1
48 -73 53 -243 185 -433 364 -522 129 -64 205 -78 409 -78 203 0 279 14 413
78 98 46 190 138 235 232 30 63 32 75 32 173 0 92 -3 111 -25 154 -49 95 -167
173 -349 230 -46 15 -222 62 -390 105 -349 90 -459 124 -609 187 -183 77 -306
157 -412 270 -110 117 -197 271 -235 414 -23 89 -31 303 -15 394 65 365 310
633 693 761 206 68 337 85 652 80 189 -2 265 -7 356 -23z"/>
</g>
</svg>
